<?xml version="1.0" encoding="UTF-8" standalone="no"?>
<!-- Created with Inkscape (http://www.inkscape.org/) -->

<svg
   width="252"
   height="561"
   viewBox="0 0 66.674995 148.43125"
   version="1.1"
   id="svg1"
   xml:space="preserve"
   sodipodi:docname="wallpaper_1.svg"
   inkscape:version="1.4 (e7c3feb100, 2024-10-09)"
   inkscape:export-filename="wallpaper_1.png"
   inkscape:export-xdpi="384"
   inkscape:export-ydpi="384"
   xmlns:inkscape="http://www.inkscape.org/namespaces/inkscape"
   xmlns:sodipodi="http://sodipodi.sourceforge.net/DTD/sodipodi-0.dtd"
   xmlns="http://www.w3.org/2000/svg"
   xmlns:svg="http://www.w3.org/2000/svg"><sodipodi:namedview
     id="namedview1"
     pagecolor="#ffffff"
     bordercolor="#000000"
     borderopacity="0.25"
     inkscape:showpageshadow="2"
     inkscape:pageopacity="0.0"
     inkscape:pagecheckerboard="false"
     inkscape:deskcolor="#d1d1d1"
     inkscape:document-units="px"
     inkscape:zoom="2.0834125"
     inkscape:cx="178.31322"
     inkscape:cy="345.10689"
     inkscape:window-width="1180"
     inkscape:window-height="996"
     inkscape:window-x="0"
     inkscape:window-y="0"
     inkscape:window-maximized="0"
     inkscape:current-layer="layer2" /><defs
     id="defs1"><rect
   x="-42.238396"
   y="86.39672"
   width="208.31209"
   height="34.558688"
   id="rect5" /><pattern
   id="clouds"
   patternUnits="userSpaceOnUse"
   width="63.5"
   height="33.337">
      <path
   fill="#a0dfe7"
   d="M10.053 1.059v.529h-.529v.53h-.529v1.057H6.878v.53h-.529v.529H5.82v1.058H4.232v.53h-.529v.528h-.529v1.588H1.587v.53h-.53v.528H.528v.53h-.529v.529H-.53v.529h-.53v1.587h-.528v.53h-.53v2.116h.53v1.058h-.53v2.117h.53v.53h25.4v-.53h.529v-2.117h-.53v-.529h.53V13.23h-.53v-.53h-.529v-1.587h-.529v-.53h-.529v-.528h-1.587v-.53h-.53V6.88h-.529v-.53h-.529v-.529h-1.587V4.763h-.53v-.53h-.529v-.528h-.529V2.646h-.529v-.529h-.53v-.529H12.17v-.53zm37.571 0v.529h-.529v.53h-2.117v.528h-.529v.53h-.529v.529h-.53v.529h-.528v.529h-.53v.53h-2.116v.528h-.53v.53h-.529v2.116h-.529v2.117h.53v.529h-.53v.53h-2.116v.528h-.53v.53h-.529v2.116h.53v.53h.529v.528h.529v1.059h.529v.529h.53v.53h.528v.528H64.03v-2.116h-.53v-.53h-.529v-1.587h-.53v-.53h-.528v-.528h-2.117v-.53h-.53v-.529h-.528v-.529h-.53v-.529h-.529v-1.058h.53V7.938h-.53v-.53h-.529V5.821h-.529v-.529h-.53v-.529h-2.116V3.705h-.529v-.53h-.53v-.529H50.8v-.529h-.529v-.529h-.53v-.53z"
   id="path1">
        <animateTransform
   attributeName="transform"
   attributeType="XML"
   type="translate"
   calcMode="discrete"
   dur="2s"
   keySplines="0.25 0.1 0.25 1;0.25 0.1 0.25 1"
   keyTimes="0;0.5;1"
   values="0 0; 0.3 0; 0 0"
   repeatCount="indefinite" />
      </path>
      <path
   fill="#a0dfe7"
   d="M62.971 1.059v.529h.529v.53h.529v1.057h2.117v.53h.529v.529h.529v1.058h1.588v.53h.529v.528h.529v1.588h1.587v.53h.53v.528h.529v.53h.529v.529h.529v.529h.53v1.587h.528v.53h.53v2.116h-.53v1.058h.53v2.117h-.53v.53h-25.4v-.53h-.529v-2.117h.53v-.529h-.53V13.23h.53v-.53h.529v-1.587h.529v-.53h.529v-.528h1.587v-.53h.53V6.88h.529v-.53h.529v-.529h1.587V4.763h.53v-.53h.529v-.528h.529V2.646h.529v-.529h.53v-.529h2.645v-.53zm-37.571 0v.529h.529v.53h2.117v.528h.529v.53h.529v.529h.53v.529h.528v.529h.53v.53h2.116v.528h.53v.53h.529v2.116h.529v2.117h-.53v.529h.53v.53h2.116v.528h.53v.53h.529v2.116h-.53v.53h-.529v.528h-.529v1.059h-.529v.529h-.53v.53h-.528v.528H8.994v-2.116h.53v-.53h.529v-1.587h.53v-.53h.528v-.528h2.117v-.53h.53v-.529h.528v-.529h.53v-.529h.529v-1.058h-.53V7.938h.53v-.53h.529V5.821h.529v-.529h.53v-.529h2.116V3.705h.529v-.53h.53v-.529h2.116v-.529h.529v-.529h.53v-.53z"
   id="path2">
        <animateTransform
   attributeName="transform"
   attributeType="XML"
   type="translate"
   calcMode="discrete"
   dur="3s"
   keySplines="0.25 0.1 0.25 1;0.25 0.1 0.25 1"
   keyTimes="0;0.5;1"
   values="0 0; -0.4 0; 0 0"
   repeatCount="indefinite" />
      </path>
    </pattern><pattern
   id="clouds-water"
   patternUnits="userSpaceOnUse"
   width="63.5"
   height="33.337">
      <path
   fill="#53ceb9"
   d="M10.053 35.454v-.529h-.529v-.53h-.529v-1.057H6.878v-.53h-.529v-.529H5.82v-1.058H4.232v-.53h-.529v-.528h-.529v-1.588H1.587v-.53h-.53v-.528H.528v-.53h-.529v-.529H-.53v-.529h-.53v-1.587h-.528v-.53h-.53v-2.116h.53v-1.058h-.53v-2.117h.53v-.53h25.4v.53h.529v2.117h-.53v.529h.53v2.116h-.53v.53h-.529V25.4h-.529v.53h-.529v.528h-1.587v.53h-.53v2.645h-.529v.53h-.529v.529h-1.587v1.058h-.53v.53h-.529v.528h-.529v1.059h-.529v.529h-.53v.529H12.17v.53zm37.571 0v-.529h-.529v-.53h-2.117v-.528h-.529v-.53h-.529v-.529h-.53v-.529h-.528v-.529h-.53v-.53h-2.116v-.528h-.53v-.53h-.529v-2.116h-.529v-2.117h.53V25.4h-.53v-.53h-2.116v-.528h-.53v-.53h-.529v-2.116h.53v-.53h.529v-.528h.529v-1.059h.529v-.529h.53v-.53h.528v-.528H64.03v2.116h-.53v.53h-.529v1.587h-.53v.53h-.528v.528h-2.117v.53h-.53v.529h-.528v.529h-.53v.529h-.529v1.058h.53v2.117h-.53v.53h-.529v1.587h-.529v.529h-.53v.529h-2.116v1.058h-.529v.53h-.53v.529H50.8v.529h-.529v.529h-.53v.53z"
   id="path3">
        <animateTransform
   attributeName="transform"
   attributeType="XML"
   type="translate"
   calcMode="discrete"
   dur="2s"
   keySplines="0.25 0.1 0.25 1;0.25 0.1 0.25 1"
   keyTimes="0;0.5;1"
   values="0 0; 0.3 0; 0 0"
   repeatCount="indefinite" />
      </path>
      <path
   fill="#53ceb9"
   d="M62.971 35.454v-.529h.529v-.53h.529v-1.057h2.117v-.53h.529v-.529h.529v-1.058h1.588v-.53h.529v-.528h.529v-1.588h1.587v-.53h.53v-.528h.529v-.53h.529v-.529h.529v-.529h.53v-1.587h.528v-.53h.53v-2.116h-.53v-1.058h.53v-2.117h-.53v-.53h-25.4v.53h-.529v2.117h.53v.529h-.53v2.116h.53v.53h.529V25.4h.529v.53h.529v.528h1.587v.53h.53v2.645h.529v.53h.529v.529h1.587v1.058h.53v.53h.529v.528h.529v1.059h.529v.529h.53v.529h2.645v.53zm-37.571 0v-.529h.529v-.53h2.117v-.528h.529v-.53h.529v-.529h.53v-.529h.528v-.529h.53v-.53h2.116v-.528h.53v-.53h.529v-2.116h.529v-2.117h-.53V25.4h.53v-.53h2.116v-.528h.53v-.53h.529v-2.116h-.53v-.53h-.529v-.528h-.529v-1.059h-.529v-.529h-.53v-.53h-.528v-.528H8.994v2.116h.53v.53h.529v1.587h.53v.53h.528v.528h2.117v.53h.53v.529h.528v.529h.53v.529h.529v1.058h-.53v2.117h.53v.53h.529v1.587h.529v.529h.53v.529h2.116v1.058h.529v.53h.53v.529h2.116v.529h.529v.529h.53v.53z"
   id="path4">
        <animateTransform
   attributeName="transform"
   attributeType="XML"
   type="translate"
   calcMode="discrete"
   dur="3s"
   keySplines="0.25 0.1 0.25 1;0.25 0.1 0.25 1"
   keyTimes="0;0.5;1"
   values="0 0; -0.4 0; 0 0"
   repeatCount="indefinite" />
      </path>
    </pattern>
    
    

    
    
    
    
    

    
    

    
    
    
    
    
  <pattern
   id="clouds-water-0"
   patternUnits="userSpaceOnUse"
   width="63.5"
   height="33.337">
      <path
   fill="#53ceb9"
   d="M10.053 35.454v-.529h-.529v-.53h-.529v-1.057H6.878v-.53h-.529v-.529H5.82v-1.058H4.232v-.53h-.529v-.528h-.529v-1.588H1.587v-.53h-.53v-.528H.528v-.53h-.529v-.529H-.53v-.529h-.53v-1.587h-.528v-.53h-.53v-2.116h.53v-1.058h-.53v-2.117h.53v-.53h25.4v.53h.529v2.117h-.53v.529h.53v2.116h-.53v.53h-.529V25.4h-.529v.53h-.529v.528h-1.587v.53h-.53v2.645h-.529v.53h-.529v.529h-1.587v1.058h-.53v.53h-.529v.528h-.529v1.059h-.529v.529h-.53v.529H12.17v.53zm37.571 0v-.529h-.529v-.53h-2.117v-.528h-.529v-.53h-.529v-.529h-.53v-.529h-.528v-.529h-.53v-.53h-2.116v-.528h-.53v-.53h-.529v-2.116h-.529v-2.117h.53V25.4h-.53v-.53h-2.116v-.528h-.53v-.53h-.529v-2.116h.53v-.53h.529v-.528h.529v-1.059h.529v-.529h.53v-.53h.528v-.528H64.03v2.116h-.53v.53h-.529v1.587h-.53v.53h-.528v.528h-2.117v.53h-.53v.529h-.528v.529h-.53v.529h-.529v1.058h.53v2.117h-.53v.53h-.529v1.587h-.529v.529h-.53v.529h-2.116v1.058h-.529v.53h-.53v.529H50.8v.529h-.529v.529h-.53v.53z"
   id="path3-9">
        <animateTransform
   attributeName="transform"
   attributeType="XML"
   type="translate"
   calcMode="discrete"
   dur="2s"
   keySplines="0.25 0.1 0.25 1;0.25 0.1 0.25 1"
   keyTimes="0;0.5;1"
   values="0 0; 0.3 0; 0 0"
   repeatCount="indefinite" />
      </path>
      <path
   fill="#53ceb9"
   d="M62.971 35.454v-.529h.529v-.53h.529v-1.057h2.117v-.53h.529v-.529h.529v-1.058h1.588v-.53h.529v-.528h.529v-1.588h1.587v-.53h.53v-.528h.529v-.53h.529v-.529h.529v-.529h.53v-1.587h.528v-.53h.53v-2.116h-.53v-1.058h.53v-2.117h-.53v-.53h-25.4v.53h-.529v2.117h.53v.529h-.53v2.116h.53v.53h.529V25.4h.529v.53h.529v.528h1.587v.53h.53v2.645h.529v.53h.529v.529h1.587v1.058h.53v.53h.529v.528h.529v1.059h.529v.529h.53v.529h2.645v.53zm-37.571 0v-.529h.529v-.53h2.117v-.528h.529v-.53h.529v-.529h.53v-.529h.528v-.529h.53v-.53h2.116v-.528h.53v-.53h.529v-2.116h.529v-2.117h-.53V25.4h.53v-.53h2.116v-.528h.53v-.53h.529v-2.116h-.53v-.53h-.529v-.528h-.529v-1.059h-.529v-.529h-.53v-.53h-.528v-.528H8.994v2.116h.53v.53h.529v1.587h.53v.53h.528v.528h2.117v.53h.53v.529h.528v.529h.53v.529h.529v1.058h-.53v2.117h.53v.53h.529v1.587h.529v.529h.53v.529h2.116v1.058h.529v.53h.53v.529h2.116v.529h.529v.529h.53v.53z"
   id="path4-3">
        <animateTransform
   attributeName="transform"
   attributeType="XML"
   type="translate"
   calcMode="discrete"
   dur="3s"
   keySplines="0.25 0.1 0.25 1;0.25 0.1 0.25 1"
   keyTimes="0;0.5;1"
   values="0 0; -0.4 0; 0 0"
   repeatCount="indefinite" />
      </path>
    </pattern><pattern
   id="clouds-6"
   patternUnits="userSpaceOnUse"
   width="63.5"
   height="33.337">
      <path
   fill="#a0dfe7"
   d="M10.053 1.059v.529h-.529v.53h-.529v1.057H6.878v.53h-.529v.529H5.82v1.058H4.232v.53h-.529v.528h-.529v1.588H1.587v.53h-.53v.528H.528v.53h-.529v.529H-.53v.529h-.53v1.587h-.528v.53h-.53v2.116h.53v1.058h-.53v2.117h.53v.53h25.4v-.53h.529v-2.117h-.53v-.529h.53V13.23h-.53v-.53h-.529v-1.587h-.529v-.53h-.529v-.528h-1.587v-.53h-.53V6.88h-.529v-.53h-.529v-.529h-1.587V4.763h-.53v-.53h-.529v-.528h-.529V2.646h-.529v-.529h-.53v-.529H12.17v-.53zm37.571 0v.529h-.529v.53h-2.117v.528h-.529v.53h-.529v.529h-.53v.529h-.528v.529h-.53v.53h-2.116v.528h-.53v.53h-.529v2.116h-.529v2.117h.53v.529h-.53v.53h-2.116v.528h-.53v.53h-.529v2.116h.53v.53h.529v.528h.529v1.059h.529v.529h.53v.53h.528v.528H64.03v-2.116h-.53v-.53h-.529v-1.587h-.53v-.53h-.528v-.528h-2.117v-.53h-.53v-.529h-.528v-.529h-.53v-.529h-.529v-1.058h.53V7.938h-.53v-.53h-.529V5.821h-.529v-.529h-.53v-.529h-2.116V3.705h-.529v-.53h-.53v-.529H50.8v-.529h-.529v-.529h-.53v-.53z"
   id="path1-0">
        <animateTransform
   attributeName="transform"
   attributeType="XML"
   type="translate"
   calcMode="discrete"
   dur="2s"
   keySplines="0.25 0.1 0.25 1;0.25 0.1 0.25 1"
   keyTimes="0;0.5;1"
   values="0 0; 0.3 0; 0 0"
   repeatCount="indefinite" />
      </path>
      <path
   fill="#a0dfe7"
   d="M62.971 1.059v.529h.529v.53h.529v1.057h2.117v.53h.529v.529h.529v1.058h1.588v.53h.529v.528h.529v1.588h1.587v.53h.53v.528h.529v.53h.529v.529h.529v.529h.53v1.587h.528v.53h.53v2.116h-.53v1.058h.53v2.117h-.53v.53h-25.4v-.53h-.529v-2.117h.53v-.529h-.53V13.23h.53v-.53h.529v-1.587h.529v-.53h.529v-.528h1.587v-.53h.53V6.88h.529v-.53h.529v-.529h1.587V4.763h.53v-.53h.529v-.528h.529V2.646h.529v-.529h.53v-.529h2.645v-.53zm-37.571 0v.529h.529v.53h2.117v.528h.529v.53h.529v.529h.53v.529h.528v.529h.53v.53h2.116v.528h.53v.53h.529v2.116h.529v2.117h-.53v.529h.53v.53h2.116v.528h.53v.53h.529v2.116h-.53v.53h-.529v.528h-.529v1.059h-.529v.529h-.53v.53h-.528v.528H8.994v-2.116h.53v-.53h.529v-1.587h.53v-.53h.528v-.528h2.117v-.53h.53v-.529h.528v-.529h.53v-.529h.529v-1.058h-.53V7.938h.53v-.53h.529V5.821h.529v-.529h.53v-.529h2.116V3.705h.529v-.53h.53v-.529h2.116v-.529h.529v-.529h.53v-.53z"
   id="path2-6">
        <animateTransform
   attributeName="transform"
   attributeType="XML"
   type="translate"
   calcMode="discrete"
   dur="3s"
   keySplines="0.25 0.1 0.25 1;0.25 0.1 0.25 1"
   keyTimes="0;0.5;1"
   values="0 0; -0.4 0; 0 0"
   repeatCount="indefinite" />
      </path>
    </pattern></defs><g
     inkscape:label="Camada 1"
     inkscape:groupmode="layer"
     id="layer1"
     transform="translate(294.46667,160.91486)"><rect
       style="fill:#5b6299;fill-opacity:1;stroke:none;stroke-width:3.07164;stroke-linecap:round;stroke-linejoin:round;stroke-opacity:1"
       id="rect1"
       width="66.679855"
       height="148.43124"
       x="-294.47153"
       y="-160.91486" /><text
       xml:space="preserve"
       transform="matrix(0.26458332,0,0,0.26458332,-294.46667,-160.91486)"
       id="text5"
       style="font-weight:bold;font-size:13.3333px;font-family:Ubuntu;-inkscape-font-specification:'Ubuntu Bold';text-align:center;writing-mode:lr-tb;direction:ltr;white-space:pre;shape-inside:url(#rect5);display:inline;fill:#2f4d5d;fill-opacity:1;stroke:#899ba0;stroke-width:2;stroke-linecap:square;stroke-miterlimit:21.6" /></g><g
     inkscape:groupmode="layer"
     id="layer2"
     inkscape:label="Camada 2"><g
       id="g72"
       style="fill:#adbded;fill-opacity:1"
       transform="translate(-0.52917,5.291665)"><path
         id="path49"
         style="fill:#adbded;fill-opacity:1;stroke-width:4.303;stroke-linecap:square"
         d="m 0.3297302,120.91458 v 0.52916 h -0.52916 -0.52917 v 0.52917 h -0.52917 v 0.52917 h -0.52916 v 0.52916 h -0.52917 v 0.52917 h -0.52917 v 0.52917 0.52917 h -0.52916 v 3.175 h 0.52916 v 0.52916 0.52917 h 0.52917 v 0.52916 h 0.52917 v 0.52917 h 0.52916 v 0.52917 h 0.52917 v 0.52917 h 0.52917 0.52916 v 0.52916 h 3.175 v -0.52916 h 0.52917 0.52917 v -0.52917 h 0.52916 v -0.52917 h 0.52917 v -0.52917 h 0.52917 v -0.52916 h 0.52916 v -0.52917 -0.52917 h 0.52917 v -3.17499 h -0.52917 v -0.52917 -0.52917 h -0.52916 v -0.52917 h -0.52917 v -0.52916 h -0.52917 v -0.52917 h -0.52916 v -0.52917 h -0.52917 -0.52917 v -0.52916 z"
         sodipodi:nodetypes="ccccccccccccccccccccccccccccccccccccccccccccccccccccccccccccc" /><path
         id="path50"
         style="fill:#adbded;fill-opacity:1;stroke-width:4.303;stroke-linecap:square"
         d="m 0.3297302,99.747904 v 0.529156 h -0.52916 -0.52917 v 0.52917 h -0.52917 v 0.52917 h -0.52916 v 0.52916 h -0.52917 v 0.52917 h -0.52917 v 0.52917 0.52917 h -0.52916 v 3.175 h 0.52916 v 0.52916 0.52917 h 0.52917 v 0.52916 h 0.52917 v 0.52917 h 0.52916 v 0.52917 h 0.52917 v 0.52917 h 0.52917 0.52916 v 0.52916 h 3.175 v -0.52916 h 0.52917 0.52917 v -0.52917 h 0.52916 v -0.52917 h 0.52917 v -0.52917 h 0.52917 v -0.52916 h 0.52916 v -0.52917 -0.52917 h 0.52917 v -3.17499 h -0.52917 v -0.52917 -0.52917 h -0.52916 v -0.52917 h -0.52917 v -0.52916 h -0.52917 v -0.52917 h -0.52916 v -0.52917 h -0.52917 -0.52917 v -0.529156 z"
         sodipodi:nodetypes="ccccccccccccccccccccccccccccccccccccccccccccccccccccccccccccc" /><path
         id="path51"
         style="fill:#adbded;fill-opacity:1;stroke-width:4.303;stroke-linecap:square"
         d="m 0.3297302,110.33124 v 0.52916 h -0.52916 -0.52917 v 0.52917 h -0.52917 v 0.52917 h -0.52916 v 0.52916 h -0.52917 v 0.52917 h -0.52917 v 0.52917 0.52917 h -0.52916 v 3.175 h 0.52916 v 0.52916 0.52917 h 0.52917 v 0.52916 h 0.52917 v 0.52917 h 0.52916 v 0.52917 h 0.52917 v 0.52917 h 0.52917 0.52916 v 0.52916 h 3.175 v -0.52916 h 0.52917 0.52917 v -0.52917 h 0.52916 v -0.52917 h 0.52917 v -0.52917 h 0.52917 v -0.52916 h 0.52916 v -0.52917 -0.52917 h 0.52917 v -3.17499 h -0.52917 v -0.52917 -0.52917 h -0.52916 v -0.52917 h -0.52917 v -0.52916 h -0.52917 v -0.52917 h -0.52916 v -0.52917 h -0.52917 -0.52917 v -0.52916 z"
         sodipodi:nodetypes="ccccccccccccccccccccccccccccccccccccccccccccccccccccccccccccc" /><path
         id="path52"
         style="fill:#adbded;fill-opacity:1;stroke-width:4.303;stroke-linecap:square"
         d="m 0.3297302,105.03957 v 0.52916 h -0.52916 -0.52917 v 0.52917 h -0.52917 v 0.52917 h -0.52916 v 0.52916 h -0.52917 v 0.52917 h -0.52917 v 0.52917 0.52917 h -0.52916 v 3.175 h 0.52916 v 0.52916 0.52917 h 0.52917 v 0.52916 h 0.52917 v 0.52917 h 0.52916 v 0.52917 h 0.52917 v 0.52917 h 0.52917 0.52916 v 0.52916 h 3.175 v -0.52916 h 0.52917 0.52917 v -0.52917 h 0.52916 v -0.52917 h 0.52917 v -0.52917 h 0.52917 v -0.52916 h 0.52916 v -0.52917 -0.52917 h 0.52917 v -3.17499 h -0.52917 v -0.52917 -0.52917 h -0.52916 v -0.52917 h -0.52917 v -0.52916 h -0.52917 v -0.52917 h -0.52916 v -0.52917 h -0.52917 -0.52917 v -0.52916 z"
         sodipodi:nodetypes="ccccccccccccccccccccccccccccccccccccccccccccccccccccccccccccc" /><path
         id="path53"
         style="fill:#adbded;fill-opacity:1;stroke-width:4.303;stroke-linecap:square"
         d="m 0.3297302,115.62291 v 0.52916 h -0.52916 -0.52917 v 0.52917 h -0.52917 v 0.52917 h -0.52916 v 0.52916 h -0.52917 v 0.52917 h -0.52917 v 0.52917 0.52917 h -0.52916 v 3.175 h 0.52916 v 0.52916 0.52917 h 0.52917 v 0.52916 h 0.52917 v 0.52917 h 0.52916 v 0.52917 h 0.52917 v 0.52917 h 0.52917 0.52916 v 0.52916 h 3.175 v -0.52916 h 0.52917 0.52917 v -0.52917 h 0.52916 v -0.52917 h 0.52917 v -0.52917 h 0.52917 v -0.52916 h 0.52916 v -0.52917 -0.52917 h 0.52917 v -3.17499 h -0.52917 v -0.52917 -0.52917 h -0.52916 v -0.52917 h -0.52917 v -0.52916 h -0.52917 v -0.52917 h -0.52916 v -0.52917 h -0.52917 -0.52917 v -0.52916 z"
         sodipodi:nodetypes="ccccccccccccccccccccccccccccccccccccccccccccccccccccccccccccc" /><path
         id="path54"
         style="fill:#adbded;fill-opacity:1;stroke-width:4.303;stroke-linecap:square"
         d="m 6.1505631,105.03957 v 0.52916 h -0.52916 -0.5291698 v 0.52917 h -0.52917 v 0.52917 h -0.52916 v 0.52916 h -0.52917 v 0.52917 h -0.52917 v 0.52917 0.52917 h -0.52916 v 3.175 h 0.52916 v 0.52916 0.52917 h 0.52917 v 0.52916 h 0.52917 v 0.52917 h 0.52916 v 0.52917 h 0.52917 v 0.52917 h 0.5291698 0.52916 v 0.52916 h 3.175 v -0.52916 h 0.52917 0.5291699 v -0.52917 h 0.529161 v -0.52917 h 0.52917 v -0.52917 h 0.52917 v -0.52916 h 0.52916 v -0.52917 -0.52917 h 0.52917 v -3.17499 h -0.52917 v -0.52917 -0.52917 h -0.52916 v -0.52917 h -0.52917 v -0.52916 h -0.52917 v -0.52917 h -0.529161 v -0.52917 h -0.5291699 -0.52917 v -0.52916 z"
         sodipodi:nodetypes="ccccccccccccccccccccccccccccccccccccccccccccccccccccccccccccc" /><path
         id="path55"
         style="fill:#adbded;fill-opacity:1;stroke-width:4.303;stroke-linecap:square"
         d="m 14.088064,107.68541 v 0.52916 h -0.52916 -0.52917 v 0.52917 h -0.52917 v 0.52917 h -0.52916 v 0.52916 h -0.52917 v 0.52917 h -0.52917 v 0.52917 0.52917 h -0.52916 v 3.175 h 0.52916 v 0.52916 0.52917 h 0.52917 v 0.52916 h 0.52917 v 0.52917 h 0.52916 v 0.52917 h 0.52917 v 0.52917 h 0.52917 0.52916 v 0.52916 h 3.175 v -0.52916 h 0.52917 0.52917 v -0.52917 h 0.529161 v -0.52917 h 0.52917 v -0.52917 h 0.52917 v -0.52916 h 0.52916 v -0.52917 -0.52917 h 0.52917 v -3.17499 h -0.52917 v -0.52917 -0.52917 h -0.52916 v -0.52917 h -0.52917 v -0.52916 h -0.52917 v -0.52917 h -0.529161 v -0.52917 h -0.52917 -0.52917 v -0.52916 z"
         sodipodi:nodetypes="ccccccccccccccccccccccccccccccccccccccccccccccccccccccccccccc" /><path
         id="path56"
         style="fill:#adbded;fill-opacity:1;stroke-width:4.303;stroke-linecap:square"
         d="m 24.142242,108.7437 v 0.52916 h -0.52916 -0.52917 v 0.52917 h -0.52917 v 0.52917 h -0.52916 v 0.52916 h -0.52917 v 0.52917 h -0.52917 v 0.52917 0.52917 h -0.52916 v 3.175 h 0.52916 v 0.52916 0.52917 h 0.52917 v 0.52916 h 0.52917 v 0.52917 h 0.52916 v 0.52917 h 0.52917 v 0.52917 h 0.52917 0.52916 v 0.52916 h 3.175 v -0.52916 h 0.52917 0.52917 v -0.52917 h 0.529161 v -0.52917 h 0.52917 v -0.52917 h 0.52917 v -0.52916 h 0.52916 v -0.52917 -0.52917 h 0.52917 v -3.17499 h -0.52917 v -0.52917 -0.52917 h -0.52916 v -0.52917 h -0.52917 v -0.52916 h -0.52917 v -0.52917 h -0.529161 v -0.52917 h -0.52917 -0.52917 v -0.52916 z"
         sodipodi:nodetypes="ccccccccccccccccccccccccccccccccccccccccccccccccccccccccccccc" /><path
         id="path57"
         style="fill:#adbded;fill-opacity:1;stroke-width:4.303;stroke-linecap:square"
         d="m 29.433924,108.21452 v 0.52916 h -0.52916 -0.52917 v 0.52917 h -0.52917 v 0.52917 h -0.52916 v 0.52916 h -0.52917 v 0.52917 h -0.52917 v 0.52917 0.52917 h -0.52916 v 3.175 h 0.52916 v 0.52916 0.52917 h 0.52917 v 0.52916 h 0.52917 v 0.52917 h 0.52916 v 0.52917 h 0.52917 v 0.52917 h 0.52917 0.52916 v 0.52916 h 3.175 v -0.52916 h 0.52917 0.52917 v -0.52917 h 0.529161 v -0.52917 h 0.52917 v -0.52917 h 0.52917 v -0.52916 h 0.52916 v -0.52917 -0.52917 h 0.52917 v -3.17499 h -0.52917 v -0.52917 -0.52917 h -0.52916 v -0.52917 h -0.52917 v -0.52916 h -0.52917 v -0.52917 h -0.529161 v -0.52917 h -0.52917 -0.52917 v -0.52916 z"
         sodipodi:nodetypes="ccccccccccccccccccccccccccccccccccccccccccccccccccccccccccccc" /><path
         id="path58"
         style="fill:#adbded;fill-opacity:1;stroke-width:4.303;stroke-linecap:square"
         d="m 19.908902,107.68537 v 0.52916 h -0.52916 -0.52917 v 0.52917 h -0.52917 v 0.52917 h -0.52916 v 0.52916 h -0.52917 v 0.52917 h -0.52917 v 0.52917 0.52917 h -0.52916 v 3.175 h 0.52916 v 0.52916 0.52917 h 0.52917 v 0.52916 h 0.52917 v 0.52917 h 0.52916 v 0.52917 h 0.52917 v 0.52917 h 0.52917 0.52916 v 0.52916 h 3.175 v -0.52916 h 0.52917 0.52917 v -0.52917 h 0.529161 v -0.52917 h 0.52917 v -0.52917 h 0.52917 v -0.52916 h 0.52916 v -0.52917 -0.52917 h 0.52917 v -3.17499 h -0.52917 v -0.52917 -0.52917 h -0.52916 v -0.52917 h -0.52917 v -0.52916 h -0.52917 v -0.52917 h -0.529161 v -0.52917 h -0.52917 -0.52917 v -0.52916 z"
         sodipodi:nodetypes="ccccccccccccccccccccccccccccccccccccccccccccccccccccccccccccc" /><path
         id="path59"
         style="fill:#adbded;fill-opacity:1;stroke-width:4.303;stroke-linecap:square"
         d="m 36.842237,104.51038 v 0.52916 h -0.52916 -0.52917 v 0.52917 h -0.52917 v 0.52917 h -0.52916 v 0.52916 h -0.52917 v 0.52917 h -0.52917 v 0.52917 0.52917 h -0.52916 v 3.175 h 0.52916 v 0.52916 0.52917 h 0.52917 v 0.52916 h 0.52917 v 0.52917 h 0.52916 v 0.52917 h 0.52917 v 0.52917 h 0.52917 0.52916 v 0.52916 h 3.175 v -0.52916 h 0.52917 0.52917 v -0.52917 h 0.529161 v -0.52917 h 0.52917 v -0.52917 h 0.52917 v -0.52916 h 0.52916 v -0.52917 -0.52917 h 0.52917 v -3.17499 h -0.52917 v -0.52917 -0.52917 h -0.52916 v -0.52917 h -0.52917 v -0.52916 h -0.52917 v -0.52917 h -0.529161 v -0.52917 h -0.52917 -0.52917 v -0.52916 z"
         sodipodi:nodetypes="ccccccccccccccccccccccccccccccccccccccccccccccccccccccccccccc" /><path
         id="path60"
         style="fill:#adbded;fill-opacity:1;stroke-width:4.303;stroke-linecap:square"
         d="m 41.604734,102.39371 v 0.52916 h -0.52916 -0.52917 v 0.52917 h -0.52917 v 0.52917 h -0.52916 v 0.52916 h -0.52917 v 0.52917 h -0.52917 v 0.52917 0.52917 h -0.52916 v 3.175 h 0.52916 v 0.52916 0.52917 h 0.52917 v 0.52916 h 0.52917 v 0.52917 h 0.52916 v 0.52917 h 0.52917 v 0.52917 h 0.52917 0.52916 v 0.52916 h 3.175 v -0.52916 h 0.52917 0.52917 v -0.52917 h 0.529161 v -0.52917 h 0.52917 v -0.52917 h 0.52917 v -0.52916 h 0.52916 v -0.52917 -0.52917 h 0.52917 v -3.17499 h -0.52917 v -0.52917 -0.52917 h -0.52916 v -0.52917 h -0.52917 v -0.52916 h -0.52917 v -0.52917 h -0.529161 v -0.52917 h -0.52917 -0.52917 v -0.52916 z"
         sodipodi:nodetypes="ccccccccccccccccccccccccccccccccccccccccccccccccccccccccccccc" /><path
         id="path61"
         style="fill:#adbded;fill-opacity:1;stroke-width:4.303;stroke-linecap:square"
         d="m 49.013104,100.8062 v 0.52916 h -0.52916 -0.52917 v 0.52917 h -0.52917 v 0.52917 h -0.52916 v 0.52916 h -0.52917 v 0.52917 h -0.52917 v 0.52917 0.52917 h -0.52916 v 3.175 h 0.52916 v 0.52916 0.52917 h 0.52917 v 0.52916 h 0.52917 v 0.52917 h 0.52916 v 0.52917 h 0.52917 v 0.52917 h 0.52917 0.52916 v 0.52916 h 3.175 v -0.52916 h 0.52917 0.52917 v -0.52917 h 0.529161 v -0.52917 h 0.52917 v -0.52917 h 0.52917 v -0.52916 h 0.52916 v -0.52917 -0.52917 h 0.52917 v -3.17499 h -0.52917 v -0.52917 -0.52917 h -0.52916 v -0.52917 h -0.52917 v -0.52916 h -0.52917 v -0.52917 h -0.529161 v -0.52917 h -0.52917 -0.52917 v -0.52916 z"
         sodipodi:nodetypes="ccccccccccccccccccccccccccccccccccccccccccccccccccccccccccccc" /><path
         id="path62"
         style="fill:#adbded;fill-opacity:1;stroke-width:4.303;stroke-linecap:square"
         d="m 49.013096,95.514528 v 0.52916 h -0.52916 -0.52917 v 0.52917 h -0.52917 v 0.52917 h -0.52916 v 0.52916 h -0.52917 v 0.52917 h -0.52917 v 0.52917 0.52917 h -0.52916 v 3.175002 h 0.52916 v 0.52916 0.52917 h 0.52917 v 0.52916 h 0.52917 v 0.52917 h 0.52916 v 0.52917 h 0.52917 v 0.52917 h 0.52917 0.52916 v 0.52916 h 3.175 v -0.52916 h 0.52917 0.52917 v -0.52917 h 0.529161 v -0.52917 h 0.52917 v -0.52917 h 0.52917 v -0.52916 h 0.52916 v -0.52917 -0.52917 h 0.52917 v -3.174992 h -0.52917 v -0.52917 -0.52917 h -0.52916 v -0.52917 h -0.52917 v -0.52916 h -0.52917 v -0.52917 h -0.529161 v -0.52917 h -0.52917 -0.52917 v -0.52916 z"
         sodipodi:nodetypes="ccccccccccccccccccccccccccccccccccccccccccccccccccccccccccccc" /><path
         id="path63"
         style="fill:#adbded;fill-opacity:1;stroke-width:4.303;stroke-linecap:square"
         d="m 51.658923,90.752029 v 0.52916 h -0.52916 -0.52917 v 0.52917 h -0.52917 v 0.52917 h -0.52916 v 0.52916 h -0.52917 v 0.52917 h -0.52917 v 0.52917 0.52917 h -0.52916 v 3.175002 h 0.52916 v 0.52916 0.52917 h 0.52917 v 0.52916 h 0.52917 v 0.52917 h 0.52916 v 0.529169 h 0.52917 v 0.52917 h 0.52917 0.52916 v 0.52916 h 3.175 v -0.52916 h 0.52917 0.52917 v -0.52917 h 0.529161 v -0.529169 h 0.52917 v -0.52917 h 0.52917 v -0.52916 h 0.52916 v -0.52917 -0.52917 h 0.52917 v -3.174992 h -0.52917 v -0.52917 -0.52917 h -0.52916 v -0.52917 h -0.52917 v -0.52916 h -0.52917 v -0.52917 h -0.529161 v -0.52917 h -0.52917 -0.52917 v -0.52916 z"
         sodipodi:nodetypes="ccccccccccccccccccccccccccccccccccccccccccccccccccccccccccccc" /><path
         id="path64"
         style="fill:#adbded;fill-opacity:1;stroke-width:4.303;stroke-linecap:square"
         d="m 19.379742,114.56453 v 0.52916 h -0.52916 -0.52917 v 0.52917 h -0.52917 v 0.52917 h -0.52916 v 0.52916 h -0.52917 v 0.52917 h -0.52917 v 0.52917 0.52917 h -0.52916 v 3.175 h 0.52916 v 0.52916 0.52917 h 0.52917 v 0.52916 h 0.52917 v 0.52917 h 0.52916 v 0.52917 h 0.52917 v 0.52917 h 0.52917 0.52916 v 0.52916 h 3.175 v -0.52916 h 0.52917 0.52917 v -0.52917 h 0.529161 v -0.52917 h 0.52917 v -0.52917 h 0.52917 v -0.52916 h 0.52916 v -0.52917 -0.52917 h 0.52917 v -3.17499 h -0.52917 v -0.52917 -0.52917 h -0.52916 v -0.52917 h -0.52917 v -0.52916 h -0.52917 v -0.52917 h -0.529161 v -0.52917 h -0.52917 -0.52917 v -0.52916 z"
         sodipodi:nodetypes="ccccccccccccccccccccccccccccccccccccccccccccccccccccccccccccc" /><path
         id="path65"
         style="fill:#adbded;fill-opacity:1;stroke-width:4.303;stroke-linecap:square"
         d="m 10.3839,112.44791 v 0.52916 h -0.5291598 -0.52917 v 0.52917 h -0.52917 v 0.52917 h -0.52916 v 0.52916 h -0.52917 v 0.52917 h -0.52917 v 0.52917 0.52917 h -0.52916 v 3.175 h 0.52916 v 0.52916 0.52917 h 0.52917 v 0.52916 h 0.52917 v 0.52917 h 0.52916 v 0.52917 h 0.52917 v 0.52917 h 0.52917 0.5291598 v 0.52916 h 3.175 v -0.52916 h 0.52917 0.52917 v -0.52917 h 0.529161 v -0.52917 h 0.52917 v -0.52917 h 0.52917 v -0.52916 h 0.52916 v -0.52917 -0.52917 h 0.52917 v -3.17499 h -0.52917 v -0.52917 -0.52917 h -0.52916 v -0.52917 h -0.52917 v -0.52916 h -0.52917 v -0.52917 H 14.61724 v -0.52917 H 14.08807 13.5589 v -0.52916 z"
         sodipodi:nodetypes="ccccccccccccccccccccccccccccccccccccccccccccccccccccccccccccc" /><path
         id="path66"
         style="fill:#adbded;fill-opacity:1;stroke-width:4.303;stroke-linecap:square"
         d="m 6.15057,116.15208 v 0.52916 h -0.5291598 -0.52917 v 0.52917 h -0.52917 v 0.52917 h -0.52916 v 0.52916 h -0.52917 v 0.52917 h -0.52917 v 0.52917 0.52917 h -0.52916 v 3.175 h 0.52916 v 0.52916 0.52917 h 0.52917 v 0.52916 h 0.52917 v 0.52917 h 0.52916 v 0.52917 h 0.52917 v 0.52917 h 0.52917 0.5291598 v 0.52916 h 3.175 v -0.52916 h 0.52917 0.52917 v -0.52917 h 0.529161 v -0.52917 h 0.52917 v -0.52917 h 0.52917 v -0.52916 h 0.52916 v -0.52917 -0.52917 h 0.52917 v -3.17499 h -0.52917 v -0.52917 -0.52917 h -0.52916 v -0.52917 h -0.52917 v -0.52916 h -0.52917 v -0.52917 H 10.38391 v -0.52917 H 9.85474 9.32557 v -0.52916 z"
         sodipodi:nodetypes="ccccccccccccccccccccccccccccccccccccccccccccccccccccccccccccc" /><path
         id="path67"
         style="fill:#adbded;fill-opacity:1;stroke-width:4.303;stroke-linecap:square"
         d="m 16.733888,118.26872 v 0.52916 h -0.52916 -0.52917 v 0.52917 h -0.52917 v 0.52917 h -0.52916 v 0.52916 h -0.52917 v 0.52917 h -0.52917 v 0.52917 0.52917 h -0.52916 v 3.175 h 0.52916 v 0.52916 0.52917 h 0.52917 v 0.52916 h 0.52917 v 0.52917 h 0.52916 v 0.52917 h 0.52917 v 0.52917 h 0.52917 0.52916 v 0.52916 h 3.175 v -0.52916 h 0.52917 0.52917 v -0.52917 h 0.529161 v -0.52917 h 0.52917 v -0.52917 h 0.52917 v -0.52916 h 0.52916 v -0.52917 -0.52917 h 0.52917 v -3.17499 h -0.52917 v -0.52917 -0.52917 h -0.52916 v -0.52917 h -0.52917 v -0.52916 h -0.52917 v -0.52917 h -0.529161 v -0.52917 h -0.52917 -0.52917 v -0.52916 z"
         sodipodi:nodetypes="ccccccccccccccccccccccccccccccccccccccccccccccccccccccccccccc" /><path
         id="path68"
         style="fill:#adbded;fill-opacity:1;stroke-width:4.303;stroke-linecap:square"
         d="m 12.50056,120.91456 v 0.52916 H 11.9714 11.44223 v 0.52917 h -0.52917 v 0.52917 H 10.3839 v 0.52916 H 9.85473 v 0.52917 H 9.32556 v 0.52917 0.52917 H 8.7964 v 3.175 h 0.52916 v 0.52916 0.52917 h 0.52917 v 0.52916 h 0.52917 v 0.52917 h 0.52916 v 0.52917 h 0.52917 v 0.52917 h 0.52917 0.52916 v 0.52916 h 3.175 v -0.52916 h 0.52917 0.52917 v -0.52917 h 0.529161 v -0.52917 h 0.52917 v -0.52917 h 0.52917 v -0.52916 h 0.52916 v -0.52917 -0.52917 h 0.52917 v -3.17499 h -0.52917 v -0.52917 -0.52917 h -0.52916 v -0.52917 h -0.52917 v -0.52916 h -0.52917 v -0.52917 H 16.7339 v -0.52917 h -0.52917 -0.52917 v -0.52916 z"
         sodipodi:nodetypes="ccccccccccccccccccccccccccccccccccccccccccccccccccccccccccccc" /><path
         id="path69"
         style="fill:#adbded;fill-opacity:1;stroke-width:4.303;stroke-linecap:square"
         d="m 5.621389,124.61873 v 0.52916 h -0.52916 -0.52917 v 0.52917 h -0.52917 v 0.52917 h -0.52916 v 0.52916 h -0.52917 v 0.52917 h -0.52917 v 0.52917 0.52917 h -0.52916 v 3.175 h 0.52916 v 0.52916 0.52917 h 0.52917 v 0.52916 h 0.52917 v 0.52917 h 0.52916 v 0.52917 h 0.52917 v 0.52917 h 0.52917 0.52916 v 0.52916 h 3.175 v -0.52916 h 0.52917 0.52917 v -0.52917 h 0.529161 v -0.52917 h 0.52917 v -0.52917 h 0.52917 v -0.52916 h 0.52916 v -0.52917 -0.52917 h 0.52917 v -3.17499 h -0.52917 v -0.52917 -0.52917 h -0.52916 v -0.52917 h -0.52917 v -0.52916 h -0.52917 v -0.52917 H 9.854729 v -0.52917 h -0.52917 -0.52917 v -0.52916 z"
         sodipodi:nodetypes="ccccccccccccccccccccccccccccccccccccccccccccccccccccccccccccc" /><path
         id="path70"
         style="fill:#adbded;fill-opacity:1;stroke-width:4.303;stroke-linecap:square"
         d="m 11.442227,125.67705 v 0.52916 h -0.52916 -0.52917 v 0.52917 h -0.52917 v 0.52917 h -0.52916 v 0.52916 h -0.52917 v 0.52917 h -0.52917 v 0.52917 0.52917 h -0.52916 v 3.175 h 0.52916 v 0.52916 0.52917 h 0.52917 v 0.52916 h 0.52917 v 0.52917 h 0.52916 v 0.52917 h 0.52917 v 0.52917 h 0.52917 0.52916 v 0.52916 h 3.175 v -0.52916 h 0.52917 0.52917 v -0.52917 h 0.529161 v -0.52917 h 0.52917 v -0.52917 h 0.52917 v -0.52916 h 0.52916 v -0.52917 -0.52917 h 0.52917 v -3.17499 h -0.52917 v -0.52917 -0.52917 h -0.52916 v -0.52917 h -0.52917 v -0.52916 h -0.52917 v -0.52917 h -0.529161 v -0.52917 h -0.52917 -0.52917 v -0.52916 z"
         sodipodi:nodetypes="ccccccccccccccccccccccccccccccccccccccccccccccccccccccccccccc" /><path
         id="path71"
         style="fill:#adbded;fill-opacity:1;stroke-width:4.303;stroke-linecap:square"
         d="m 56.42143,89.164527 v 0.52916 H 55.89227 55.3631 v 0.52917 h -0.52917 v 0.52917 h -0.52916 v 0.52916 H 53.7756 v 0.52917 h -0.52917 v 0.52917 0.52917 h -0.52916 v 3.175002 h 0.52916 v 0.52916 0.52917 h 0.52917 v 0.52916 h 0.52917 v 0.52917 h 0.52916 v 0.529169 h 0.52917 v 0.52917 h 0.52917 0.52916 v 0.52916 h 3.175 v -0.52916 h 0.52917 0.52917 v -0.52917 h 0.529161 v -0.529169 h 0.52917 v -0.52917 h 0.52917 v -0.52916 h 0.52916 v -0.52917 -0.52917 h 0.52917 v -3.174992 h -0.52917 v -0.52917 -0.52917 h -0.52916 v -0.52917 h -0.52917 v -0.52916 h -0.52917 v -0.52917 H 60.65477 v -0.52917 H 60.1256 59.59643 v -0.52916 z"
         sodipodi:nodetypes="ccccccccccccccccccccccccccccccccccccccccccccccccccccccccccccc" /><path
         id="path72"
         style="fill:#adbded;fill-opacity:1;stroke-width:4.303;stroke-linecap:square"
         d="m 61.183941,85.460359 v 0.52916 h -0.52916 -0.52917 v 0.52917 h -0.52917 v 0.52917 h -0.52916 v 0.52916 h -0.52917 v 0.52917 h -0.52917 v 0.52917 0.52917 h -0.52916 v 3.175002 h 0.52916 v 0.52916 0.52917 h 0.52917 v 0.52916 h 0.52917 v 0.52917 h 0.52916 v 0.529169 h 0.52917 v 0.52917 h 0.52917 0.52916 v 0.52916 h 3.175 v -0.52916 h 0.52917 0.52917 v -0.52917 h 0.529161 v -0.529169 h 0.52917 v -0.52917 h 0.52917 v -0.52916 h 0.52916 v -0.52917 -0.52917 h 0.52917 v -3.174992 h -0.52917 v -0.52917 -0.52917 h -0.52916 v -0.52917 h -0.52917 v -0.52916 h -0.52917 v -0.52917 h -0.529161 v -0.52917 h -0.52917 -0.52917 v -0.52916 z"
         sodipodi:nodetypes="ccccccccccccccccccccccccccccccccccccccccccccccccccccccccccccc" /><path
         style="fill:#adbded;fill-opacity:1;stroke:none;stroke-width:0.529167;stroke-linecap:square;stroke-miterlimit:21.6"
         d="M -0.72859978,121.97291 45.308944,107.68537 66.475607,88.635386 l 3.657528,0.445368 0.0898,61.961416 -74.7128925,4.13076 z"
         id="path101" /><path
         id="path122"
         style="fill:#adbded;fill-opacity:1;stroke-width:4.303;stroke-linecap:square"
         d="m 65.417274,81.227024 v 0.52916 h -0.52916 -0.52917 v 0.52917 h -0.52917 v 0.52917 h -0.52916 v 0.52916 h -0.52917 v 0.52917 h -0.52917 v 0.52917 0.52917 h -0.52916 v 3.175002 h 0.52916 v 0.52916 0.52917 h 0.52917 v 0.52916 h 0.52917 v 0.52917 h 0.52916 v 0.529169 h 0.52917 v 0.52917 h 0.52917 0.52916 v 0.52916 h 3.175 v -0.52916 h 0.52917 0.52917 v -0.52917 h 0.529161 v -0.529169 h 0.52917 v -0.52917 h 0.52917 v -0.52916 h 0.52916 v -0.52917 -0.52917 h 0.52917 v -3.174992 h -0.52917 v -0.52917 -0.52917 h -0.52916 v -0.52917 h -0.52917 v -0.52916 h -0.52917 v -0.52917 h -0.529161 v -0.52917 h -0.52917 -0.52917 v -0.52916 z"
         sodipodi:nodetypes="ccccccccccccccccccccccccccccccccccccccccccccccccccccccccccccc" /><path
         id="path123"
         style="fill:#adbded;fill-opacity:1;stroke-width:4.303;stroke-linecap:square"
         d="m 66.475604,76.464533 v 0.52916 h -0.52916 -0.52917 v 0.52917 h -0.52917 v 0.52917 h -0.52916 v 0.52916 h -0.52917 v 0.52917 h -0.52917 v 0.52917 0.52917 h -0.52916 v 3.175002 h 0.52916 v 0.52916 0.52917 h 0.52917 v 0.52916 h 0.52917 v 0.52917 h 0.52916 v 0.529169 h 0.52917 v 0.52917 h 0.52917 0.52916 v 0.52916 h 3.175 v -0.52916 h 0.52917 0.52917 v -0.52917 h 0.529161 v -0.529169 h 0.52917 v -0.52917 h 0.52917 v -0.52916 h 0.52916 v -0.52917 -0.52917 h 0.52917 v -3.174992 h -0.52917 v -0.52917 -0.52917 h -0.52916 v -0.52917 h -0.52917 v -0.52916 h -0.52917 v -0.52917 h -0.529161 v -0.52917 h -0.52917 -0.52917 v -0.52916 z"
         sodipodi:nodetypes="ccccccccccccccccccccccccccccccccccccccccccccccccccccccccccccc" /></g><g
       id="g48"
       style="fill:#c3cded;fill-opacity:1"
       transform="translate(3.704173,14.287535)"><path
         id="path5"
         style="fill:#c3cded;fill-opacity:1;stroke-width:4.303;stroke-linecap:square"
         d="m 8.7963949,137.84791 v 0.52916 h -0.5291597 -0.52917 v 0.52917 h -0.52917 v 0.52917 h -0.52916 v 0.52916 h -0.52917 v 0.52917 h -0.52917 v 0.52917 0.52917 h -0.52916 v 3.175 h 0.52916 v 0.52916 0.52917 h 0.52917 v 0.52916 h 0.52917 v 0.52917 h 0.52916 v 0.52917 h 0.52917 v 0.52917 h 0.52917 0.5291597 v 0.52916 h 3.1750041 v -0.52916 h 0.52917 0.52917 v -0.52917 h 0.52916 v -0.52917 h 0.52917 v -0.52917 h 0.52917 v -0.52916 h 0.52916 v -0.52917 -0.52917 h 0.52917 v -3.17499 h -0.52917 v -0.52917 -0.52917 h -0.52916 v -0.52917 h -0.52917 v -0.52916 h -0.52917 v -0.52917 h -0.52916 v -0.52917 h -0.52917 -0.52917 v -0.52916 z"
         sodipodi:nodetypes="ccccccccccccccccccccccccccccccccccccccccccccccccccccccccccccc" /><path
         id="path9"
         style="fill:#c3cded;fill-opacity:1;stroke-width:4.303;stroke-linecap:square"
         d="m 15.146398,132.55621 v 0.52916 h -0.52916 -0.529171 v 0.52917 h -0.52917 v 0.52917 h -0.529161 v 0.52916 h -0.52917 v 0.52917 h -0.52917 v 0.52917 0.52917 h -0.529161 v 3.175 h 0.529161 v 0.52916 0.52917 h 0.52917 v 0.52916 h 0.52917 v 0.52917 h 0.529161 v 0.52917 h 0.52917 v 0.52917 h 0.529171 0.52916 v 0.52916 h 3.175005 v -0.52916 h 0.52917 0.52917 v -0.52917 h 0.52916 v -0.52917 h 0.52917 v -0.52917 h 0.52917 v -0.52916 h 0.52916 v -0.52917 -0.52917 h 0.52917 v -3.17499 h -0.52917 v -0.52917 -0.52917 h -0.52916 v -0.52917 h -0.52917 v -0.52916 h -0.52917 v -0.52917 h -0.52916 v -0.52917 h -0.52917 -0.52917 v -0.52916 z"
         sodipodi:nodetypes="ccccccccccccccccccccccccccccccccccccccccccccccccccccccccccccc" /><path
         id="path10"
         style="fill:#c3cded;fill-opacity:1;stroke-width:4.303;stroke-linecap:square"
         d="m 23.613065,127.79372 v 0.52916 h -0.52916 -0.529171 v 0.52917 h -0.52917 v 0.52917 h -0.529161 v 0.52916 h -0.52917 v 0.52917 h -0.52917 v 0.52917 0.52917 h -0.529161 v 3.175 h 0.529161 v 0.52916 0.52917 h 0.52917 v 0.52916 h 0.52917 v 0.52917 h 0.529161 v 0.52917 h 0.52917 v 0.52917 h 0.529171 0.52916 v 0.52916 h 3.175005 v -0.52916 h 0.52917 0.52917 v -0.52917 h 0.52916 v -0.52917 h 0.52917 v -0.52917 h 0.52917 v -0.52916 h 0.52916 v -0.52917 -0.52917 h 0.52917 v -3.17499 h -0.52917 v -0.52917 -0.52917 h -0.52916 v -0.52917 h -0.52917 v -0.52916 h -0.52917 v -0.52917 h -0.52916 v -0.52917 h -0.52917 -0.52917 v -0.52916 z"
         sodipodi:nodetypes="ccccccccccccccccccccccccccccccccccccccccccccccccccccccccccccc" /><path
         id="path11"
         style="fill:#c3cded;fill-opacity:1;stroke-width:4.303;stroke-linecap:square"
         d="m 31.0214,124.61871 v 0.52916 h -0.52916 -0.529171 v 0.52917 h -0.52917 v 0.52917 h -0.529161 v 0.52916 h -0.52917 v 0.52917 h -0.52917 v 0.52917 0.52917 h -0.529161 v 3.175 h 0.529161 v 0.52916 0.52917 h 0.52917 v 0.52916 h 0.52917 v 0.52917 h 0.529161 v 0.52917 h 0.52917 v 0.52917 h 0.529171 0.52916 v 0.52916 h 3.175005 v -0.52916 h 0.52917 0.52917 v -0.52917 h 0.52916 v -0.52917 h 0.52917 v -0.52917 h 0.52917 v -0.52916 h 0.52916 v -0.52917 -0.52917 h 0.52917 v -3.17499 h -0.52917 v -0.52917 -0.52917 h -0.52916 v -0.52917 h -0.52917 v -0.52916 h -0.52917 v -0.52917 h -0.52916 v -0.52917 h -0.52917 -0.52917 v -0.52916 z"
         sodipodi:nodetypes="ccccccccccccccccccccccccccccccccccccccccccccccccccccccccccccc" /><path
         id="path12"
         style="fill:#c3cded;fill-opacity:1;stroke-width:4.303;stroke-linecap:square"
         d="m 36.313075,116.6812 v 0.52916 h -0.52916 -0.529171 v 0.52917 h -0.52917 v 0.52917 h -0.529161 v 0.52916 h -0.52917 v 0.52917 h -0.52917 v 0.52917 0.52917 h -0.529161 v 3.175 h 0.529161 v 0.52916 0.52917 h 0.52917 v 0.52916 h 0.52917 v 0.52917 h 0.529161 v 0.52917 h 0.52917 v 0.52917 h 0.529171 0.52916 v 0.52916 h 3.175005 v -0.52916 h 0.52917 0.52917 v -0.52917 h 0.52916 v -0.52917 h 0.52917 v -0.52917 h 0.52917 v -0.52916 h 0.52916 v -0.52917 -0.52917 h 0.52917 v -3.17499 h -0.52917 v -0.52917 -0.52917 h -0.52916 v -0.52917 h -0.52917 v -0.52916 h -0.52917 v -0.52917 h -0.52916 v -0.52917 h -0.52917 -0.52917 v -0.52916 z"
         sodipodi:nodetypes="ccccccccccccccccccccccccccccccccccccccccccccccccccccccccccccc" /><path
         id="path13"
         style="fill:#c3cded;fill-opacity:1;stroke-width:4.303;stroke-linecap:square"
         d="m 45.308912,117.21037 v 0.52916 h -0.52916 -0.529171 v 0.52917 h -0.52917 v 0.52917 H 43.19225 v 0.52916 h -0.52917 v 0.52917 h -0.52917 v 0.52917 0.52917 h -0.529161 v 3.175 h 0.529161 v 0.52916 0.52917 h 0.52917 v 0.52916 h 0.52917 v 0.52917 h 0.529161 v 0.52917 h 0.52917 v 0.52917 h 0.529171 0.52916 v 0.52916 h 3.175005 v -0.52916 h 0.52917 0.52917 v -0.52917 h 0.52916 v -0.52917 h 0.52917 v -0.52917 h 0.52917 v -0.52916 h 0.52916 v -0.52917 -0.52917 h 0.52917 v -3.17499 h -0.52917 v -0.52917 -0.52917 h -0.52916 v -0.52917 h -0.52917 v -0.52916 h -0.52917 v -0.52917 h -0.52916 v -0.52917 h -0.52917 -0.52917 v -0.52916 z"
         sodipodi:nodetypes="ccccccccccccccccccccccccccccccccccccccccccccccccccccccccccccc" /><path
         id="path14"
         style="fill:#c3cded;fill-opacity:1;stroke-width:4.303;stroke-linecap:square"
         d="m 43.192252,110.86037 v 0.52916 h -0.52916 -0.529171 v 0.52917 h -0.52917 v 0.52917 H 41.07559 v 0.52916 h -0.52917 v 0.52917 h -0.52917 v 0.52917 0.52917 h -0.529161 v 3.175 h 0.529161 v 0.52916 0.52917 h 0.52917 v 0.52916 h 0.52917 v 0.52917 h 0.529161 v 0.52917 h 0.52917 v 0.52917 h 0.529171 0.52916 v 0.52916 h 3.175005 v -0.52916 h 0.52917 0.52917 v -0.52917 h 0.52916 v -0.52917 h 0.52917 v -0.52917 h 0.52917 v -0.52916 h 0.52916 v -0.52917 -0.52917 h 0.52917 v -3.17499 h -0.52917 v -0.52917 -0.52917 h -0.52916 v -0.52917 h -0.52917 v -0.52916 h -0.52917 v -0.52917 h -0.52916 v -0.52917 h -0.52917 -0.52917 v -0.52916 z"
         sodipodi:nodetypes="ccccccccccccccccccccccccccccccccccccccccccccccccccccccccccccc" /><path
         id="path15"
         style="fill:#c3cded;fill-opacity:1;stroke-width:4.303;stroke-linecap:square"
         d="m 31.550571,121.97289 v 0.52916 h -0.52916 -0.529171 v 0.52917 h -0.52917 v 0.52917 h -0.529161 v 0.52916 h -0.52917 v 0.52917 h -0.52917 v 0.52917 0.52917 h -0.529161 v 3.175 h 0.529161 v 0.52916 0.52917 h 0.52917 v 0.52916 h 0.52917 v 0.52917 h 0.529161 v 0.52917 h 0.52917 v 0.52917 h 0.529171 0.52916 v 0.52916 h 3.175005 v -0.52916 h 0.52917 0.52917 v -0.52917 h 0.52916 v -0.52917 h 0.52917 v -0.52917 h 0.52917 v -0.52916 h 0.52916 v -0.52917 -0.52917 h 0.52917 v -3.17499 h -0.52917 v -0.52917 -0.52917 h -0.52916 v -0.52917 h -0.52917 v -0.52916 h -0.52917 v -0.52917 h -0.52916 v -0.52917 h -0.52917 -0.52917 v -0.52916 z"
         sodipodi:nodetypes="ccccccccccccccccccccccccccccccccccccccccccccccccccccccccccccc" /><path
         id="path16"
         style="fill:#c3cded;fill-opacity:1;stroke-width:4.303;stroke-linecap:square"
         d="m 53.246418,111.38954 v 0.52916 h -0.52916 -0.529171 v 0.52917 h -0.52917 v 0.52917 h -0.529161 v 0.52916 h -0.52917 v 0.52917 h -0.52917 v 0.52917 0.52917 h -0.529161 v 3.175 h 0.529161 v 0.52916 0.52917 h 0.52917 v 0.52916 h 0.52917 v 0.52917 h 0.529161 v 0.52917 h 0.52917 v 0.52917 h 0.529171 0.52916 v 0.52916 h 3.175005 v -0.52916 h 0.52917 0.52917 v -0.52917 h 0.52916 v -0.52917 h 0.52917 v -0.52917 h 0.52917 v -0.52916 h 0.52916 v -0.52917 -0.52917 h 0.52917 v -3.17499 h -0.52917 v -0.52917 -0.52917 h -0.52916 v -0.52917 h -0.52917 v -0.52916 h -0.52917 v -0.52917 h -0.52916 v -0.52917 h -0.52917 -0.52917 v -0.52916 z"
         sodipodi:nodetypes="ccccccccccccccccccccccccccccccccccccccccccccccccccccccccccccc" /><path
         id="path17"
         style="fill:#c3cded;fill-opacity:1;stroke-width:4.303;stroke-linecap:square"
         d="m 50.071416,109.27287 v 0.52916 h -0.52916 -0.529171 v 0.52917 h -0.52917 v 0.52917 h -0.529161 v 0.52916 h -0.52917 v 0.52917 h -0.52917 v 0.52917 0.52917 h -0.529161 v 3.175 h 0.529161 v 0.52916 0.52917 h 0.52917 v 0.52916 h 0.52917 v 0.52917 h 0.529161 v 0.52917 h 0.52917 v 0.52917 h 0.529171 0.52916 v 0.52916 h 3.175005 v -0.52916 h 0.52917 0.52917 v -0.52917 h 0.52916 v -0.52917 h 0.52917 v -0.52917 h 0.52917 v -0.52916 h 0.52916 v -0.52917 -0.52917 h 0.52917 v -3.17499 h -0.52917 v -0.52917 -0.52917 h -0.52916 v -0.52917 h -0.52917 v -0.52916 h -0.52917 v -0.52917 h -0.52916 v -0.52917 h -0.52917 -0.52917 v -0.52916 z"
         sodipodi:nodetypes="ccccccccccccccccccccccccccccccccccccccccccccccccccccccccccccc" /><path
         id="path18"
         style="fill:#c3cded;fill-opacity:1;stroke-width:4.303;stroke-linecap:square"
         d="m 57.479763,110.86037 v 0.52916 h -0.52916 -0.529171 v 0.52917 h -0.52917 v 0.52917 h -0.529161 v 0.52916 h -0.52917 v 0.52917 h -0.52917 v 0.52917 0.52917 H 53.7756 v 3.175 h 0.529161 v 0.52916 0.52917 h 0.52917 v 0.52916 h 0.52917 v 0.52917 h 0.529161 v 0.52917 h 0.52917 v 0.52917 h 0.529171 0.52916 v 0.52916 h 3.175005 v -0.52916 h 0.52917 0.52917 v -0.52917 h 0.52916 v -0.52917 h 0.52917 v -0.52917 h 0.52917 v -0.52916 h 0.52916 v -0.52917 -0.52917 h 0.52917 v -3.17499 h -0.52917 v -0.52917 -0.52917 h -0.52916 v -0.52917 h -0.52917 v -0.52916 h -0.52917 v -0.52917 h -0.52916 v -0.52917 h -0.52917 -0.52917 v -0.52916 z"
         sodipodi:nodetypes="ccccccccccccccccccccccccccccccccccccccccccccccccccccccccccccc" /><path
         id="path19"
         style="fill:#c3cded;fill-opacity:1;stroke-width:4.303;stroke-linecap:square"
         d="m 63.829769,111.38954 v 0.52916 h -0.52916 -0.529171 v 0.52917 h -0.52917 v 0.52917 h -0.529161 v 0.52916 h -0.52917 v 0.52917 h -0.52917 v 0.52917 0.52917 h -0.529161 v 3.175 h 0.529161 v 0.52916 0.52917 h 0.52917 v 0.52916 h 0.52917 v 0.52917 h 0.529161 v 0.52917 h 0.52917 v 0.52917 h 0.529171 0.52916 v 0.52916 h 3.175005 v -0.52916 h 0.52917 0.52917 v -0.52917 h 0.52916 v -0.52917 h 0.52917 v -0.52917 h 0.52917 v -0.52916 h 0.52916 v -0.52917 -0.52917 h 0.52917 v -3.17499 h -0.52917 v -0.52917 -0.52917 h -0.52916 v -0.52917 h -0.52917 v -0.52916 h -0.52917 v -0.52917 h -0.52916 v -0.52917 h -0.52917 -0.52917 v -0.52916 z"
         sodipodi:nodetypes="ccccccccccccccccccccccccccccccccccccccccccccccccccccccccccccc" /><path
         id="path20"
         style="fill:#c3cded;fill-opacity:1;stroke-width:4.303;stroke-linecap:square"
         d="m 51.129757,118.79787 v 0.52916 h -0.52916 -0.529171 v 0.52917 h -0.52917 v 0.52917 h -0.529161 v 0.52916 h -0.52917 v 0.52917 h -0.52917 v 0.52917 0.52917 h -0.529161 v 3.175 h 0.529161 v 0.52916 0.52917 h 0.52917 v 0.52916 h 0.52917 v 0.52917 h 0.529161 v 0.52917 h 0.52917 v 0.52917 h 0.529171 0.52916 v 0.52916 h 3.175005 v -0.52916 h 0.52917 0.52917 v -0.52917 h 0.52916 v -0.52917 h 0.52917 v -0.52917 h 0.52917 v -0.52916 h 0.52916 v -0.52917 -0.52917 h 0.52917 v -3.17499 h -0.52917 v -0.52917 -0.52917 h -0.52916 v -0.52917 h -0.52917 v -0.52916 h -0.52917 v -0.52917 h -0.52916 v -0.52917 h -0.52917 -0.52917 v -0.52916 z"
         sodipodi:nodetypes="ccccccccccccccccccccccccccccccccccccccccccccccccccccccccccccc" /><path
         id="path21"
         style="fill:#c3cded;fill-opacity:1;stroke-width:4.303;stroke-linecap:square"
         d="m 28.90474,125.67705 v 0.52916 h -0.52916 -0.529171 v 0.52917 h -0.52917 v 0.52917 h -0.529161 v 0.52916 h -0.52917 v 0.52917 h -0.52917 v 0.52917 0.52917 h -0.529161 v 3.175 h 0.529161 v 0.52916 0.52917 h 0.52917 v 0.52916 h 0.52917 v 0.52917 h 0.529161 v 0.52917 h 0.52917 v 0.52917 h 0.529171 0.52916 v 0.52916 h 3.175005 v -0.52916 h 0.52917 0.52917 v -0.52917 h 0.52916 v -0.52917 h 0.52917 v -0.52917 h 0.52917 v -0.52916 h 0.52916 v -0.52917 -0.52917 h 0.52917 v -3.17499 h -0.52917 v -0.52917 -0.52917 h -0.52916 v -0.52917 h -0.52917 v -0.52916 h -0.52917 v -0.52917 h -0.52916 v -0.52917 h -0.52917 -0.52917 v -0.52916 z"
         sodipodi:nodetypes="ccccccccccccccccccccccccccccccccccccccccccccccccccccccccccccc" /><path
         id="path22"
         style="fill:#c3cded;fill-opacity:1;stroke-width:4.303;stroke-linecap:square"
         d="m 6.6797362,143.13958 v 0.52916 h -0.52916 -0.529171 v 0.52917 h -0.52917 v 0.52917 h -0.529161 v 0.52916 h -0.52917 v 0.52917 h -0.52917 v 0.52917 0.52917 h -0.529161 v 3.175 h 0.529161 v 0.52916 0.52917 h 0.52917 v 0.52916 h 0.52917 v 0.52917 h 0.529161 v 0.52917 h 0.52917 v 0.52917 h 0.529171 0.52916 v 0.52916 h 3.175005 v -0.52916 h 0.5291698 0.52917 v -0.52917 h 0.52916 v -0.52917 h 0.52917 v -0.52917 h 0.52917 v -0.52916 h 0.52916 v -0.52917 -0.52917 h 0.52917 v -3.17499 h -0.52917 v -0.52917 -0.52917 h -0.52916 v -0.52917 h -0.52917 v -0.52916 h -0.52917 v -0.52917 h -0.52916 v -0.52917 h -0.52917 -0.5291698 v -0.52916 z"
         sodipodi:nodetypes="ccccccccccccccccccccccccccccccccccccccccccccccccccccccccccccc" /><path
         id="path23"
         style="fill:#c3cded;fill-opacity:1;stroke-width:4.303;stroke-linecap:square"
         d="m 20.438073,130.9687 v 0.52916 h -0.52916 -0.529171 v 0.52917 h -0.52917 v 0.52917 h -0.529161 v 0.52916 h -0.52917 v 0.52917 h -0.52917 v 0.52917 0.52917 H 16.73391 v 3.175 h 0.529161 v 0.52916 0.52917 h 0.52917 v 0.52916 h 0.52917 v 0.52917 h 0.529161 v 0.52917 h 0.52917 v 0.52917 h 0.529171 0.52916 v 0.52916 h 3.175005 v -0.52916 h 0.52917 0.52917 v -0.52917 h 0.52916 v -0.52917 h 0.52917 v -0.52917 h 0.52917 v -0.52916 h 0.52916 v -0.52917 -0.52917 h 0.52917 v -3.17499 h -0.52917 v -0.52917 -0.52917 h -0.52916 v -0.52917 h -0.52917 v -0.52916 h -0.52917 v -0.52917 h -0.52916 v -0.52917 h -0.52917 -0.52917 v -0.52916 z"
         sodipodi:nodetypes="ccccccccccccccccccccccccccccccccccccccccccccccccccccccccccccc" /><path
         style="fill:#c3cded;fill-opacity:1;stroke:none;stroke-width:0.529167;stroke-linecap:square;stroke-miterlimit:21.6"
         d="m 4.5630741,151.60624 c 2.9986082,-4.23334 5.9972169,-8.46667 8.9958249,-12.7 10.230765,-6.87932 20.461121,-13.75836 30.691682,-20.63754 8.819631,-1.05835 17.638908,-2.11666 26.458361,-3.17499 0.178454,11.84109 0.3569,23.68171 0.53535,35.52256 v 0 z"
         id="path24" /><path
         id="path25"
         style="fill:#c3cded;fill-opacity:1;stroke-width:4.303;stroke-linecap:square"
         d="m 56.950596,105.5687 v 0.52916 h -0.52916 -0.529171 v 0.52917 h -0.52917 v 0.52917 h -0.529161 v 0.52916 h -0.52917 v 0.52917 h -0.52917 v 0.52917 0.52917 h -0.529161 v 3.175 h 0.529161 v 0.52916 0.52917 h 0.52917 v 0.52916 h 0.52917 v 0.52917 h 0.529161 v 0.52917 h 0.52917 v 0.52917 h 0.529171 0.52916 v 0.52916 h 3.175005 v -0.52916 h 0.52917 0.52917 v -0.52917 h 0.52916 v -0.52917 h 0.52917 v -0.52917 h 0.52917 v -0.52916 h 0.52916 v -0.52917 -0.52917 h 0.52917 v -3.17499 h -0.52917 v -0.52917 -0.52917 h -0.52916 v -0.52917 h -0.52917 v -0.52916 h -0.52917 v -0.52917 h -0.52916 v -0.52917 h -0.52917 -0.52917 v -0.52916 z"
         sodipodi:nodetypes="ccccccccccccccccccccccccccccccccccccccccccccccccccccccccccccc" /><path
         id="path26"
         style="fill:#c3cded;fill-opacity:1;stroke-width:4.303;stroke-linecap:square"
         d="m 62.242266,103.98119 v 0.52916 h -0.52916 -0.529171 v 0.52917 h -0.52917 v 0.52917 h -0.529161 v 0.52916 h -0.52917 v 0.52917 h -0.52917 v 0.52917 0.52917 h -0.529161 v 3.175 h 0.529161 v 0.52916 0.52917 h 0.52917 v 0.52916 h 0.52917 v 0.52917 h 0.529161 v 0.52917 h 0.52917 v 0.52917 h 0.529171 0.52916 v 0.52916 h 3.175005 v -0.52916 h 0.52917 0.52917 v -0.52917 h 0.52916 v -0.52917 h 0.52917 v -0.52917 h 0.52917 v -0.52916 h 0.52916 v -0.52917 -0.52917 h 0.52917 v -3.17499 h -0.52917 v -0.52917 -0.52917 h -0.52916 v -0.52917 h -0.52917 v -0.52916 h -0.52917 v -0.52917 h -0.52916 v -0.52917 h -0.52917 -0.52917 v -0.52916 z"
         sodipodi:nodetypes="ccccccccccccccccccccccccccccccccccccccccccccccccccccccccccccc" /><path
         id="path27"
         style="fill:#c3cded;fill-opacity:1;stroke-width:4.303;stroke-linecap:square"
         d="m 62.242266,93.397858 v 0.52916 h -0.52916 -0.529171 v 0.52917 h -0.52917 v 0.529166 h -0.529161 v 0.52916 h -0.52917 v 0.52917 h -0.52917 v 0.52917 0.52917 h -0.529161 v 3.174996 h 0.529161 v 0.52916 0.52917 h 0.52917 v 0.52916 h 0.52917 v 0.52917 h 0.529161 v 0.52917 h 0.52917 v 0.52917 h 0.529171 0.52916 v 0.52916 h 3.175005 v -0.52916 h 0.52917 0.52917 v -0.52917 h 0.52916 v -0.52917 h 0.52917 v -0.52917 h 0.52917 v -0.52916 h 0.52916 v -0.52917 -0.52917 h 0.52917 v -3.174986 h -0.52917 v -0.52917 -0.52917 h -0.52916 v -0.52917 h -0.52917 v -0.52916 h -0.52917 v -0.529166 h -0.52916 v -0.52917 h -0.52917 -0.52917 v -0.52916 z"
         sodipodi:nodetypes="ccccccccccccccccccccccccccccccccccccccccccccccccccccccccccccc" /><path
         id="path28"
         style="fill:#c3cded;fill-opacity:1;stroke-width:4.303;stroke-linecap:square"
         d="m 62.242266,98.689524 v 0.52916 h -0.52916 -0.529171 v 0.52917 h -0.52917 v 0.529166 h -0.529161 v 0.52916 h -0.52917 v 0.52917 h -0.52917 v 0.52917 0.52917 h -0.529161 v 3.175 h 0.529161 v 0.52916 0.52917 h 0.52917 v 0.52916 h 0.52917 v 0.52917 h 0.529161 v 0.52917 h 0.52917 v 0.52917 h 0.529171 0.52916 v 0.52916 h 3.175005 v -0.52916 h 0.52917 0.52917 v -0.52917 h 0.52916 v -0.52917 h 0.52917 v -0.52917 h 0.52917 v -0.52916 h 0.52916 v -0.52917 -0.52917 h 0.52917 v -3.17499 h -0.52917 v -0.52917 -0.52917 h -0.52916 v -0.52917 h -0.52917 v -0.52916 h -0.52917 v -0.529166 h -0.52916 v -0.52917 h -0.52917 -0.52917 v -0.52916 z"
         sodipodi:nodetypes="ccccccccccccccccccccccccccccccccccccccccccccccccccccccccccccc" /><path
         id="path29"
         style="fill:#c3cded;fill-opacity:1;stroke-width:4.303;stroke-linecap:square"
         d="m 62.242266,82.814526 v 0.52916 h -0.52916 -0.529171 v 0.52917 h -0.52917 v 0.529166 h -0.529161 v 0.52916 h -0.52917 v 0.52917 h -0.52917 v 0.52917 0.52917 h -0.529161 v 3.174996 h 0.529161 v 0.52916 0.52917 h 0.52917 v 0.52916 h 0.52917 v 0.52917 h 0.529161 v 0.52917 h 0.52917 v 0.52917 h 0.529171 0.52916 v 0.52916 h 3.175005 v -0.52916 h 0.52917 0.52917 v -0.52917 h 0.52916 v -0.52917 h 0.52917 v -0.52917 h 0.52917 v -0.52916 h 0.52916 v -0.52917 -0.52917 h 0.52917 v -3.174986 h -0.52917 v -0.52917 -0.52917 h -0.52916 v -0.52917 h -0.52917 v -0.52916 h -0.52917 v -0.529166 h -0.52916 v -0.52917 h -0.52917 -0.52917 v -0.52916 z"
         sodipodi:nodetypes="ccccccccccccccccccccccccccccccccccccccccccccccccccccccccccccc" /><path
         id="path30"
         style="fill:#c3cded;fill-opacity:1;stroke-width:4.303;stroke-linecap:square"
         d="m 62.242266,88.635359 v 0.52916 h -0.52916 -0.529171 v 0.52917 h -0.52917 v 0.529166 h -0.529161 v 0.52916 h -0.52917 v 0.52917 h -0.52917 v 0.52917 0.52917 h -0.529161 v 3.174996 h 0.529161 v 0.52916 0.52917 h 0.52917 v 0.52916 h 0.52917 v 0.52917 h 0.529161 v 0.52917 h 0.52917 v 0.52917 h 0.529171 0.52916 v 0.52916 h 3.175005 v -0.52916 h 0.52917 0.52917 v -0.52917 h 0.52916 v -0.52917 h 0.52917 v -0.52917 h 0.52917 v -0.52916 h 0.52916 v -0.52917 -0.52917 h 0.52917 v -3.174986 h -0.52917 v -0.52917 -0.52917 h -0.52916 v -0.52917 h -0.52917 v -0.52916 h -0.52917 v -0.529166 h -0.52916 v -0.52917 h -0.52917 -0.52917 v -0.52916 z"
         sodipodi:nodetypes="ccccccccccccccccccccccccccccccccccccccccccccccccccccccccccccc" /><path
         id="path31"
         style="fill:#c3cded;fill-opacity:1;stroke-width:4.303;stroke-linecap:square"
         d="m 62.242266,78.052027 v 0.52916 h -0.52916 -0.529171 v 0.52917 h -0.52917 v 0.529166 h -0.529161 v 0.52916 h -0.52917 v 0.52917 h -0.52917 v 0.52917 0.52917 h -0.529161 v 3.174996 h 0.529161 v 0.52916 0.52917 h 0.52917 v 0.52916 h 0.52917 v 0.52917 h 0.529161 v 0.52917 h 0.52917 v 0.52917 h 0.529171 0.52916 v 0.52916 h 3.175005 v -0.52916 h 0.52917 0.52917 v -0.52917 h 0.52916 v -0.52917 h 0.52917 v -0.52917 h 0.52917 v -0.52916 h 0.52916 v -0.52917 -0.52917 h 0.52917 v -3.174986 h -0.52917 v -0.52917 -0.52917 h -0.52916 v -0.52917 h -0.52917 v -0.52916 h -0.52917 v -0.529166 h -0.52916 v -0.52917 h -0.52917 -0.52917 v -0.52916 z"
         sodipodi:nodetypes="ccccccccccccccccccccccccccccccccccccccccccccccccccccccccccccc" /><path
         id="path32"
         style="fill:#c3cded;fill-opacity:1;stroke-width:4.303;stroke-linecap:square"
         d="m 55.363098,92.339522 v 0.52916 h -0.52916 -0.529171 v 0.52917 h -0.52917 v 0.529166 h -0.529161 v 0.52916 h -0.52917 v 0.52917 h -0.52917 v 0.52917 0.52917 h -0.529161 v 3.175002 h 0.529161 v 0.52916 0.52917 h 0.52917 v 0.52916 h 0.52917 v 0.52917 h 0.529161 v 0.52917 h 0.52917 v 0.52917 h 0.529171 0.52916 v 0.52916 h 3.175005 v -0.52916 h 0.52917 0.52917 v -0.52917 h 0.52916 v -0.52917 h 0.52917 v -0.52917 h 0.52917 v -0.52916 h 0.52916 v -0.52917 -0.52917 h 0.52917 v -3.174992 h -0.52917 v -0.52917 -0.52917 h -0.52916 v -0.52917 h -0.52917 v -0.52916 h -0.52917 v -0.529166 h -0.52916 v -0.52917 h -0.52917 -0.52917 v -0.52916 z"
         sodipodi:nodetypes="ccccccccccccccccccccccccccccccccccccccccccccccccccccccccccccc" /><path
         id="path33"
         style="fill:#c3cded;fill-opacity:1;stroke-width:4.303;stroke-linecap:square"
         d="m 54.304766,99.218702 v 0.52916 h -0.52916 -0.529171 v 0.529168 h -0.52917 v 0.52917 h -0.529161 v 0.52916 h -0.52917 v 0.52917 h -0.52917 v 0.52917 0.52917 h -0.529161 v 3.175 h 0.529161 v 0.52916 0.52917 h 0.52917 v 0.52916 h 0.52917 v 0.52917 h 0.529161 v 0.52917 h 0.52917 v 0.52917 h 0.529171 0.52916 v 0.52916 h 3.175005 v -0.52916 h 0.52917 0.52917 v -0.52917 h 0.52916 v -0.52917 h 0.52917 v -0.52917 h 0.52917 v -0.52916 h 0.52916 v -0.52917 -0.52917 h 0.52917 v -3.17499 h -0.52917 v -0.52917 -0.52917 h -0.52916 v -0.52917 h -0.52917 v -0.52916 h -0.52917 v -0.52917 h -0.52916 v -0.529168 h -0.52917 -0.52917 v -0.52916 z"
         sodipodi:nodetypes="ccccccccccccccccccccccccccccccccccccccccccccccccccccccccccccc" /><path
         id="path34"
         style="fill:#c3cded;fill-opacity:1;stroke-width:4.303;stroke-linecap:square"
         d="m 49.013076,103.98121 v 0.52916 h -0.52916 -0.529171 v 0.52917 h -0.52917 v 0.52917 h -0.529161 v 0.52916 h -0.52917 v 0.52917 h -0.52917 v 0.52917 0.52917 h -0.529161 v 3.175 h 0.529161 v 0.52916 0.52917 h 0.52917 v 0.52916 h 0.52917 v 0.52917 h 0.529161 v 0.52917 h 0.52917 v 0.52917 h 0.529171 0.52916 v 0.52916 h 3.175005 v -0.52916 h 0.52917 0.52917 v -0.52917 h 0.52916 v -0.52917 h 0.52917 v -0.52917 h 0.52917 v -0.52916 h 0.52916 v -0.52917 -0.52917 h 0.52917 v -3.17499 h -0.52917 v -0.52917 -0.52917 h -0.52916 v -0.52917 h -0.52917 v -0.52916 h -0.52917 v -0.52917 h -0.52916 v -0.52917 h -0.52917 -0.52917 v -0.52916 z"
         sodipodi:nodetypes="ccccccccccccccccccccccccccccccccccccccccccccccccccccccccccccc" /><path
         id="path35"
         style="fill:#c3cded;fill-opacity:1;stroke-width:4.303;stroke-linecap:square"
         d="m 60.125596,85.460359 v 0.52916 h -0.52916 -0.529171 v 0.52917 h -0.52917 v 0.52917 h -0.529161 v 0.52916 h -0.52917 v 0.52917 h -0.52917 v 0.52917 0.52917 h -0.529161 v 3.175 h 0.529161 v 0.52916 0.52917 h 0.52917 v 0.52916 h 0.52917 v 0.52917 h 0.529161 v 0.52917 h 0.52917 v 0.52917 h 0.529171 0.52916 v 0.52916 h 3.175005 v -0.52916 h 0.52917 0.52917 v -0.52917 h 0.52916 v -0.52917 h 0.52917 v -0.52917 h 0.52917 v -0.52916 h 0.52916 v -0.52917 -0.52917 h 0.52917 v -3.17499 h -0.52917 v -0.52917 -0.52917 h -0.52916 v -0.52917 h -0.52917 v -0.52916 h -0.52917 v -0.52917 h -0.52916 v -0.52917 h -0.52917 -0.52917 v -0.52916 z"
         sodipodi:nodetypes="ccccccccccccccccccccccccccccccccccccccccccccccccccccccccccccc" /><path
         id="path36"
         style="fill:#c3cded;fill-opacity:1;stroke-width:4.303;stroke-linecap:square"
         d="m 65.946436,71.702023 v 0.52916 h -0.52916 -0.529171 v 0.52917 h -0.52917 v 0.52917 h -0.529161 v 0.52916 h -0.52917 v 0.52917 h -0.52917 v 0.52917 0.52917 h -0.529161 v 3.175 h 0.529161 v 0.52916 0.52917 h 0.52917 v 0.52916 h 0.52917 v 0.52917 h 0.529161 v 0.52917 h 0.52917 v 0.52917 h 0.529171 0.52916 v 0.52916 h 3.175005 v -0.52916 h 0.52917 0.52917 v -0.52917 h 0.52916 v -0.52917 h 0.52917 v -0.52917 h 0.52917 v -0.52916 h 0.52916 v -0.52917 -0.52917 h 0.52917 v -3.17499 h -0.52917 v -0.52917 -0.52917 h -0.52916 v -0.52917 h -0.52917 v -0.52916 h -0.52917 v -0.52917 h -0.52916 v -0.52917 h -0.52917 -0.52917 v -0.52916 z"
         sodipodi:nodetypes="ccccccccccccccccccccccccccccccccccccccccccccccccccccccccccccc" /><path
         id="path37"
         style="fill:#c3cded;fill-opacity:1;stroke-width:4.303;stroke-linecap:square"
         d="m 1.9172202,139.96458 v 0.52916 h -0.52916 -0.529171 v 0.52917 h -0.52917 v 0.52917 h -0.529161 v 0.52916 h -0.52917 v 0.52917 h -0.52917 v 0.52917 0.52917 h -0.529161 v 3.175 h 0.529161 v 0.52916 0.52917 h 0.52917 v 0.52916 h 0.52917 v 0.52917 h 0.529161 v 0.52917 h 0.52917 v 0.52917 h 0.529171 0.52916 v 0.52916 h 3.175005 v -0.52916 h 0.52917 0.52917 v -0.52917 h 0.52916 v -0.52917 h 0.52917 v -0.52917 h 0.52917 v -0.52916 h 0.52916 v -0.52917 -0.52917 h 0.52917 v -3.17499 h -0.52917 v -0.52917 -0.52917 h -0.52916 v -0.52917 h -0.52917 v -0.52916 h -0.52917 v -0.52917 h -0.52916 v -0.52917 h -0.52917 -0.52917 v -0.52916 z"
         sodipodi:nodetypes="ccccccccccccccccccccccccccccccccccccccccccccccccccccccccccccc" /><path
         id="path38"
         style="fill:#c3cded;fill-opacity:1;stroke-width:4.303;stroke-linecap:square"
         d="m -0.7286098,134.67292 v 0.52916 h -0.52916 -0.529171 v 0.52917 h -0.52917 v 0.52917 h -0.529161 v 0.52916 h -0.52917 v 0.52917 h -0.52917 v 0.52917 0.52917 h -0.529161 v 3.175 h 0.529161 v 0.52916 0.52917 h 0.52917 v 0.52916 h 0.52917 v 0.52917 h 0.529161 v 0.52917 h 0.52917 v 0.52917 h 0.529171 0.52916 v 0.52916 h 3.175005 v -0.52916 h 0.52917 0.52917 v -0.52917 h 0.52916 v -0.52917 h 0.52917 v -0.52917 h 0.52917 v -0.52916 h 0.52916 v -0.52917 -0.52917 h 0.52917 v -3.17499 h -0.52917 v -0.52917 -0.52917 h -0.52916 v -0.52917 h -0.52917 v -0.52916 h -0.52917 v -0.52917 h -0.52916 v -0.52917 h -0.52917 -0.52917 v -0.52916 z"
         sodipodi:nodetypes="ccccccccccccccccccccccccccccccccccccccccccccccccccccccccccccc" /><path
         id="path39"
         style="fill:#c3cded;fill-opacity:1;stroke-width:4.303;stroke-linecap:square"
         d="m 7.208894,135.20207 v 0.52916 H 6.679734 6.150563 v 0.52917 h -0.52917 v 0.52917 H 5.092232 v 0.52916 h -0.52917 v 0.52917 h -0.52917 v 0.52917 0.52917 H 3.504731 v 3.175 h 0.529161 v 0.52916 0.52917 h 0.52917 v 0.52916 h 0.52917 v 0.52917 h 0.529161 v 0.52917 h 0.52917 v 0.52917 h 0.529171 0.52916 v 0.52916 h 3.175005 v -0.52916 h 0.52917 0.52917 v -0.52917 h 0.52916 v -0.52917 h 0.52917 v -0.52917 h 0.52917 v -0.52916 h 0.52916 v -0.52917 -0.52917 h 0.52917 v -3.17499 h -0.52917 v -0.52917 -0.52917 h -0.52916 v -0.52917 h -0.52917 v -0.52916 h -0.52917 v -0.52917 h -0.52916 v -0.52917 h -0.52917 -0.52917 v -0.52916 z"
         sodipodi:nodetypes="ccccccccccccccccccccccccccccccccccccccccccccccccccccccccccccc" /><path
         id="path40"
         style="fill:#c3cded;fill-opacity:1;stroke-width:4.303;stroke-linecap:square"
         d="m -2.8452698,127.79375 v 0.52916 h -0.52916 -0.529171 v 0.52917 h -0.52917 v 0.52917 h -0.529161 v 0.52916 h -0.52917 v 0.52917 h -0.52917 v 0.52917 0.52917 h -0.529161 v 3.175 h 0.529161 v 0.52916 0.52917 h 0.52917 v 0.52916 h 0.52917 v 0.52917 h 0.529161 v 0.52917 h 0.52917 v 0.52917 h 0.529171 0.52916 v 0.52916 h 3.175005 v -0.52916 h 0.52917 0.52917 v -0.52917 h 0.52916 v -0.52917 h 0.52917 v -0.52917 h 0.52917 v -0.52916 h 0.52916 v -0.52917 -0.52917 h 0.52917 v -3.17499 h -0.52917 v -0.52917 -0.52917 h -0.52916 v -0.52917 h -0.52917 v -0.52916 h -0.52917 v -0.52917 h -0.52916 v -0.52917 h -0.52917 -0.52917 v -0.52916 z"
         sodipodi:nodetypes="ccccccccccccccccccccccccccccccccccccccccccccccccccccccccccccc" /><path
         id="path41"
         style="fill:#c3cded;fill-opacity:1;stroke-width:4.303;stroke-linecap:square"
         d="m 4.033894,131.4979 v 0.52916 H 3.504734 2.975563 v 0.52917 h -0.52917 v 0.52917 H 1.917232 v 0.52916 h -0.52917 v 0.52917 h -0.52917 v 0.52917 0.52917 H 0.329731 v 3.175 h 0.529161 v 0.52916 0.52917 h 0.52917 v 0.52916 h 0.52917 v 0.52917 h 0.529161 v 0.52917 h 0.52917 v 0.52917 h 0.529171 0.52916 v 0.52916 h 3.175005 v -0.52916 h 0.52917 0.52917 v -0.52917 h 0.52916 v -0.52917 h 0.52917 v -0.52917 h 0.52917 v -0.52916 h 0.52916 v -0.52917 -0.52917 h 0.52917 v -3.17499 h -0.52917 v -0.52917 -0.52917 h -0.52916 v -0.52917 h -0.52917 v -0.52916 h -0.52917 v -0.52917 h -0.52916 v -0.52917 h -0.52917 -0.52917 v -0.52916 z"
         sodipodi:nodetypes="ccccccccccccccccccccccccccccccccccccccccccccccccccccccccccccc" /><path
         id="path42"
         style="fill:#c3cded;fill-opacity:1;stroke-width:4.303;stroke-linecap:square"
         d="m 10.383893,130.96871 v 0.52916 H 9.854733 9.325562 v 0.52917 h -0.52917 v 0.52917 H 8.267231 v 0.52916 h -0.52917 v 0.52917 h -0.52917 v 0.52917 0.52917 H 6.67973 v 3.175 h 0.529161 v 0.52916 0.52917 h 0.52917 v 0.52916 h 0.52917 v 0.52917 h 0.529161 v 0.52917 h 0.52917 v 0.52917 h 0.529171 0.52916 v 0.52916 h 3.175005 v -0.52916 h 0.52917 0.52917 v -0.52917 h 0.52916 v -0.52917 h 0.52917 v -0.52917 h 0.52917 v -0.52916 h 0.52916 v -0.52917 -0.52917 h 0.52917 v -3.17499 h -0.52917 v -0.52917 -0.52917 h -0.52916 v -0.52917 h -0.52917 v -0.52916 h -0.52917 v -0.52917 h -0.52916 v -0.52917 h -0.52917 -0.52917 v -0.52916 z"
         sodipodi:nodetypes="ccccccccccccccccccccccccccccccccccccccccccccccccccccccccccccc" /><path
         id="path43"
         style="fill:#c3cded;fill-opacity:1;stroke-width:4.303;stroke-linecap:square"
         d="m 36.313085,111.38953 v 0.52916 h -0.52916 -0.529171 v 0.52917 h -0.52917 v 0.52917 h -0.529161 v 0.52916 h -0.52917 v 0.52917 h -0.52917 v 0.52917 0.52917 h -0.529161 v 3.175 h 0.529161 v 0.52916 0.52917 h 0.52917 v 0.52916 h 0.52917 v 0.52917 h 0.529161 v 0.52917 h 0.52917 v 0.52917 h 0.529171 0.52916 v 0.52916 h 3.175005 v -0.52916 h 0.52917 0.52917 v -0.52917 h 0.52916 v -0.52917 h 0.52917 v -0.52917 h 0.52917 v -0.52916 h 0.52916 v -0.52917 -0.52917 h 0.52917 v -3.17499 h -0.52917 v -0.52917 -0.52917 h -0.52916 v -0.52917 h -0.52917 v -0.52916 h -0.52917 v -0.52917 h -0.52916 v -0.52917 h -0.52917 -0.52917 v -0.52916 z"
         sodipodi:nodetypes="ccccccccccccccccccccccccccccccccccccccccccccccccccccccccccccc" /><path
         id="path44"
         style="fill:#c3cded;fill-opacity:1;stroke-width:4.303;stroke-linecap:square"
         d="m 27.846408,115.62286 v 0.52916 h -0.52916 -0.529171 v 0.52917 h -0.52917 v 0.52917 h -0.529161 v 0.52916 h -0.52917 v 0.52917 h -0.52917 v 0.52917 0.52917 h -0.529161 v 3.175 h 0.529161 v 0.52916 0.52917 h 0.52917 v 0.52916 h 0.52917 v 0.52917 h 0.529161 v 0.52917 h 0.52917 v 0.52917 h 0.529171 0.52916 v 0.52916 h 3.175005 v -0.52916 h 0.52917 0.52917 v -0.52917 h 0.52916 v -0.52917 h 0.52917 v -0.52917 h 0.52917 v -0.52916 h 0.52916 v -0.52917 -0.52917 h 0.52917 v -3.17499 h -0.52917 v -0.52917 -0.52917 h -0.52916 v -0.52917 h -0.52917 v -0.52916 h -0.52917 v -0.52917 h -0.52916 v -0.52917 h -0.52917 -0.52917 v -0.52916 z"
         sodipodi:nodetypes="ccccccccccccccccccccccccccccccccccccccccccccccccccccccccccccc" /><path
         id="path45"
         style="fill:#c3cded;fill-opacity:1;stroke-width:4.303;stroke-linecap:square"
         d="m 27.31724,118.79788 v 0.52916 h -0.52916 -0.529171 v 0.52917 h -0.52917 v 0.52917 h -0.529161 v 0.52916 h -0.52917 v 0.52917 h -0.52917 v 0.52917 0.52917 h -0.529161 v 3.175 h 0.529161 v 0.52916 0.52917 h 0.52917 v 0.52916 h 0.52917 v 0.52917 h 0.529161 v 0.52917 h 0.52917 v 0.52917 h 0.529171 0.52916 v 0.52916 h 3.175005 v -0.52916 h 0.52917 0.52917 v -0.52917 h 0.52916 v -0.52917 h 0.52917 v -0.52917 h 0.52917 v -0.52916 h 0.52916 v -0.52917 -0.52917 h 0.52917 v -3.17499 h -0.52917 v -0.52917 -0.52917 h -0.52916 v -0.52917 h -0.52917 v -0.52916 h -0.52917 v -0.52917 h -0.52916 v -0.52917 h -0.52917 -0.52917 v -0.52916 z"
         sodipodi:nodetypes="ccccccccccccccccccccccccccccccccccccccccccccccccccccccccccccc" /><path
         id="path46"
         style="fill:#c3cded;fill-opacity:1;stroke-width:4.303;stroke-linecap:square"
         d="m 22.025564,121.97289 v 0.52916 h -0.52916 -0.529171 v 0.52917 h -0.52917 v 0.52917 h -0.529161 v 0.52916 h -0.52917 v 0.52917 h -0.52917 v 0.52917 0.52917 h -0.529161 v 3.175 h 0.529161 v 0.52916 0.52917 h 0.52917 v 0.52916 h 0.52917 v 0.52917 h 0.529161 v 0.52917 h 0.52917 v 0.52917 h 0.529171 0.52916 v 0.52916 h 3.175005 v -0.52916 h 0.52917 0.52917 v -0.52917 h 0.52916 v -0.52917 h 0.52917 v -0.52917 h 0.52917 v -0.52916 h 0.52916 v -0.52917 -0.52917 h 0.52917 v -3.17499 h -0.52917 v -0.52917 -0.52917 h -0.52916 v -0.52917 h -0.52917 v -0.52916 h -0.52917 v -0.52917 h -0.52916 v -0.52917 h -0.52917 -0.52917 v -0.52916 z"
         sodipodi:nodetypes="ccccccccccccccccccccccccccccccccccccccccccccccccccccccccccccc" /><path
         id="path47"
         style="fill:#c3cded;fill-opacity:1;stroke-width:4.303;stroke-linecap:square"
         d="m 15.675559,125.67705 v 0.52916 h -0.52916 -0.529171 v 0.52917 h -0.52917 v 0.52917 h -0.529161 v 0.52916 h -0.52917 v 0.52917 h -0.52917 v 0.52917 0.52917 h -0.529161 v 3.175 h 0.529161 v 0.52916 0.52917 h 0.52917 v 0.52916 h 0.52917 v 0.52917 h 0.529161 v 0.52917 h 0.52917 v 0.52917 h 0.529171 0.52916 v 0.52916 h 3.175005 v -0.52916 h 0.52917 0.52917 v -0.52917 h 0.52916 v -0.52917 h 0.52917 v -0.52917 h 0.52917 v -0.52916 h 0.52916 v -0.52917 -0.52917 h 0.52917 v -3.17499 h -0.52917 v -0.52917 -0.52917 h -0.52916 v -0.52917 h -0.52917 v -0.52916 h -0.52917 v -0.52917 h -0.52916 v -0.52917 h -0.52917 -0.52917 v -0.52916 z"
         sodipodi:nodetypes="ccccccccccccccccccccccccccccccccccccccccccccccccccccccccccccc" /><path
         id="path48"
         style="fill:#c3cded;fill-opacity:1;stroke-width:4.303;stroke-linecap:square"
         d="m 43.721409,105.56871 v 0.52916 h -0.52916 -0.529171 v 0.52917 h -0.52917 v 0.52917 h -0.529161 v 0.52916 h -0.52917 v 0.52917 h -0.52917 v 0.52917 0.52917 h -0.529161 v 3.175 h 0.529161 v 0.52916 0.52917 h 0.52917 v 0.52916 h 0.52917 v 0.52917 h 0.529161 v 0.52917 h 0.52917 v 0.52917 h 0.529171 0.52916 v 0.52916 h 3.175005 v -0.52916 h 0.52917 0.52917 v -0.52917 h 0.52916 v -0.52917 h 0.52917 v -0.52917 h 0.52917 v -0.52916 h 0.52916 v -0.52917 -0.52917 h 0.52917 v -3.17499 h -0.52917 v -0.52917 -0.52917 h -0.52916 v -0.52917 h -0.52917 v -0.52916 h -0.52917 v -0.52917 h -0.52916 v -0.52917 h -0.52917 -0.52917 v -0.52916 z"
         sodipodi:nodetypes="ccccccccccccccccccccccccccccccccccccccccccccccccccccccccccccc" /><path
         id="path102"
         style="fill:#c3cded;fill-opacity:1;stroke-width:4.303;stroke-linecap:square"
         d="m 10.913071,125.14789 v 0.52916 H 10.383911 9.85474 v 0.52917 H 9.32557 v 0.52917 H 8.796409 v 0.52916 h -0.52917 v 0.52917 h -0.52917 v 0.52917 0.52917 H 7.208908 v 3.175 h 0.529161 v 0.52916 0.52917 h 0.52917 v 0.52916 h 0.52917 v 0.52917 H 9.32557 v 0.52917 h 0.52917 v 0.52917 h 0.529171 0.52916 v 0.52916 h 3.175005 v -0.52916 h 0.52917 0.52917 v -0.52917 h 0.52916 v -0.52917 h 0.52917 v -0.52917 h 0.52917 v -0.52916 h 0.52916 v -0.52917 -0.52917 h 0.52917 v -3.17499 h -0.52917 v -0.52917 -0.52917 h -0.52916 v -0.52917 h -0.52917 v -0.52916 h -0.52917 v -0.52917 h -0.52916 v -0.52917 h -0.52917 -0.52917 v -0.52916 z"
         sodipodi:nodetypes="ccccccccccccccccccccccccccccccccccccccccccccccccccccccccccccc" /><path
         id="path103"
         style="fill:#c3cded;fill-opacity:1;stroke-width:4.303;stroke-linecap:square"
         d="m 5.0922372,126.73542 v 0.52916 h -0.52916 -0.529171 v 0.52917 h -0.52917 v 0.52917 h -0.529161 v 0.52916 h -0.52917 v 0.52917 h -0.52917 v 0.52917 0.52917 h -0.529161 v 3.175 h 0.529161 v 0.52916 0.52917 h 0.52917 v 0.52916 h 0.52917 v 0.52917 h 0.529161 v 0.52917 h 0.52917 v 0.52917 h 0.529171 0.52916 v 0.52916 h 3.175005 v -0.52916 h 0.52917 0.52917 v -0.52917 h 0.52916 v -0.52917 h 0.5291698 v -0.52917 h 0.52917 v -0.52916 h 0.52916 v -0.52917 -0.52917 h 0.52917 v -3.17499 h -0.52917 v -0.52917 -0.52917 h -0.52916 v -0.52917 h -0.52917 v -0.52916 H 9.8547422 v -0.52917 h -0.52916 v -0.52917 h -0.52917 -0.52917 v -0.52916 z"
         sodipodi:nodetypes="ccccccccccccccccccccccccccccccccccccccccccccccccccccccccccccc" /><path
         id="path104"
         style="fill:#c3cded;fill-opacity:1;stroke-width:4.303;stroke-linecap:square"
         d="m -2.3160998,123.03124 v 0.52916 h -0.52916 -0.529171 v 0.52917 h -0.52917 v 0.52917 h -0.529161 v 0.52916 h -0.52917 v 0.52917 h -0.52917 v 0.52917 0.52917 h -0.529161 v 3.175 h 0.529161 v 0.52916 0.52917 h 0.52917 v 0.52916 h 0.52917 v 0.52917 h 0.529161 v 0.52917 h 0.52917 v 0.52917 h 0.529171 0.52916 v 0.52916 h 3.175005 v -0.52916 h 0.52917 0.52917 v -0.52917 h 0.52916 v -0.52917 H 2.975575 v -0.52917 h 0.52917 v -0.52916 h 0.52916 v -0.52917 -0.52917 h 0.52917 v -3.17499 h -0.52917 v -0.52917 -0.52917 h -0.52916 v -0.52917 h -0.52917 v -0.52916 H 2.4464052 v -0.52917 h -0.52916 v -0.52917 h -0.52917 -0.52917 v -0.52916 z"
         sodipodi:nodetypes="ccccccccccccccccccccccccccccccccccccccccccccccccccccccccccccc" /><path
         id="path105"
         style="fill:#c3cded;fill-opacity:1;stroke-width:4.303;stroke-linecap:square"
         d="m 1.9172374,123.03125 v 0.52916 h -0.52916 -0.529171 v 0.52917 h -0.52917 v 0.52917 h -0.529161 v 0.52916 h -0.52917 v 0.52917 h -0.52917 v 0.52917 0.52917 h -0.529161 v 3.175 h 0.529161 v 0.52916 0.52917 h 0.52917 v 0.52916 h 0.52917 v 0.52917 h 0.529161 v 0.52917 h 0.52917 v 0.52917 h 0.529171 0.52916 v 0.52916 h 3.175005 v -0.52916 h 0.52917 0.52917 v -0.52917 h 0.52916 v -0.52917 h 0.5291698 v -0.52917 h 0.52917 v -0.52916 h 0.52916 v -0.52917 -0.52917 h 0.52917 v -3.17499 h -0.52917 v -0.52917 -0.52917 h -0.52916 v -0.52917 h -0.52917 v -0.52916 H 6.6797424 v -0.52917 h -0.52916 v -0.52917 h -0.52917 -0.52917 v -0.52916 z"
         sodipodi:nodetypes="ccccccccccccccccccccccccccccccccccccccccccccccccccccccccccccc" /><path
         id="path106"
         style="fill:#c3cded;fill-opacity:1;stroke-width:4.303;stroke-linecap:square"
         d="m 7.7380532,123.03121 v 0.52916 h -0.52916 -0.529171 v 0.52917 h -0.52917 v 0.52917 h -0.529161 v 0.52916 h -0.52917 v 0.52917 h -0.52917 v 0.52917 0.52917 h -0.529161 v 3.175 h 0.529161 v 0.52916 0.52917 h 0.52917 v 0.52916 h 0.52917 v 0.52917 h 0.529161 v 0.52917 h 0.52917 v 0.52917 h 0.529171 0.52916 v 0.52916 h 3.1750048 v -0.52916 h 0.52917 0.52917 v -0.52917 h 0.52916 v -0.52917 h 0.52917 v -0.52917 h 0.52917 v -0.52916 h 0.52916 v -0.52917 -0.52917 h 0.52917 v -3.17499 h -0.52917 v -0.52917 -0.52917 h -0.52916 v -0.52917 h -0.52917 v -0.52916 h -0.52917 v -0.52917 h -0.52916 v -0.52917 h -0.52917 -0.52917 v -0.52916 z"
         sodipodi:nodetypes="ccccccccccccccccccccccccccccccccccccccccccccccccccccccccccccc" /><path
         id="path107"
         style="fill:#c3cded;fill-opacity:1;stroke-width:4.303;stroke-linecap:square"
         d="m 13.558887,121.97289 v 0.52916 h -0.52916 -0.529171 v 0.52917 h -0.52917 v 0.52917 h -0.529161 v 0.52916 h -0.52917 v 0.52917 h -0.52917 v 0.52917 0.52917 H 9.8547242 v 3.175 h 0.5291608 v 0.52916 0.52917 h 0.52917 v 0.52916 h 0.52917 v 0.52917 h 0.529161 v 0.52917 h 0.52917 v 0.52917 h 0.529171 0.52916 v 0.52916 h 3.175005 v -0.52916 h 0.52917 0.52917 v -0.52917 h 0.52916 v -0.52917 h 0.52917 v -0.52917 h 0.52917 v -0.52916 h 0.52916 v -0.52917 -0.52917 h 0.52917 v -3.17499 h -0.52917 v -0.52917 -0.52917 h -0.52916 v -0.52917 h -0.52917 v -0.52916 h -0.52917 v -0.52917 h -0.52916 v -0.52917 h -0.52917 -0.52917 v -0.52916 z"
         sodipodi:nodetypes="ccccccccccccccccccccccccccccccccccccccccccccccccccccccccccccc" /><path
         id="path108"
         style="fill:#c3cded;fill-opacity:1;stroke-width:4.303;stroke-linecap:square"
         d="m -6.020289,116.68119 v 0.52916 h -0.52916 -0.529171 v 0.52917 h -0.52917 v 0.52917 h -0.529161 v 0.52916 h -0.52917 v 0.52917 h -0.52917 v 0.52917 0.52917 h -0.5291608 v 3.175 h 0.5291608 v 0.52916 0.52917 h 0.52917 v 0.52916 h 0.52917 v 0.52917 h 0.529161 v 0.52917 h 0.52917 v 0.52917 h 0.529171 0.52916 v 0.52916 h 3.175005 v -0.52916 h 0.52917 0.52917 v -0.52917 h 0.52916 v -0.52917 h 0.52917 v -0.52917 h 0.52917 v -0.52916 h 0.52916 v -0.52917 -0.52917 h 0.52917 v -3.17499 h -0.52917 v -0.52917 -0.52917 h -0.52916 v -0.52917 h -0.52917 v -0.52916 h -0.52917 v -0.52917 h -0.52916 v -0.52917 h -0.52917 -0.52917 v -0.52916 z"
         sodipodi:nodetypes="ccccccccccccccccccccccccccccccccccccccccccccccccccccccccccccc" /><path
         id="path109"
         style="fill:#c3cded;fill-opacity:1;stroke-width:4.303;stroke-linecap:square"
         d="m -0.728629,118.26869 v 0.52916 h -0.52916 -0.529171 v 0.52917 h -0.52917 v 0.52917 h -0.529161 v 0.52916 h -0.52917 v 0.52917 h -0.52917 v 0.52917 0.52917 h -0.5291608 v 3.175 h 0.5291608 v 0.52916 0.52917 h 0.52917 v 0.52916 h 0.52917 v 0.52917 h 0.529161 v 0.52917 h 0.52917 v 0.52917 h 0.529171 0.52916 v 0.52916 h 3.175005 v -0.52916 h 0.52917 0.52917 v -0.52917 h 0.52916 v -0.52917 h 0.52917 v -0.52917 h 0.52917 v -0.52916 h 0.52916 v -0.52917 -0.52917 h 0.52917 v -3.17499 h -0.52917 v -0.52917 -0.52917 h -0.52916 v -0.52917 h -0.52917 v -0.52916 h -0.52917 v -0.52917 h -0.52916 v -0.52917 h -0.52917 -0.52917 v -0.52916 z"
         sodipodi:nodetypes="ccccccccccccccccccccccccccccccccccccccccccccccccccccccccccccc" /><path
         id="path110"
         style="fill:#c3cded;fill-opacity:1;stroke-width:4.303;stroke-linecap:square"
         d="m 2.446379,119.32702 v 0.52916 H 1.917219 1.388048 v 0.52917 h -0.52917 v 0.52917 H 0.329717 v 0.52916 h -0.52917 v 0.52917 h -0.52917 v 0.52917 0.52917 h -0.5291608 v 3.175 h 0.5291608 v 0.52916 0.52917 h 0.52917 v 0.52916 h 0.52917 v 0.52917 h 0.529161 v 0.52917 h 0.52917 v 0.52917 h 0.529171 0.52916 v 0.52916 h 3.175005 v -0.52916 h 0.52917 0.52917 v -0.52917 h 0.52916 v -0.52917 h 0.52917 v -0.52917 h 0.52917 v -0.52916 h 0.52916 v -0.52917 -0.52917 h 0.52917 v -3.17499 h -0.52917 v -0.52917 -0.52917 h -0.52916 v -0.52917 h -0.52917 v -0.52916 h -0.52917 v -0.52917 h -0.52916 v -0.52917 h -0.52917 -0.52917 v -0.52916 z"
         sodipodi:nodetypes="ccccccccccccccccccccccccccccccccccccccccccccccccccccccccccccc" /><path
         id="path111"
         style="fill:#c3cded;fill-opacity:1;stroke-width:4.303;stroke-linecap:square"
         d="m -4.9619478,108.74371 v 0.52916 h -0.52916 -0.529171 v 0.52917 h -0.52917 v 0.52917 h -0.529161 v 0.52916 h -0.52917 v 0.52917 h -0.52917 v 0.52917 0.52917 h -0.5291608 v 3.175 h 0.5291608 v 0.52916 0.52917 h 0.52917 v 0.52916 h 0.52917 v 0.52917 h 0.529161 v 0.52917 h 0.52917 v 0.52917 h 0.529171 0.52916 v 0.52916 h 3.175005 v -0.52916 h 0.52917 0.52917 v -0.52917 h 0.52916 v -0.52917 h 0.52917 v -0.52917 h 0.52917 v -0.52916 h 0.52916 v -0.52917 -0.52917 h 0.52917 v -3.17499 h -0.52917 v -0.52917 -0.52917 h -0.52916 v -0.52917 h -0.52917 v -0.52916 h -0.52917 v -0.52917 h -0.52916 v -0.52917 h -0.52917 -0.52917 v -0.52916 z"
         sodipodi:nodetypes="ccccccccccccccccccccccccccccccccccccccccccccccccccccccccccccc" /><path
         id="path112"
         style="fill:#c3cded;fill-opacity:1;stroke-width:4.303;stroke-linecap:square"
         d="m 0.329709,113.50618 v 0.52916 h -0.52916 -0.529171 v 0.52917 h -0.52917 v 0.52917 h -0.529161 v 0.52916 h -0.52917 v 0.52917 h -0.52917 v 0.52917 0.52917 h -0.5291608 v 3.175 h 0.5291608 v 0.52916 0.52917 h 0.52917 v 0.52916 h 0.52917 v 0.52917 h 0.529161 v 0.52917 h 0.52917 v 0.52917 h 0.529171 0.52916 v 0.52916 h 3.175005 v -0.52916 h 0.52917 0.52917 v -0.52917 h 0.52916 v -0.52917 h 0.52917 v -0.52917 h 0.52917 v -0.52916 h 0.52916 v -0.52917 -0.52917 h 0.52917 v -3.17499 h -0.52917 v -0.52917 -0.52917 h -0.52916 v -0.52917 h -0.52917 v -0.52916 h -0.52917 v -0.52917 h -0.52916 v -0.52917 h -0.52917 -0.52917 v -0.52916 z"
         sodipodi:nodetypes="ccccccccccccccccccccccccccccccccccccccccccccccccccccccccccccc" /><path
         id="path113"
         style="fill:#c3cded;fill-opacity:1;stroke-width:4.303;stroke-linecap:square"
         d="m 2.446372,115.62286 v 0.52916 H 1.917212 1.388041 v 0.52917 h -0.52917 v 0.52917 H 0.32971 v 0.52916 h -0.52917 v 0.52917 h -0.52917 v 0.52917 0.52917 h -0.5291608 v 3.175 H -0.72863 v 0.52916 0.52917 h 0.52917 v 0.52916 h 0.52917 v 0.52917 h 0.529161 v 0.52917 h 0.52917 v 0.52917 h 0.529171 0.52916 v 0.52916 h 3.175005 v -0.52916 h 0.52917 0.52917 v -0.52917 h 0.52916 v -0.52917 h 0.52917 v -0.52917 h 0.52917 v -0.52916 h 0.52916 v -0.52917 -0.52917 h 0.52917 v -3.17499 h -0.52917 v -0.52917 -0.52917 h -0.52916 v -0.52917 h -0.52917 v -0.52916 h -0.52917 v -0.52917 h -0.52916 v -0.52917 h -0.52917 -0.52917 v -0.52916 z"
         sodipodi:nodetypes="ccccccccccccccccccccccccccccccccccccccccccccccccccccccccccccc" /><path
         id="path114"
         style="fill:#c3cded;fill-opacity:1;stroke-width:4.303;stroke-linecap:square"
         d="m -6.0202778,102.39371 v 0.52916 h -0.52916 -0.529171 v 0.52917 h -0.52917 v 0.52917 h -0.529161 v 0.52916 h -0.52917 v 0.52917 h -0.52917 v 0.52917 0.52917 h -0.5291608 v 3.175 h 0.5291608 v 0.52916 0.52917 h 0.52917 v 0.52916 h 0.52917 v 0.52917 h 0.529161 v 0.52917 h 0.52917 v 0.52917 h 0.529171 0.52916 v 0.52916 h 3.175005 v -0.52916 h 0.52917 0.52917 v -0.52917 h 0.52916 v -0.52917 h 0.52917 v -0.52917 h 0.52917 v -0.52916 h 0.52916 v -0.52917 -0.52917 h 0.52917 v -3.17499 h -0.52917 v -0.52917 -0.52917 h -0.52916 v -0.52917 h -0.52917 v -0.52916 h -0.52917 v -0.52917 h -0.52916 v -0.52917 h -0.52917 -0.52917 v -0.52916 z"
         sodipodi:nodetypes="ccccccccccccccccccccccccccccccccccccccccccccccccccccccccccccc" /><path
         id="path115"
         style="fill:#c3cded;fill-opacity:1;stroke-width:4.303;stroke-linecap:square"
         d="m -2.8452878,105.5687 v 0.52917 h -0.52916 -0.529171 v 0.52916 h -0.52917 v 0.52917 h -0.529161 v 0.52916 h -0.52917 v 0.52917 h -0.52917 v 0.52917 0.52917 h -0.5291608 v 3.175 h 0.5291608 v 0.52916 0.52917 h 0.52917 v 0.52916 h 0.52917 v 0.52917 h 0.529161 v 0.52917 h 0.52917 v 0.52917 h 0.529171 0.52916 v 0.52916 h 3.175005 v -0.52916 h 0.52917 0.52917 v -0.52917 h 0.52916 v -0.52917 h 0.52917 v -0.52917 h 0.52917 v -0.52916 h 0.52916 v -0.52917 -0.52917 h 0.52917 v -3.17499 h -0.52917 v -0.52917 -0.52917 h -0.52916 v -0.52916 h -0.52917 v -0.52916 h -0.52917 v -0.52917 h -0.52916 v -0.52917 h -0.52917 -0.52917 v -0.52916 z"
         sodipodi:nodetypes="ccccccccccccccccccccccccccccccccccccccccccccccccccccccccccccc" /><path
         id="path116"
         style="fill:#c3cded;fill-opacity:1;stroke-width:4.303;stroke-linecap:square"
         d="m 8.26722,118.26866 v 0.52917 H 7.73806 7.208889 v 0.52916 h -0.52917 v 0.52917 H 6.150558 v 0.52916 h -0.52917 v 0.52917 h -0.52917 v 0.52917 0.52917 H 4.5630572 v 3.175 H 5.092218 v 0.52916 0.52917 h 0.52917 v 0.52916 h 0.52917 v 0.52917 h 0.529161 v 0.52917 h 0.52917 v 0.52917 H 7.73806 8.26722 v 0.52916 h 3.175005 v -0.52916 h 0.52917 0.52917 v -0.52917 h 0.52916 v -0.52917 h 0.52917 v -0.52917 h 0.52917 v -0.52916 h 0.52916 v -0.52917 -0.52917 h 0.52917 v -3.17499 h -0.52917 v -0.52917 -0.52917 h -0.52916 v -0.52916 h -0.52917 v -0.52916 h -0.52917 V 119.327 h -0.52916 v -0.52917 h -0.52917 -0.52917 v -0.52916 z"
         sodipodi:nodetypes="ccccccccccccccccccccccccccccccccccccccccccccccccccccccccccccc" /><path
         id="path118"
         style="fill:#c3cded;fill-opacity:1;stroke-width:4.303;stroke-linecap:square"
         d="m 2.975549,110.33117 v 0.52916 H 2.446389 1.917218 v 0.52916 h -0.52917 v 0.52917 H 0.858887 v 0.52916 h -0.52917 v 0.52917 h -0.52917 v 0.52917 0.52917 h -0.5291608 v 3.175 h 0.5291608 v 0.52916 0.52917 h 0.52917 v 0.52916 h 0.52917 v 0.52917 h 0.529161 v 0.52917 h 0.52917 v 0.52917 h 0.529171 0.52916 v 0.52916 h 3.175005 v -0.52916 h 0.52917 0.52917 v -0.52917 h 0.52916 v -0.52917 h 0.52917 v -0.52917 h 0.52917 v -0.52916 h 0.52916 v -0.52917 -0.52917 h 0.52917 v -3.17499 h -0.52917 v -0.52917 -0.52916 h -0.52916 v -0.52917 h -0.52917 v -0.52916 h -0.52917 v -0.52916 h -0.52916 v -0.52917 h -0.52917 -0.52917 v -0.52916 z"
         sodipodi:nodetypes="ccccccccccccccccccccccccccccccccccccccccccccccccccccccccccccc" /><path
         id="path119"
         style="fill:#c3cded;fill-opacity:1;stroke-width:4.303;stroke-linecap:square"
         d="m 10.38389,112.97701 v 0.52916 H 9.85473 9.325559 v 0.52916 h -0.52917 v 0.52917 H 8.267228 v 0.52916 h -0.52917 v 0.52917 h -0.52917 v 0.52917 0.52917 H 6.6797272 v 3.175 H 7.208888 v 0.52916 0.52917 h 0.52917 v 0.52916 h 0.52917 v 0.52917 h 0.529161 v 0.52917 h 0.52917 v 0.52917 h 0.529171 0.52916 v 0.52916 h 3.175005 v -0.52916 h 0.52917 0.52917 V 122.502 h 0.52916 v -0.52917 h 0.52917 v -0.52917 h 0.52917 v -0.52916 h 0.52916 v -0.52917 -0.52917 h 0.52917 v -3.17499 h -0.52917 v -0.52917 -0.52916 h -0.52916 v -0.52917 h -0.52917 v -0.52916 h -0.52917 v -0.52916 h -0.52916 v -0.52917 h -0.52917 -0.52917 v -0.52916 z"
         sodipodi:nodetypes="ccccccccccccccccccccccccccccccccccccccccccccccccccccccccccccc" /><path
         id="path120"
         style="fill:#c3cded;fill-opacity:1;stroke-width:4.303;stroke-linecap:square"
         d="m 15.146387,115.6229 v 0.52916 h -0.52916 -0.529171 v 0.52916 h -0.52917 v 0.52917 h -0.529161 v 0.52916 h -0.52917 v 0.52917 h -0.52917 v 0.52917 0.52917 h -0.529161 v 3.175 h 0.529161 v 0.52916 0.52917 h 0.52917 v 0.52916 h 0.52917 v 0.52917 h 0.529161 v 0.52917 h 0.52917 v 0.52917 h 0.529171 0.52916 v 0.52916 h 3.175005 v -0.52916 h 0.52917 0.52917 v -0.52917 h 0.52916 v -0.52917 h 0.52917 v -0.52917 h 0.52917 v -0.52916 h 0.52916 v -0.52917 -0.52917 h 0.52917 v -3.17499 h -0.52917 v -0.52917 -0.52916 h -0.52916 v -0.52917 h -0.52917 v -0.52916 h -0.52917 v -0.52916 h -0.52916 v -0.52917 h -0.52917 -0.52917 v -0.52916 z"
         sodipodi:nodetypes="ccccccccccccccccccccccccccccccccccccccccccccccccccccccccccccc" /><path
         id="path121"
         style="fill:#c3cded;fill-opacity:1;stroke-width:4.303;stroke-linecap:square"
         d="m 22.025572,115.09369 v 0.52916 h -0.52916 -0.529171 v 0.52916 h -0.52917 v 0.52917 H 19.90891 v 0.52916 h -0.52917 v 0.52917 h -0.52917 v 0.52917 0.52917 h -0.529161 v 3.175 h 0.529161 v 0.52916 0.52917 h 0.52917 v 0.52916 h 0.52917 v 0.52917 h 0.529161 v 0.52917 h 0.52917 v 0.52917 h 0.529171 0.52916 v 0.52916 h 3.175005 v -0.52916 h 0.52917 0.52917 v -0.52917 h 0.52916 v -0.52917 h 0.52917 v -0.52917 h 0.52917 v -0.52916 h 0.52916 v -0.52917 -0.52917 h 0.52917 v -3.17499 h -0.52917 v -0.52917 -0.52916 h -0.52916 v -0.52917 h -0.52917 v -0.52916 h -0.52917 v -0.52916 h -0.52916 v -0.52917 h -0.52917 -0.52917 v -0.52916 z"
         sodipodi:nodetypes="ccccccccccccccccccccccccccccccccccccccccccccccccccccccccccccc" /></g><rect
       style="fill:#adbded;fill-opacity:1;stroke-width:0.748365;stroke-linecap:square;stroke-miterlimit:21.6"
       id="rect2"
       width="1.0583704"
       height="1.0583198"
       x="44.250565"
       y="107.68537" /><rect
       style="fill:#adbded;fill-opacity:1;stroke-width:0.748365;stroke-linecap:square;stroke-miterlimit:21.6"
       id="rect3"
       width="1.0583704"
       height="1.0583198"
       x="44.779736"
       y="107.1562" /><rect
       style="fill:#adbded;fill-opacity:1;stroke-width:0.748365;stroke-linecap:square;stroke-miterlimit:21.6"
       id="rect4"
       width="1.0583704"
       height="1.0583198"
       x="44.250565"
       y="107.15622" /></g></svg>
