<svg xmlns="http://www.w3.org/2000/svg" xml:space="preserve" width="1200" height="630" viewBox="0 0 63.5 33.337">
  <defs>
    <pattern id="snow" width="10" height="10" patternUnits="userSpaceOnUse">
      <g fill="#abcbf5" transform="scale(.50)">
        <rect width="1" height="1" x="001" y="001" />
        <rect width="1" height="1" x="010" y="010" />
        <rect width="1" height="1" x="020" y="008" />
        <rect width="1" height="1" x="003" y="007" />
        <rect width="1" height="1" x="013" y="003" />
        <rect width="1" height="1" x="005" y="013" />
        <rect width="1" height="1" x="016" y="015" />
        <rect width="1" height="1" x="017" y="001" />
      </g>
    </pattern>
  </defs>

  <path fill="#5d3822" d="M30.162 25.93h1.588v-.53h1.058v-.53h1.588v-.528h.529v-.53h1.058v-.529h.53v-.529h.529v-.529h.529v-1.058h.529v-.53h.53v-.529h.528v-.529h.53v-.529h.529v-2.117h-.53v-1.058h-.529v-1.058h-.529v-1.588H38.1V12.7h-.53v-.53h-.528v-1.587h-.53v-.529h-.529v-.529h-1.587v-.53h-.53v-.528h-.529v-.53h-.529V6.88h-2.116v.53h-1.059v.529h-1.058v.529h-1.058v.529h-1.059v.529h-.529v.53H25.4v1.058h-.53v.529h-.528v.529h-.53v2.646h-.529v2.646h.53v1.587h.529v3.175h.529v1.058h.529v.53h1.058v.529h1.059v.529h2.116v.529h.53z"/>
  <path fill="#d0945b" d="M29.633 11.642v.529h-.529v1.587h-.529v.53h-1.058v.529h-.53v1.058h-.529v1.058h-.529v.53h.53v.529h.528v.529h1.059v-.53h1.587v1.059h-3.175v1.588h1.588v.529h1.059v.529h.528v.529h.53v.53h.529v.528h1.588l.528.265v.264h.53v.53h.529V25.4h.741l.317 1.587.53.53h4.762v-.53h.529v-3.175h.529V19.58l-.53-1.058-.528-.53v-.529h-.53v-.529h-.529v-.529h-4.233v-.529h-1.058v-.53h-.53v-.528h-.529v-.53h-.529v-.529h-.529v-2.116h-.53v.529h-.528v1.587h-.53v-2.116z"/>
  <path fill="#5e3e23" d="M29.104 15.875h1.058v.529h-1.058z"/>
  <path fill="#f5b29b" d="M25.93 17.462v1.059h1.058v-1.059h-1.059"/>
  <path fill="#bd864f" d="M30.162 11.642v2.116h.53v-2.116zm1.588 0v2.116h.53v-2.116zm-2.117 6.35v1.058h-1.588v.53h2.118v-1.588zm5.821 2.116v1.588h.53v-1.588zm0 1.588h-.529v.529h.53zm-.529.529h-.53v.53h.53zm-.53.53h-1.058v.528h1.059zm-1.058.528H31.22v.53h2.118zm0 .53V25.4h.53v-1.588z"/>
  <path fill="#dfad7b" d="M29.633 11.642v.529h.53v-.53zm0 .529h-.529v1.587h.53V12.17m-.529 1.587h-.529v.53h.53zm-.529.53h-1.058v.529h1.058zm-1.058.529h-.53v1.058h.53v-1.058m-.53 1.058h-.529v1.058h.53v-1.058m-.529 1.058h-.529v.53h.53zm4.763-5.291v.529h.529v-.53zm.529 2.116v.53h.53v-.53zm.53.53v.529h.528v-.53zm.528.529v.529h.53v-.53zm.53.529v.529h.529v-.53zm.529.529v.53h1.058v-.53h-1.058m1.058.53v.528h4.233v-.529h-4.233"/>
  <path fill="#896036" d="M28.046 17.992v.529h-1.059v.529h2.646v-1.058h-1.588m-2.117 1.587v.53H25.4v1.058h.53v.529h1.058v-.53h.529v-.529h-1.059V19.58z"/>
  <path fill="#9e734d" d="M0 0v33.337h63.5V0Zm28.046 4.233h1.587v.53h1.059v-.53h1.587v.53h2.117v.529h.529v.529h.53v.529h.528v.53h.53v.528h1.058v.53h.529v.529h.53v.529h.528v1.587h.53v1.059h.529v2.116h.529v1.059h.529v1.058h.53v1.058h.528v1.588h-.529v1.058h-.529v.53h-.53v.528h-.528v.53h-.53v2.116h-.529v.53h-.529v.529H38.1v.529h-.53v.529h-.528v.53h-1.588v.528h-.529v.53h-1.588v.529H31.75v.529h-3.704v-.53H25.4v-.529h-.53V25.93h-1.587V25.4h-.529v-1.588h-.529v-.529h-.53v-2.646h-.528v-2.645h-.53v-2.117h-.529v-2.646h.53v-1.587h.529v-1.059h.529V8.996h.529v-.53h1.587V7.409h.53V6.88H25.4V6.35h.53v-.53h.528v-.528h1.059v-.53h.529z"/>
  <path fill="#94683f" d="M26.458-2.117v.53h.53v-.53zm1.059 0v.53h.529v-.53zm1.058 0v.53h.53v-.53zm3.175 0v.53h1.058v-.53H31.75m-31.22.53v.529h.528v-.53zm4.232 0v.529h.53v-.53zm25.4 0v.529h.53v-.53zm0 .529h-.529V0h.53v-1.058m28.046-.53v.53h.53v-.53zm2.117 0v.53h.53v-.53zm3.704 0v.53h.53v-.53zm-61.912.53v.529h.529v-.53zm22.754 0V0h.529v-1.058zm1.587 0v.529h1.059v-.53h-1.059m4.763 0v.529h.529v-.53zm.529.529V0h.53v-.53zm1.058-.53v.53h.53v-.53zm1.059 0v.53h.529v-.53zm1.587 0v.53h.53v-.53zm1.058 0v.53h.53v-.53zm1.059 0v.53h.529v-.53zm.529.53V0h.53v-.53zm.53.529v1.058h.528V0zm2.116-1.058v.529h1.059v-.53h-1.06m3.175 0v.529h.529v-.53zm2.116 0v.529h.53v-.53zm3.705 0v.529h.529v-.53zm-51.33.529V0h.53v-.53zm7.409 0V0h.529v-.53zm1.587 0V0h.53v-.53zm3.704 0V0h.53v-.53zm2.117 0V0h.53v-.53zm3.704 0V0h.53v-.53zm41.804 0V0h.53v-.53zm2.646 0V0h.53v-.53zm1.588 0V0h.529v-.53zm1.587 0V0h.53v-.53zM.53 0v.53h.53V0zm2.117 0v.53h.529V0zm23.283 0v.53h.53V0zm1.588 0v.53h1.058V0h-1.058m6.35 0v1.058h.529V.53h.529V0h-1.058m.529 1.058v.53h1.059v-.53h-1.06M35.983 0v.53h.53V0zm.53.53v.528h.529V.53zm.529.528v.53h.529v-.53zm.529.53v.529h.529v-.53zM40.217 0v.53h.529V0zm1.587 0v.53h.53V0zm.53.53v1.058h.528V.528zM43.391 0v.53h.529V0zm1.058 0v.53h.53V0zm2.646 0v.53h.529V0zm1.587 0v.53h.53V0zm1.588 0v.53h.529V0zm3.175 0v.53h.529V0zm3.175 0v.53h.529V0zm0 .53h-.53v.528h.53zM57.679 0v2.117h.53V0zm.53 2.117v.529h1.058v-.53h-1.059M-1.588.529v.53h.529v-.53zm6.35 0v.53h.529v-.53zm0 .53h-.53v1.058h.53V1.058m0 1.058v.529h.529v-.53zM6.35.529v1.058h.53V.53zm.53 1.058v.53h.528v-.53zm.528.53v.529h.53v-.53zM11.642.529v.53h.529v-.53zm2.645 0v1.058h.53V.53zm1.588 0v.53h.53v-.53zm1.587 0v.53h.53v-.53zm1.059 0v.53h1.059v-.53h-1.06m2.646 0v1.058h.529V.53zm1.587 0v.53h.53v-.53zm2.117 0v.53h.529v-.53zm.529.53v.528h-1.588v.53h2.118V1.058zm5.292-.53v.53h.529v-.53zm1.587 0v1.058h.53V.53zm27.517 0v1.058h.529V.53zm-58.209.53v.528h.53v-.529zm7.938 0v.528h1.058v-.529H9.525m1.058.528v1.059h.53V1.587zm0 1.059h-.529v.529h.53zM9.525 1.587h-.53v1.059h.53V1.587m18.52-.529v.53h.53v-.53zm.53.53v.529h.53v-.53zm12.17-.53v.53h.53v-.53zm.53.53v.529h.53v-.53zm2.117-.53v.53h.529v-.53zm2.116 0v.53h.53v-.53zm5.292 0v.53h.53v-.53zm1.058 0v.53h1.059v-.53h-1.059m2.117 0v.53h.53v-.53zm8.467 0v.53h.529v-.53zm1.587 0v.53h.53v-.53zM0 1.588v.529h.53v-.53zm12.7 0v.529h.53v-.53zm3.175 0v.529h-.53v.529h1.06V1.587zm1.587 0v.529h-.529v1.058h.53v-.53h.529v-.528h.529v-.53h-1.059m.53 1.058v.529h1.058v-.53h-1.058m1.587-1.059v.53h.53v-.53zm2.646 0v.53h.53v-.53zm.53.53v.529h.528v-.53zm4.232-.53v.53h.53v-.53zm12.7 0v.53h.53v-.53zm.53.53v.529h.529v-.53zm7.937-.53v.53h.53v-.53zm1.588 0v.53h.529v-.53zm5.82 0v.53h.53v-.53zm.53.53v.529h.529v.529h.529V2.117h-1.058m-.53 0h-.529v.529h.53zm-41.804 0v.529h.53v-.53zm6.88 0v1.058h.529V2.117zm9.524 0v.529h.53v-.53zm.53.529v.529h.529v-.53zm1.058-.53v.53h.53v-.53zm2.646 0v.53h.529v-.53zm1.587 0v1.059h.53V2.117zm.53 1.059v.53h.529v-.53zm6.35-1.058v.529h.529v-.53zm8.995 0v.529h1.059v-.53h-1.059m1.588 0v.529h.529v-.53zm6.35 0v.529h1.059v-.53h-1.06m-61.913.529v.529h.53v-.53zm2.646 0v.529h.53v-.53zm1.588 0v.529h1.058v-.53H2.117m9.525 0v1.059h.529v-1.06zm.529 1.058v.53h.529v-.53zm12.7-1.058v1.587h.529V2.645zm1.587 0v1.059h.53v-1.06zm6.88 0v.529h.529v-.53zm.529.529v.53h.529v-.53zm3.704-.53v.53h.529v-.53zm.529.53v.53h.53v-.53zm3.704-.53v.53h.53v-.53zm0 .53h-.529v.53h.53zm2.646-.53v.53h.53v-.53zm1.587 0v.53h.53v-.53zm4.234 0v.53h.529v-.53zm-46.567.53v.53h.53v-.53zm.53.53v.528h.528v-.529zm.528.528v1.588h1.059v-.53h-.53V4.234zm0 1.588h-.529v.529h.53zm-.529 0v-.53H3.175v.53h1.058m1.588-2.646v1.058h.529V3.175zm3.175 0v.53h.529v-.53zm.529.53v.528h1.058v-.529H9.525m-.53 0h-.528v.528h.529zm4.234-.53v.53h.53v-.53zm1.588 0v.53h.529v-.53zm6.879 0v.53h.529v-.53zm1.587 0v1.058h.53V3.175zm4.763 0v.53h.529v-.53zm15.346 0v.53h.529v-.53zm.529.53v.528h.529v-.529zm.529.528v.53h.53v-.53zm2.646-1.058v.53h.529v-.53zm4.233 0v.53h.53v-.53zm0 .53H50.8v.528h.53zm2.117-.53v.53h1.059v-.53h-1.06m4.762 0v.53h.53v-.53zm0 .53h-.529v1.058h.53V3.703m4.234-.53v.53h.529v-.53zm2.645 0v.53h.53v-.53zm-48.683.53v.528h.53v-.529zm.53.528v.53h.528v-.53zm2.116-.529v.53h.53v-.53zm.53.53v.528h.528v-.529zm11.112-.53v.53h1.058v-.53h-1.058m2.116 0v.53h.53v-.53zm2.646 0v.53h.53v-.53zm4.233 0v.53h.53v-.53zm.53.53v.528h-.53v.53h1.059V4.233zm.529 1.058V6.35h1.059v-.53h-.53v-.528zm1.587-1.588v.53h.53v-.53zm0 .53h-.529v1.058h1.058v-.53h-.529zm.53 1.058v.529h-.53v.529h1.059V5.292zm5.291-1.588v.53h.53v-.53zm0 .53h-.529v.528h.53zm7.938-.53v1.058h1.058v-.529h-.53v-.529zm3.704 0v.53h.529v-.53zm.529.53v.528h.53v-.529zm.53.528v.53h.528v-.53zm-61.913-.529v.53H0v-.53h-1.058m0 .53h-.53v.529h.53zm2.116-.53v.53h1.059v-.53H1.058m1.059.53V5.82h.529V4.762zm8.995-.53v.53h.53v-.53zm4.234 0v.53h.529v-.53zm.529.53V5.82h.53V4.762zm2.117-.53v.53h.529v-.53zm.529.53v.529h.529v-.53zm.529.529V6.35h.53V5.292zm0 1.058h-.53v.53h.53zm-.53.53h-.528v.528h.529zm0 .528v.53h.53v-.53zm-.528 0h-1.059v1.059h.53v-.53h.529zm-.53 1.059v1.058h.53V8.467zm0 1.058h-.529v.53h.53zm-.529-1.058h-1.058v1.058h.53v-.53h.528zm1.059-1.588V5.292h-.53V6.35h-.529v.53h1.059m3.175-2.646v1.059h.529V4.233zm5.82 0v.53h.53v-.53zm.53.53v.529h.529v-.53zm1.587-.53v1.059h.53V4.233zm0 1.059h-.529v.529h.53zm4.763-1.059v1.059h.529V4.233zm.529 1.059v.529h.529v-.53zm0 .529h-.53v.529h.53zm2.646-1.588v.53h.529v-.53zm.529.53v.529h.529v-.53zm.529.529v.529h.53v-.53zm7.408-1.059v.53h1.059v-.53h-1.059m17.463 0v.53h.529v-.53zm1.587 0v.53h.53v-.53zm-58.208.53V5.82h.53V4.762zm6.35 0v.529h.53v-.53zm1.587 0v.529h.53v-.53zm8.467 0v.529h.53v-.53zm.53.529v.529h.528v-.53zm1.587-.53v.53h1.059v.529h.528V4.762H24.87m1.587 1.059v.529h1.059v-.53h-1.059m5.292-1.059v.53h1.058v-.53H31.75m3.704 0v.53h.53v-.53zm.53.53v.529h.528v-.53zm.528.529v.529h.53v-.53zm12.171-1.059v.53h.53v-.53zm0 .53h-.529v.529h.53zm1.059-.53v.53H50.8v-.53h-1.058m2.645 0v1.059h.53V4.762zm0 1.059H50.8v.529h1.588zm1.588-1.059v1.059h.53V4.762zm4.762 0v.53h.53v-.53zm-59.266.53v.529H0v-.53zm1.058 0v.529h.53v-.53zm8.996 0v.529h.53v-.53zm34.925 0v.529h.53v-.53zm2.117 0v.529h.529v-.53zm.529.529V6.88h.529V5.82zm9.525-.53v.53h-.53v.529h1.059V5.292zm7.408 0v.53h.53v-.53zm1.588 0v.53h.529v-.53zm-68.263.53v.529h.53v-.53zm11.113 0v.529h.529v-.53zm2.116 0v.529H12.7v-.53h-2.117m3.175 0v.529h.53v-.53zm6.88 0v.529h.529v-.53zm9.524 0v.529h.53v-.53zm1.059 0v.529h.529v-.53zm1.058 0v.529h.53v-.53zm6.88 0v.529h.528v-.53zm6.35 0V6.88h1.058v-.53h-.53v-.53zm4.233 0v.529h.529v-.53zm8.995 0V6.88h.53V5.82zm0 1.058H57.68v.53h1.058zm1.588-1.058v.529h-.53v1.058h.53V6.88h.53V5.82zm-61.912.529v.53h.529v-.53zM0 6.35v.53h1.058v-.53H0m2.117 0v.53h.529v-.53zm.529.53v.528h1.059V6.88h-1.06m3.175-.53v.53h.529v-.53zm3.704 0v.53h.53v-.53zm0 .53h-.53v.528h.53zm5.292-.53v.53h.529v-.53zm6.879 0v1.058h.529V6.35zm0 1.058h-.53v1.588h1.059v-.53h-.53V7.409m2.116-1.058v.53h.53v-.53zm1.588 0v.53h.53v-.53zm0 .53h-.53v1.058h.53V6.878m12.17-.53v.53h.53v-.53zm.53.53v.528h.53V6.88zm15.346-.53v1.058h1.059V6.88h-.53V6.35zm1.058.53h.53v-.53h-.53zm.53 0v.528h.528V6.88zm0 .528h-.53v1.059h-.529v.529h1.058V7.408m-1.059 1.588h-.53v1.059h.53v-1.06m-.53 0v-.53h-.528V6.88h-1.059v.53h.53v2.116h-.53v.53h1.059v-1.06zm8.997-2.646v.53H63.5v-.53h-1.058m3.704 0v.53h.529v-.53zm-61.384.53v1.058h.53V6.878zm5.821 0v.528h.53V6.88zm0 .528h-.529v1.059h.53V7.408m0 1.059v.529h.53v-.53zm.53 0h1.058V7.408h-.53v.53h-.529zm2.116-1.588v1.588h.53V6.879zm6.35 0v.53h.53v-.53zm.53.53v.528h.528v-.529zm15.874-.53v.53h.53v-.53zm3.175 0v.53h.53v-.53zm1.059 0v.53h.529v-.53zm1.587 0v.53h.53v-.53zm1.588 0v.53h.529v-.53zm1.058 0v.53h.53v-.53zm4.233 0v.53h.53v-.53zm0 .53h-.529v1.058h.53V7.408m0 1.058v.529h.53v-.53zm1.588-1.588v.53h.529v-.53zm5.82 0v.53h1.059v-.53h-1.058M6.88 7.41v.528h.53v-.529zm8.467 0v.528h1.059v-.529h-1.06m7.408 0v.528h.53v-.529zm3.704 0v.528h.53v-.529zm20.109 0v.528h.529v-.529zm14.287 0v.528h.53v-.529zm0 .528h-.529v.53h.53zm-.529.53h-.53v.529h.53zm-.53 0v-.53H57.15v.53h2.646M63.5 7.408v.53h.53v-.53zm1.587 0v.53h.53v-.53zm1.588 0v.53h.53v-.53zm-69.85.53v.529h.53v-.53zm2.646 0v.529H0v-.53zm1.587 0v.529h.53v-.53zm1.588 0v.529h.529v-.53zm38.629 0v.529h.53v-.53zm4.233 0v.529h.53v-.53zm.53.529v1.058h.529V8.467zm4.233-.53v.53h.529v-.53zm.529.53v.529h.53v-.53zm.53 0h.528v-.53h-.529zm4.762-.53v.53h.529v-.53zm-49.742.53v.529h.53v-.53zm0 .529h-.53v.529h.53zm7.937-.53v.53h-.529v.529h1.059V8.467zm.53 1.059v.53h.529v-.53zm3.704-1.058v.529h.529v-.53zm1.058 0v.529h1.058v-.53H19.58m3.704 0v.529h1.059v-.53h-1.059m19.58 0v.529h.529v-.53zm19.05 0v.529h.529v-.53zm-62.971.529v.529h.529v-.53zm4.233 0v.529h.53v-.53zm1.587 0v.529h.53v-.53zm4.234 0v.529h.529v-.53zm.529.529v.53h.53v-.53zm2.117-.53v.53h.529v-.53zm28.045 0v.53h.53v-.53zm7.938 0v.53h.53v-.53zm7.937 0v.53h.53v-.53zm0 .53h-.529v.53h.53zm1.059-.53v.53h.529v-.53zm7.937 0v.53h.53v-.53zm1.588 0v.53h.529v-.53zm-65.617.53v.53h.53v-.53zm41.275 0v.53h.53v-.53zm1.058 0v.53h.53v-.53zm1.059 0v.53h.529v-.53zm1.058 0v.53h.53v-.53zm3.704 0v1.058h-1.058v-.529h-.53v1.058h2.647v-.529h-.53v-.529h.53v-.529h-1.059m2.117 0v.53h.53v-.53zm7.408 0v1.058h.53V9.525zm1.588 0v.53h.529v-.53zm-62.442.53v.528h.53v-.529zm6.35 0v.528h.53v-.529zm1.588 0v.528h.529v-.529zm5.291 0v.528h.53v-.529zm2.117 0v.528h.53v-.529zm6.88 0v.528h.528v-.529zm1.587 0v.528h.529v-.529zm18.52 0v.528h.53v-.529zm21.167 0v.528h.53v-.529zm1.588 0v.528h.529v-.529zm-62.971.528v.53H0v-.53zm2.116 0v1.059h.53v-1.059zm0 1.059h-.529v.529h.53zm13.759-1.059v.53h.529v-.53zm.529.53v.529h.53v-.53zm1.058-.53v.53h.53v-.53zm.53.53v.529h.529v-.53zm25.929-.53v.53h.529v-.53zm2.645 0v1.059h.53v-1.059zm4.234 0v.53h.529v-.53zm1.587 0v.53h.53v-.53zm0 .53h-.529v.529h.53zm2.646-.53v1.059h-.529v.529h1.058v-1.588zm-.529 1.059v-.53h-1.058v.53h1.058m2.117-1.059v.53h.529v-.53zm-58.738.53v.529h.53v-.53zm7.408 0v.529h.53v-.53zm1.059 0v.529H6.88v-.53H5.82m7.408 0v1.058h.53v-1.059zm28.046 0v.529h1.058v-.53h-1.058m1.058.529v.529h.53v-.53zm17.992-.53v.53h.53v-.53zm.53.53v.529h.528v-.53zm3.703-.53v.53h.53v-.53zm2.646 0v.53h.53v-.53zm-64.029.53v.529h.53v-.53zm.53.529v.529h-.53v.53h1.058v-1.06zm5.29-.53v.53h.53v-.53zm0 .53h-.528v.529h.529zm0 .529v.53h.53v-.53zm2.647-1.058v.529h.529v-.53zm32.808 0v.529h.53v-.53zm13.758 0v.529h.53v-.53zm.53.529v2.117h.529V12.17zm3.174-.53v.53h.53v-.53zm-62.441.53v.529H0v-.53zm7.408 0v.529h.53v-.53zm8.467 0v1.059h.529v-1.06zm4.233 0v.529h.53v-.53zm2.646 0v.529h.53v-.53zm24.342 0v.529h1.058v-.53h-1.058m1.587 0v.529h2.117v-.53h-2.117m2.646 0v.529h.53v-.53zm1.587 0v1.059h.53v-1.06zm.53 1.058v.53h.529v-.53zm0 .53h-.53v.528h.53zm2.645-1.588v.529h.53v-.53zm9.525 0v.529h.53v-.53zm1.588 0v.529h.53v-.53zM1.587 12.7v.53h.53v-.53zm3.705 0v.53h.529v-.53zm.529.53v.528h.529v-.529zm.529.528v.53h.53v-.53zm4.762-1.058v.53h.53v-.53zm5.821 0v.53h.53v-.53zm1.059 0v.53h.529v-.53zm42.333 0v.53h1.058v-.53h-1.058m2.646 0v.53h.529v-.53zm-63.5.53v.528H0v-.529zm7.937 0v.528h.53v-.529zm.53.528v1.059h.529v-1.059zm4.762-.529v.53h.53v-.53zm1.058 0v.53h.53v-.53zm.53.53v.528h.529v-.529zm0 .528h-.53v.53h.53zm5.82-1.058v1.058h.53V13.23zm1.588 0v.53h.529v-.53zm19.05 0v.53h.529v-.53zm2.646 0v.53h.529v-.53zm1.587 0v.53h.53v-.53zm2.117 0v.53h.529v-.53zm1.587 0v.53h.53v-.53zm2.117 0v.53h.53v-.53zm0 .53h-.53v.528h.53zm-.53.528h-.528v.53h.529zm-.528.53h-.53v1.058h.53v-1.058m4.762-1.588v.53h.53v-.53zm1.058 0v.53h.53v-.53zm1.059 0v.53h.529v-.53zm9.525 0v.53h.529v-.53zm1.587 0v.53h.53v-.53zm-65.087.53v.528h.529v-.529zm1.058 0v.528h.53v-.529zm5.821 0v.528h.53v-.529zm6.35 0v.528h1.058v-.529h-1.058m1.587 0v.528h1.059v-.529h-1.059m42.334 0v.528h.529v-.529zm.529.528v.53h1.058v-.53h.53v-.529h-1.059v.53zm2.117-.529v.53h.529v-.53zm2.116 0v.53h.53v-.53zm.53.53v1.058h.529v-1.059zm-64.03 0v.529h1.059v-.53H1.058m4.234 0v.529h.529v-.53zm0 .529h-.53v.529h.53zm6.35-.53v.53h.529v-.53zm9.525 0v.53h.529v-.53zm0 .53h-.53v.529h.53zm-.53.529h-.529v.529h.53zm2.117-1.059v.53h.53v-.53zm20.108 0v.53h.53v-.53zm4.234 0v.53h.529v-.53zm6.35 0v.53h.529v-.53zm1.058 0v1.588h1.058v-.53h-.529v-.528h.53v-.53h-1.059m1.588 0v.53h1.058v-.53h-1.058m1.058.53v1.058h.53v.53h1.058v-.53h-.53v-.53h-.529v-.528zm-54.504 0v.529h.529v-.53zm.529.529v.529h.53v-.53zm6.35-.53v.53h.53v-.53zm0 .53h-.53v.529h.53zm5.292-.53v.53h.529v-.53zm2.116 0v.53h1.059v-.53h-1.059m1.588 0v.53h1.059v-.53h-1.06m25.929 0v.53h.53v-.53zm6.88 0v.53h.528v-.53zm7.407 0v.53h.53v.529h.529v-1.058h-1.059m3.175 0v.53h.53v-.53zm1.059 0v.53h1.059v-.53h-1.06m-64.03.53v.529h.53v-.53zm2.646 0v.529h.53v-.53zm5.821 0v.529h.53v-.53zm5.292 0v.529h1.058v-.53H12.7m1.058.529v.53h.53v-.53zm2.117-.53v1.06h.53v-1.06zm25.4 0v.53h.53v-.53zm5.82 0v1.06h.53v-.53h.53v-.53h-1.06m8.997 0v.53h.529v-.53zm4.762 0v.53h.53v-.53zm0 .53h-.529v.53h.53zm-49.212 0v.53h.529v-.53zm31.75 0v.53h.529v-.53zm1.587 0v.53h1.058v-.53H44.98m5.821 0v.53h.53v-.53zm0 .53h-.53v.528h.53zm-.53.528h-.528v.53h.529zm-.528 0v-.529h-1.059v.53h-.529v.528h1.058v-.529zm-1.588.53h-.529v1.058h.53v-1.059m4.763-1.588v.53h.529v-.53zm.529.53v.528h1.059v-.529h-1.06m8.466-.53v.53h.53v-.53zm1.588 0v.53h.53v-.53zm0 .53h-.53v.528h.53zm-62.442 0v.528h.53v-.529zm0 .528H.53v.53h.53zm2.646-.529v.53h.53v-.53zm1.588 0v.53h.529v-.53zm1.587 0v.53h.53v-.53zm11.642 0v.53h.529v-.53zm1.587 0v.53h.53v-.53zm21.167 0v.53h.53v-.53zm14.287 0v.53h1.059v-.53h-1.059m1.059.53v1.587h.529v-1.588zm7.937-.53v.53h.53v-.53zm-61.912.53v.528h.529v-.529zm.529.528v.53h.53v-.53zm39.687-.529v.53h.53v-.53zm.53.53v1.058h.529v-1.059zm1.587-.53v.53h1.058v-.53H44.98m6.35 0v.53h.53v-.53zm7.408 0v.53h.53v-.53zm.53.53v.529h.529v-.53zm1.058-.53v.53h.53v-.53zm.53.53v.529h1.058v-.53h-1.059m-61.384 0v.529H0v-.53zm7.937 0v1.058h.53v-1.059zm.53 1.058v.529h.529v-.53zm2.116-1.059v.53h.53v-.53zm2.117 0v.53h.529v-.53zm2.646 0v.53h.529v-.53zm1.587 0v.53h.53v-.53zm46.567 0v.53h.529v-.53zm-61.384.53v1.058h.53v-1.058zm0 1.058h-.529v.53h.53zm0 .53v.528h1.059v-.529H1.587m2.646-1.588v.529h1.059v-.53H4.233m1.588 0v.529h.529v-.53zm38.629 0v.529h.53v-.53zm1.587 0v.529h1.059v-.53h-1.059m3.175 0v1.058h.53v-1.058zm3.175 0v.529h.53v-.53zm2.646 0v1.058h.53v-1.058zm0 1.058h-.529v.53h.53zm-45.508-.53v.53h.53v-.53zm4.762 0v.53h.53v-.53zm4.234 0v.53h.529v-.53zm2.646 0v.53h.529v-.53zm20.108 0v.53h.53v-.53zm9.525 0v.53h.53v-.53zm6.88 0v.53h.528v-.53zm1.057 0v1.06h.53v-.53h.529v-.53h-1.059m4.234 0v.53h.529v-.53zm2.646 0v.53h.529v-.53zm-62.442.53v.53h1.058v-.53H3.175m2.646 0v1.058h.529V19.05zm0 1.058h-.53v.53h.53zm-.53.53h-.529v.529h.53zM6.88 19.05v.53h.53v-.53zm8.996 0v.53h.53v-.53zm0 .53h-.53v.528h.53zm-.53.528h-1.058v.53h1.059zm-1.058.53h-.529v.529h.53zm-.529.529h-.529v.529h.53zm-.529.529H12.7v.529h.53zm0-.53v-.529H12.7v.53zm29.104-2.116v.53h.53v-.53zm.53.53v.528h.529v-.529zm1.587-.53v.53h.53v-.53zm15.875 0v.53h.53v-.53zm1.058 0v1.058h-.529v.53h1.058V19.05zm.53 1.587v1.059h.529v-1.059zM0 19.58v.53h.53v-.53zm8.996 0v.53h.529v-.53zm0 .53h-.53v.528h.53zm-.53.528h-.529v.53h.53zm2.117-1.058v1.058h.53V19.58zm2.117 0v.53h1.058v-.53H12.7m6.35 0v.53h.53v-.53zm1.587 0v.53h.53v-.53zm24.871 0v.53h.53v-.53zm1.588 0v.53h.529v-.53zm1.587 0v.53h.53v-.53zm7.409 0v.53h.529v-.53zm1.058 0v.53h.53v-.53zm6.35 0v.53h1.058v-.53H63.5m1.587 0v.53h.53v-.53zm-48.154.53v.528h.53v-.529zm0 .528h-.529v.53h-.529v.529h1.058v-1.059m35.984-.529v.53h.529v-.53zm.529.53v.529h.529v-.53zm0 .529h-.53v.529h.53zm5.291-1.059v.53h.53v.529h.529v-1.059h-1.059m1.059 1.059v.529h-.53v1.059h.53v-.53h.529v-.53h1.058v-.528h-1.588m-59.267-.53v.53h.53v-.53zm2.646 0v.53h1.058v-.53H3.175m3.175 0v.53h.53v-.53zm11.642 0v1.059h.529v-1.059zm1.587 0v.53h1.058v-.53H19.58m2.117 0v1.059h.529v-1.059zm19.05 0v.53h.529v-.53zm2.646 0v.53h.529v-.53zm1.587 0v.53h.53v-.53zm4.233 0v.53h.53v-.53zm2.646 0v.53h.53v-.53zm3.175 0v.53h1.059v-.53h-1.059m2.117 0v.53h.53v-.53zm.53.53v1.058h1.058v-.53h-.53v-.528zm5.82-.53v.53h.53v-.53zm1.058 0v.53h.53v-.53zm1.588 0v.53h.529v-.53zm-67.733.53v.529h.529v-.53zm10.583 0v.529h.529v-.53zm2.646 0v.529h.529v-.53zm3.175 0v1.058h.529v-1.058zm31.75 0v.529h.529v-.53zm.529.529v.529h.529v-.53zm.529.529v1.058h.53v-1.058zm0 1.058h-.53v.53h.53zM-.529 21.696v.529H0v-.53zm2.116 0v.529h.53v-.53zm5.292 0v.529h.53v-.53zm12.171 0v1.059h.53v-1.06zm23.812 0v.529h1.059v-.53h-1.059m6.88 0v.529h.529v-.53zm1.587 0v.529h.53v-.53zm.53.529v.53h.528v-.53zm.528.53v.528h1.059v-.529h-1.059m-.529 0H50.8v.528h1.058zm2.117-1.06v.53h.53v-.53zm1.587 0v.53h.53v-.53zm0 .53h-.529v1.058h.53v-1.058m1.059-.53v.53h.529v-.53zm6.35 0v.53h1.059v-.53h-1.06m1.587 0v.53h.53v-.53zm-60.325.53v.53h.53v-.53zm1.588 0v.53h.529v-.53zm2.116 0v.53h.53v-.53zm2.117 0v.53h.53v-.53zm6.35 0v.53h.53v-.53zm1.058 0v.53h.53v-.53zm3.175 0v.53h.53v-.53zm1.588 0v.53h.53v-.53zm22.225 0v.53h.53v-.53zm1.058 0v2.117h1.059v-.53h-.53v-1.587zm0 2.117h-2.646v.529h.53v.529h.529v-.53h1.059v.53h.528v-1.058M43.921 25.4v1.058h.529V25.4zm0 1.058h-.53v1.059h.53v-1.059M12.7 22.754v.53h.53v-.53zm1.587 0v.53h.53v-.53zm0 .53h-.529v.528h.53zm26.988-.53v.53h.53v-.53zm2.117 0v1.058h1.058v-.529h-.53v-.529zm5.82 0v.53h.53v-.53zm8.467 0v1.058h.53v-.529h.528v-.529H57.68m0 1.058h-.529v.53h.53zm3.175-1.058v.53h.53v-.53zm1.058 0v.53h1.059v-.53h-1.059m2.117 0v.53h.53v-.53zm-66.146.53v.528h.53v-.529zm2.646 0v.528h.53v-.529zm1.588 0v.528h.529v-.529zm8.995 0v.528h.53v-.529zm0 .528h-.529v.53h.53zm4.234-.529v.53h.529v-.53zm2.116 0v.53h.53v-.53zm20.638 0v.53h.53v-.53zm2.117 0v.53h.529v-.53zm15.875 0v.53h.529v-.53zm3.175 0v1.059h.529v-1.059zm-52.917.53v.529h.53v-.53zm.53.529v.529h.528v-.53zm2.116-.53v.53h.529v-.53zm11.112 0v1.059h.53v-1.059zm1.588 0v.53h.529v-.53zm19.579 0v1.059h.53v-1.059zm7.408 0v.53h.53v-.53zm1.059 0v.53H50.8v-.53h-1.058m2.116 0v.53h.53v-.53zm0 .53h-.529v.529h.53zM0 24.342v.529h.53v-.53zm4.233 0v.529h.53v-.53zm8.996 0v.529h.53v-.53zm.53.529v.529h.528v-.53zm-.53 0H12.7v.529h.53zm4.233-.53v.53h.53v-.53zm.53.53v1.059h.529v-1.06zm19.579-.53v.53h.529v-.53zm1.058 0v.53h.53v-.53zm1.058 0v.53h.53v-.53zm14.288 0v.53h.53v-.53zm1.587 0v.53h.53v-.53zm6.35 0v.53h.53v-.53zm1.588 0v.53h.53v-.53zm-61.913.53v.529h.53v-.53zm6.88 0v.529h.529v-.53zm6.35 0v.529h1.058v-.53h-1.058m1.587 0v.529h.53v-.53zm20.108 0v.529h.53v-.53zm10.584 0v.529h1.059v-.53h-1.06m-48.683.529v.53h.529v-.53zm6.35 0v.53h.529v-.53zm1.587 0v.53h.53v-.53zm.53.53v.528h.528v-.529zm.528.528v.53h.53v-.53zm.53.53v.529h.529v-.53zm-.53 0H6.88v.529h.53zm2.646-1.588v1.058h.53V25.4zm1.588 0v.53h.529v-.53zm7.937 0v.53h.53v-.53zm.53.53v.528h.528v1.059h.53v-1.588h-1.059m17.462-.53v.53h1.059v-.53h-1.06m2.116 0v.53h.53v-.53zm1.059 0v.53h.529v-.53zm1.587 0v1.058h.53V25.4zm7.409 0v.53h.529v-.53zm1.587 0v.53h.53v-.53zm2.117 0v.53h.529v-.53zm2.116 0v.53h.53v-.53zm0 .53h-.529v.528h.53zm2.117-.53v.53h1.058v-.53H57.68m2.117 0v.53h1.059v-.53h-1.06m-59.267.53v.528h.53v-.529zm2.117 0v.528h.529v-.529zm10.583 0v.528h2.117v-.529h-2.117m2.646 0v.528h.53v-.529zm5.82 0v.528h.53v-.529zm1.06 0v.528h.528v-.529zm.528.528v.53h.53v-.53zm1.588-.529v.53h.529v-.53zm1.058 0v.53h.53v-.53zm10.054 0v.53h.53v-.53zm-37.57.53v.528h.529v-.529zm7.408 0v1.058h.529v-1.059zm3.175 0v.528h.529v-.529zm.529.528v.53h.53v-.53zm.53.53v1.058h1.058v-1.058h-1.059m1.057 1.058v.53h.53v-.53zm.53.53v.528h.529v-.529zm-.53-2.647v.53h.53v.529h.529v-1.059h-1.059m1.059 1.059v.529h.529v-.53zm5.291-1.059v.53h.53v-.53zm.53.53v2.645h1.058v-.529h-.53v-1.059h.53v-.528h-.53v-.53zm1.058 1.058v.529h1.058v-.53H19.05m-1.588-1.059h-.529v.53h.53zm-.529.53h-.529v.529h.53zm-.529.529h-.529v1.059h.53v-1.06m0 1.058v.53h.53v-.53zm0-1.587v-.53h-1.059v.53h1.06m2.646-1.059v.53h.53v-.53zm.53.53v.529h.528v-.53zm9.524-.53v.53h.53v-.53zm0 .53h-.529v.529h.53zm2.117-.53v.53h.529v-.53zm3.704 0v.53h.53v-.53zm2.117 0v.53h.529v-.53zm2.116 0v.53h.53v-.53zm0 .53h-.529v.529h.53zm6.88-.53v.53h.529v-.53zm1.587 0v.53h.53v-.53zm4.233 0v.53h.53v-.53zm5.821 0v.53h1.058v-.53H57.68m2.117 0v.53h.529v-.53zm0 .53h-.53v1.058h.53v-1.059m2.116-.53v.53h.53v-.53zm2.646 0v.53h.53v-.53zm-62.441.53v.529h.529v-.53zm1.587 0v.529h.53v-.53zm10.583 0v.529h-.529v.529h.53v.529h.529v-1.588zm0 1.587h-.529v1.058h.53v-1.058m-.529 0v-.53h-.529v.53zm8.467-1.588v.53h.53v-.53zm.53.53v.529h.528v-.53zm.528.529v.529h.53v-.53zm.53 0h.529v-.53h-.53zm0 .529v.53h.529v-.53zm-.53 0h-.529v.53h.53zm-1.058-1.058h-.53v1.058h.53v-1.058m4.762-.53v.53h.53v-.53zm3.175 0v.53h.53v-.53zm0 .53h-.529v.529h.53zm2.117-.53v1.059h.53v-1.059zm3.704 0v.53h.53v-.53zm0 .53h-.529v.529h-.529v.529h1.058v-1.058m4.234-.53v.53h.529v-.53zm1.587 0v.53h.53v-.53zm12.171 0v.53h.53v-.53zm.53.53v.529h.528v-.53zm1.587-.53v1.059h.529v-1.059zm0 1.059h-.53v.529h.53zm0 .529v.53h.529v-.53zm0 .53h-.53v.528h.53zm-.53 0v-.53h-.529v.53zM.53 27.516v.529h.53v-.53zm4.233 0v.529h.53v-.53zm0 .529h-.529v.529h.53zm20.109-.53v.53h.529v-.53zm8.996 0v.53h.529v-.53zm0 .53h-.53v.529h.53zm11.641-.53v.53h.53v-.53zm0 .53h-.529v.529h.53zm3.175-.53v.53h.53v-.53zm1.059 0v.53h.529v-.53zm1.058 0v.53h.53v-.53zm1.058 0v.53h1.059v-.53h-1.059m5.292 0v.53h.53v-.53zm3.704 0v.53h.53v-.53zm0 .53h-.529v1.059h.53v-1.06m-.529 1.058h-.53v.53h.53zm2.117-1.587v.529H63.5v-.53h-1.058m1.587 0v.529h.53v-.53zm-57.15.529v.529h.53v-.53zm1.058 0v.529h1.588v-.53H7.937m12.7 0v.529h.53v-.53zm5.292 0v.529h.53v-.53zm1.058 0v.529h1.059v-.53h-1.059m3.705 0v1.059h.529v-1.06zm5.82 0v.529h.53v-.53zm1.588 0v.529h.53v-.53zm1.587 0v1.059h.53v-1.06zm1.588 0v.529h.53v-.53zm1.058 0v.529h.53v-.53zm1.059 0v.529h.529v-.53zm.529.529v.53h.529v-.53zm.529.53v.528h.53v-.529zm0 .528h-.53v1.059h.53v-1.059m2.646-1.587v.529h.529v-.53zm11.112 0v.529h-.529v.53h1.058v-1.06zm-56.091.529v.53h.529v-.53zm26.458 0v.53h.53v-.53zm0 .53h-.53v.528h.53zm20.637-.53v.53h.53v-.53zm1.059 0v.53h.529v-.53zm1.587 0v.53h.53v-.53zm1.588 0v.53h1.059v-.53h-1.06m8.466 0v.53h.53v-.53zm1.588 0v.53h.53v-.53zm1.587 0v.53h.53v-.53zm-61.912.53v.528h.53v-.529zm2.117 0v.528h.529v-.529zm4.233 0v1.587h1.058v-.53h-.529v-.529h.53v-.529H9.524m11.112 0v.528h1.059v-.529h-1.059m4.763 0v.528h.53v-.529zm4.233 0v.528h.53v-.529zm2.117 0v.528h.53v-.529zm1.587 0v.528h.53v-.529zm1.588 0v.528h.53v-.529zm0 .528h-.53v.53h.53zm1.587-.529v.53h.53v-.53zm0 .53h-.529v1.058h1.059v-.53h-.53zm1.059-.53v.53h.529v-.53zm4.233 0v.53h.53v-.53zm1.058 0v.53h.53v-.53zm3.175 0v.53h.53v-.53zm1.059 0v.53h1.059v.528h.528v-1.058h-1.588m1.058 1.058h-.529v.53h.53zm-.529.53h-.53v.529h.53zm-.53.529h-.528v.529h.529zm-.528 0v-.53h-.53v-.529h-.529v1.059h1.059m-1.059 0h-.529v.529h.53zm-37.57-1.588v.53h.529v-.53zm0 .53h-.53v.529h.53zm6.879-.53v.53h.529v-.53zm23.812 0v.53h1.588v-.53h-1.588m2.117 0v1.059h.529v-1.059zm0 1.059h-.53v.529h.53zm9.525-1.059v.53h.529v-.53zm1.058 0v.53h.53v-.53zm1.588 0v1.059h.529v-1.059zm3.704 0v.53h.529v-.53zm1.587 0v.53h1.059v-.53h-1.059m4.234 0v.53h.529v-.53zm.529.53v.529h.529v-.53zm-51.33 0v.529H12.7v-.53h-1.058m4.763 0v.529h.53v-.53zm2.646 0v.529h.53v-.53zm2.646 0v.529h.529v-.53zm1.587 0v.529h.53v-.53zm1.588 0v.529h.529v-.53zm2.116 0v.529h1.059v-.53h-1.059m1.059.529v.529h.529v-.53zm1.587-.53v.53h.53v-.53zm1.588 0v.53h.529v-.53zm0 .53h-.53v.529h.53zm11.112-.53v.53h1.059v-.53h-1.059m12.171 0v.53h.53v-.53zm6.88 0v.53h.528v-.53zm-59.797.53v.529h.53v-.53zm2.646 0v.529h.53v-.53zm1.588 0v.529h.529v-.53zm26.458 0v.529h.53v-.53zm5.821 0v.529h.53v-.53zm.53.529v.529h.528v-.53zm.528.529v.53h1.059v-.53h-1.059m11.113-1.058v.529h.529v-.53zm.529.529v.529h.53v-.53zm-37.042 0v.529h1.059v-.53h-1.059m1.588 0v.529h1.059v-.53h-1.06m3.175 0v.529h.529v-.53zm1.058 0v.529h.53v-.53zm1.588 0v.529h.529v-.53zm0 .529h-.53v.53h.53zm4.233-.53v.53h.53v-.53zm.53.53v.53h.528v-.53zm1.057-.53v.53h.53v-.53zm2.117 0v.53h.53v-.53zm4.233 0v.53h.53v-.53zm2.646 0v.53h.53v-.53zm6.88 0v.53h.529v.53h.529v-1.06h-1.059m6.35 0v.53h.529v-.53zm5.82 0v.53h.53v-.53zm2.646 0v.53h.53v-.53zm1.588 0v.53h.529v-.53zm-55.563.53v.53h.53v-.53zm4.233 0v1.058h.53V31.75zm.53 1.058v.53h.529v-.53zm.529-1.058v.53h.529v-.53zm1.587 0v1.058h.53v-.529h.529v-.529h-1.059m0 1.058h-.529v.53h.53zm12.171-1.058v.53h.53v-.53zm1.058 0v.53h.53v-.53zm6.35 0v.53h1.059v-.53h-1.059m4.234 0v.53h.529v-.53zm0 .53h-.53v.528h.53zm2.646-.53v.53h.529v-.53zm4.762 0v.53h.53v-.53zm.53.53v.528h.528v-.529zm-37.042 0v.528h.529v-.529zm6.879 0v.528h.529v-.529zm.529.528v.53h.53v-.53zm6.88-.529v.53h.528v-.53zm0 .53h-.53v.528h.53zm7.407-.53v.53h.53v1.058h.529v-1.588h-1.059m.53 1.588h-.53v.529h.53zm4.233-1.588v1.058h.53V32.28zm3.704 0v.53h.53v-.53zm0 .53h-.529v1.058h.53v-1.059m2.646-.53v.53h.53v-.53zm10.583 0v.53h.53v-.53zm0 .53h-.529v.528h.53zm4.234-.53v.53h.529v-.53zm2.645 0v.53h.53v-.53zm1.588 0v.53h.53v-.53zm4.233 0v.53h.53v-.53zm2.646 0v.53h.53v-.53zm-61.912.53v.528h.529v-.529zm12.17 0v.528h1.059v-.529h-1.059m1.588 0v.528h.53v-.529zm1.058 0v.528h.53v-.529zm3.704 0v.528h.53v-.529zm1.059 0v.528h1.059v-.529h-1.06m2.646 0v.528H25.4v-.529h-1.058m1.587 0v.528h.53v-.529zm2.646 0v.528h.53v-.529zm1.058 0v.528h.53v-.529zm6.88 0v1.058h.529v-1.059zm0 1.058h-.53v.529h.53zm4.762-1.059v.53h.53v-.53zm4.233 0v.53h.53v-.53zm4.763 0v.53h.529v-.53zm8.466 0v.53h.53v-.53zm-54.504.53v.529h.53v-.53zm2.117 0v.529h.53v-.53zm11.642 0v.529h.529v-.53zm12.7 0v.529h.529v-.53zm.529.529v.529h.529v-.53zm1.587-.53v.53h.53v-.53zm10.054 0v.53h.53v-.53zm4.234 0v.53h.529v-.53zm.529.53v.529h.53v-.53zm0 .529h-.53v1.059h.53v-1.06m5.82-1.059v.53h.53v-.53zm1.588 0v.53h1.059v-.53h-1.059m6.88 0v.53h.529v-.53zm1.587 0v.53h.53v-.53zm-61.383.53v.529h.529v-.53zm7.408 0v.529h1.058v-.53H9.525m1.587 0v.529h1.059v-.53h-1.059m2.117 0v.529h.53v-.53zm2.117 0v.529h1.059v-.53h-1.06m4.233 0v.529h.53v-.53zm1.588 0v.529h.529v-.53zm2.116 0v.529h.53v-.53zm2.117 0v.529h.53v-.53zm3.175 0v.529h.53v-.53zm8.996 0v.529h.529v-.53zm2.116 0v.529h.53v-.53zm6.35 0v.529h.53v-.53zm3.175 0v.529h.53v-.53zm2.117 0v.529h.53v-.53zm6.35 0v.529h.53v-.53zm2.117 0v.529h.529v-.53zm-53.975.529v.529h.529v-.53zm23.812 0v.529h.53v-.53zm2.646 0v.529h.53v-.53zm1.588 0v.529h.529v-.53zm7.937 0v.529h.53v-.53zm2.117 0v.529h.529v-.53zm10.583 0v.529h.53v-.53zm1.058 0v.529h1.059v-.53h-1.059m7.409 0v.529h.529v-.53zm1.587 0v.529h.53v-.53zm-60.325.529v.53h.53v-.53zm4.234 0v.53h.529v-.53zm2.116 0v.53h.53v-.53zm3.704 0v.53h.53v-.53zm2.117 0v.53h.53v-.53zm14.288 0v.53h.529v-.53zm4.233 0v.53h.53v-.53zm4.762 0v.53h.53v-.53zm8.996 0v.53h.53v-.53zm.53.53v.528h.529v-.529zm1.587-.53v.53h.53v-.53zm8.467 0v.53h.529v-.53zm-15.875.53v.528h.529v-.529zm10.054 0v.528h.529v-.529zm4.233 0v.528h.53v-.529zm4.233 0v.528h.53v-.529zm-20.108.528v.53h.53v-.53zm4.233 0v.53h.53v-.53z"/>
  <path fill="#c28b5e" d="M28.046 4.233v.53h-.53v.529h-1.058v.529h-.529v.529H25.4v.53h-1.058v.528h-.53v1.059h-1.587v.529h-.53v1.587h-.528v1.059h-.53v1.587h-.529v2.646h.53v2.117h.529v2.645h.529v2.646h.529v.53h.53V25.4h.528v.53h1.588v1.058h.529v.529h2.646v.529h3.704v-.53h1.587v-.528h1.588v-.53h.53v-.529h1.587V25.4h.529v-.53h.529v-.528h.53v-.53h.528v-.529h.53v-2.116h.529v-.53h.529v-.529h.529v-.529h.53v-1.058h.528v-1.588h-.529v-1.058h-.529v-1.058h-.53v-1.059h-.528v-2.116h-.53v-1.059h-.529V8.996h-.529v-.53H38.1v-.529h-.53v-.529h-1.058V6.88h-.529V6.35h-.529v-.53h-.529v-.528h-.53v-.53H32.28v-.529h-1.587v.53h-1.059v-.53Zm2.646 2.646h2.116v1.058h.53v.53h.529v.529h.529v.529h1.587v.53h.53v.528h.529v1.588h.529v.529h.529v.53h.53v1.587h.528v1.058h.53v1.058h.529v2.117h-.53v.53h-.529v.528h-.529v.53H38.1v.529h-.53v1.058h-.528v.53h-.53v.528h-.529v.53h-1.058v.529h-.53v.529h-1.587v.529H31.75v.53h-1.588v-.53h-.529v-.53h-2.116v-.528h-1.059v-.53H25.4v-.529h-.53v-1.058h-.528V19.05h-.53v-1.588h-.529v-2.645h.53V12.17h.529v-.53h.529v-.528h.529v-1.059h.53v-.529h.528v-.53h1.059v-.528h1.058v-.53h1.058v-.529h1.059z"/>
  <path fill="#cc9e73" d="M28.046 4.233v.53h1.587v-.53h-1.588m1.587.53v.529h1.059v-.53h-1.059m1.059 0h1.588v-.53h-1.588zm1.587 0v.529h2.117v-.53h-2.117m2.117.529v.529h.529v-.53zm.529.529v.529h.53v-.53zm.53.529v.53h.528v-.53zm.528.53v.528h.53V6.88zm.53.528v.53h1.058v-.53h-1.059m1.058.53v.529h.529v-.53zm.529.529v.529h.53v-.53zm.53.529v1.587h.528V8.995zm.528 1.587v1.059h.53v-1.059zm.53 1.059v1.588h.529v-1.588zm-11.642-6.88h-.53v.53h.53zm-.53.53h-1.058v.529h1.059zm-1.058.529h-.529v.529h.53zm-.529.529H25.4v.53h.53zm-.529.53h-1.058v.528H25.4zm-1.058.528h-.53v1.059h.53V7.408m-.53 1.059h-1.587v.529h1.588zm-1.587.529h-.53v1.587h.53V8.995m-.53 1.587h-.528v1.059h.529v-1.059m-.528 1.059h-.53v1.588h.53v-1.588m-.53 1.587h-.529v2.646h.53v-2.646m0 2.646v2.117h.53v-2.117zm.53 2.117v2.646h.529v-2.646zm.529 2.645v2.646h.529v-2.646zm.529 2.646v.53h.53v-.53zm.53.53V25.4h.528v-1.588zm.528 1.587v.53h1.588v-.53h-1.588m1.588.53v1.058h.529v-1.059z"/>
  <path fill="#ad7949" d="M39.687 13.23v.528h.53v-.529zm.53.528v1.059h.529v-1.059zm.529 1.059v1.058h.529v-1.058zm.529 1.058v1.058h.53v-1.058zm.53 1.058v1.588h.528v-1.588zm0 1.588h-.53v1.059h.53v-1.06m-.53 1.058h-.53v.53h.53zm-.53.53h-.528v.528h.529zm-.528.528h-.53v.53h.53zm-.53.53h-.529v2.116h.53v-2.116m-.529 2.116h-.529v.53h.53zm-.529.53H38.1v.529h.53zm-.529.529h-.53v.529h.53zm-.53.529h-.528v.529h.529zm-.528.529h-1.588v.53h1.588zm-1.588.53h-.529v.528h.53zm-.529.528h-1.588v.53h1.588zm-1.588.53H31.75v.529h1.588zm-1.587.529h-3.705v.529h3.705zm-3.704 0v-.53H25.4v.53h2.646"/>
  <path fill="#9f6a3e" d="M30.692 6.35v.53h2.116v-.53h-2.116m2.116.53v1.058h.53V6.878zm.53 1.057v.53h.529v-.53zm.529.53v.529h.529v-.53zm.529.529v.529h1.587v-.53h-1.588m1.587.529v.53h.53v-.53zm.53.53v.528h.529v-.529zm.529.528v1.588h.529v-1.588zm.529 1.588v.529h.529v-.53zm.529.529v.53h.53v-.53zm.53.53v1.587h.528v-1.588zm.528 1.587v1.058h.53v-1.058zm-8.466-7.938h-1.059v.53h1.059zm-1.059.53h-.529v.528h.53zm-.529.528h-1.587v.53h1.588zm-1.587.53h-1.059v.529h1.059zm-1.059.529h-.529v.529h.53zm-.529.529H25.4v.53h.53zm-.529.53h-.53v.528h-.528v.53h-.53v1.058h.53v-.53h.529v-.529h.529v-1.058m-1.588 2.116h-.529v2.646h.53V12.17m-.529 2.646h-.529v2.646h.53v-2.646m0 2.645v1.588h.53v-1.588zm.53 1.588v3.175h.529V19.05zm.529 3.175v1.058h.529v-1.058zm.529 1.058v.53h.529v-.53zm.529.53v.529h1.058v-.53H25.4"/>
  <path fill="#b17e54" d="M39.687 15.875v1.058h.53v-1.058zm.53 1.058v2.117h.529v-2.117zm0 2.117h-.53v.53h.53zm-.53.53h-.529v.528h.53zm-.529.528h-.529v.53h.53zm-.529.53H38.1v.529h.53zm-.529.529h-.53v1.058h.53v-1.058m-.53 1.058h-.528v.53h.529zm-.528.53h-.53v.528h.53zm-.53.528h-.529v.53h.53zm-.529.53h-1.058v.529h1.058zm-1.058.529h-.53v.529h.53zm-.53.529h-1.587v.529h1.588zm-1.587.529H31.75v.53h1.058zm-1.058.53h-1.588v.528h1.588zm-1.588 0v-.53h-.529v.53zm-.529-.53v-.53h-2.116v.53h2.116m-2.116-.53v-.528h-1.059v.529h1.059"/>
  <path fill="#7c5831" d="M6.88 0v1.058h-.53v1.059h-.53v.529h-.528v.529h-.53v.53h-.529v1.587h-.529v.529h-.529V6.88h-.53v.528h-.528v1.588h-.53v2.117h-.529v.529H.53v.529H0v2.117h.53v1.587h.528v.53h.53v2.116h.529v2.646h.529v2.116h.529v2.647h-.53v.528h-.528v.53h-.53v2.117h-.529v1.587H.53v2.116H0v.53h1.058v-.53h.53v-2.116h.529v-1.588h.529v-2.117h.529v-.529h.53v-.529h.528v-2.646h-.529v-2.116h-.529V18.52h-.53v-2.116h-.528v-.529h-.53v-1.588h-.529V12.17h.53v-.528h.529v-.53h.529V8.995h.529V7.409h.53V6.88h.528V5.82h.53v-.528h.529V3.704h.529v-.529h.529v-.53h.53v-.528h.528V1.058h.53V0H6.878m4.762 0v.53h-.53v2.116h-.529v1.587h-.529V6.35h-.529v.53h-.53v.528h-.528v2.647h.529v2.116h.529v2.646h.53v2.116h.528v.53h.53v1.587h.529v2.117h-.53v.529h-.529v.529h-.529v2.117h-.529v1.588h-.53v.528h-.528v1.059h-.53v.529h-.529v1.587H6.88v.53H6.35v.529h-.53v.529h-.528v1.059h-.53v1.058h1.059v-1.059h.529V31.22h.53v-.528h.528v-.53h.53v-.529h.529v-1.588h.529v-.528h.529v-1.059h.53v-.529h.528v-1.587h.53v-2.117h.529v-.53h.529v-.528h.529V19.05h-.53v-1.588h-.528v-.529h-.53v-2.116h-.529V12.17h-.529v-2.116h-.529V7.408h.53V6.88h.528V6.35h.53V4.233h.529V2.645h.529V.53h.529V0h-1.058m10.054 0v1.058h-.53v1.059h-.529v.529h-.529v.529h-.529v.53h-.529v1.587h-.53v.529h-.528V6.88h-.53v.528h-.529v1.588h-.529v2.117h-.529v.529h-.53v.529h-.528v2.117h.529v1.587h.529v.53h.53v2.116h.528v2.646h.53v2.116h.529v2.647h-.53v.528h-.529v.53h-.529v2.117h-.529v1.587h-.53v2.116h-.528v.53h1.058v-.53h.53v-2.116h.528v-1.588h.53v-2.117h.529v-.529h.529v-.529h.529v-2.646h-.53v-2.116h-.528V18.52h-.53v-2.116h-.529v-.529h-.529v-1.588h-.529V12.17h.53v-.528h.528v-.53h.53V8.995h.529V7.409h.529V6.88h.529V5.82h.53v-.528h.528V3.704h.53v-.529h.529v-.53h.529v-.528h.529V1.058h.53V0h-1.06m17.991 0v.53h.53v2.116h.529v1.587h.529v1.588h.53v.529h.528v.53h.53v3.175h.529v2.116h.529v2.646h.529v2.116h.53v.53h.528v1.587h.53v2.117h-.53v.529h-.529v.529h-.529v2.117h-.53v1.588h-.528v.528h-.53v1.059h-.529v.529h-.529v1.587h-.529v.53h-.53v.529h-.528v.529h-.53v1.059h-.529v1.058h1.059v-1.059h.529V31.22h.529v-.528h.53v-.53h.528v-.529h.53v-1.588h.529v-.528h.529v-1.059h.529v-.529h.53v-1.587h.528v-2.117h.53v-.53h.529v-.528h.529V19.05h-.53v-1.588h-.529v-.529h-.529v-2.116h-.529V12.17h-.529v-2.116h-.53V6.88h-.528V6.35h-.53v-.53h-.529V4.234h-.529V2.645h-.529V.53h-.53V0h-1.058m6.88 0v1.058h.529v1.059h.529v.529h.53v.529h.528v.53h.53v1.587h.529v.529h.529V6.88h.529v.528h.53v1.588h.528v2.117h.53v.529h.529v.529h.529v2.117h-.53v1.587h-.529v.53h-.529v2.116h-.529v2.646H50.8v2.116h-.53v3.175h-.528v.53h-.53v.529h-.529v1.588h-.529v1.587h-.529v2.116h-.53v.53h1.06v-.53h.528v-2.116h.53v-1.588h.529v-1.587h.529v-.53h.529v-.529h.53v-3.175h.528v-2.116h.53V18.52h.529v-2.116h.529v-.529h.529v-1.588h.53V12.17h-.53v-.528h-.53v-.53h-.528V8.995h-.53V7.409h-.529V6.88h-.529V5.82H50.8v-.528h-.53V3.704h-.528v-.529h-.53v-.53h-.529v-.528h-.529V1.058h-.529V0h-1.058m8.466 0v.53h.53v2.116h.529v1.587h.529v1.588h.529v.529h.53v.53h.528v3.175h.53v2.116h.529v2.646h.529v2.116h.529v.53h.53v1.587h.528v2.117h-.529v.529h-.529v.529h-.53v2.117h-.528v1.588h-.53v.528h-.529v1.059h-.529v.529h-.529v1.587h-.53v.53h-.528v.529h-.53v.529h-.529v1.059h-.529v1.058h1.058v-1.059h.53V31.22h.529v-.528h.529v-.53h.53v-.529h.528v-1.588h.53v-.528h.529v-1.059h.529v-.529h.529v-1.587h.53v-2.117h.528v-.53h.53v-.528h.529V19.05h-.53v-1.588h-.529v-.529h-.529v-2.116h-.529V12.17h-.53v-2.116h-.528V6.88h-.53V6.35h-.529v-.53h-.529V4.234h-.529V2.645h-.53V.53h-.528V0h-1.059"/>
  <path fill="#a0cbcd" d="M28.575 2.646v.529h-1.058v.53h-.53v.528H25.93v.53H25.4v.529h-1.058v.529h-1.059v.529h-.529v.53h-.529v.528h-.53v1.059h-.528v1.058h-.53v2.117h.53v-1.059h.529V8.995h.529v-.528h1.588V7.408h.529V6.88H25.4V6.35h.53v-.53h.528v-.528h1.059v-.53h.529v-.529h1.587v.53h1.059v-.53h1.588v.53h2.116v.529h.529v.529h.53v.529h.528v.53h.53v.528h1.058v.53h.529v.529h.53v.529h.528v1.587h.53v1.059h.529v2.116h.529V9.525h-.53v-.53h-.529v-.528h-.529v-.53h-.529v-.529H38.1V6.88h-.53V6.35h-1.058v-.53h-.529v-.528h-.529v-.53h-.529v-.529h-.53v-.529h-.528v-.529h-.53v-.53h-4.762"/>

  <rect class="snow" width="200%" height="200%" x="0" y="0" fill="url(#snow)" rx="0" ry="0">
    <animateTransform attributeName="transform" attributeType="XML" type="translate" begin="-2s" from="-10,-10" to="0,0" dur="3s" repeatCount="indefinite"/>
  </rect>
</svg>