<?xml version="1.0" encoding="UTF-8" standalone="no"?>
<!-- Created with Inkscape (http://www.inkscape.org/) -->

<svg
   width="128"
   height="128"
   viewBox="0 0 33.866664 33.866666"
   version="1.1"
   id="svg8"
   inkscape:version="1.4 (e7c3feb100, 2024-10-09)"
   sodipodi:docname="teyin_icon_fill.svg"
   xml:space="preserve"
   inkscape:export-filename="png/teyin_icon_fill.png"
   inkscape:export-xdpi="600"
   inkscape:export-ydpi="600"
   xmlns:inkscape="http://www.inkscape.org/namespaces/inkscape"
   xmlns:sodipodi="http://sodipodi.sourceforge.net/DTD/sodipodi-0.dtd"
   xmlns="http://www.w3.org/2000/svg"
   xmlns:svg="http://www.w3.org/2000/svg"
   xmlns:rdf="http://www.w3.org/1999/02/22-rdf-syntax-ns#"
   xmlns:cc="http://creativecommons.org/ns#"
   xmlns:dc="http://purl.org/dc/elements/1.1/"><defs
     id="defs2" /><sodipodi:namedview
     id="base"
     pagecolor="#ffffff"
     bordercolor="#666666"
     borderopacity="1.0"
     inkscape:pageopacity="0.0"
     inkscape:pageshadow="2"
     inkscape:zoom="64"
     inkscape:cx="39.632813"
     inkscape:cy="64.78125"
     inkscape:document-units="px"
     inkscape:current-layer="g1"
     showgrid="true"
     units="px"
     borderlayer="true"
     inkscape:showpageshadow="false"
     inkscape:window-width="1680"
     inkscape:window-height="996"
     inkscape:window-x="0"
     inkscape:window-y="0"
     inkscape:window-maximized="1"
     inkscape:snap-bbox="true"
     inkscape:object-nodes="false"
     inkscape:snap-others="false"
     fit-margin-top="0"
     fit-margin-left="0"
     fit-margin-right="0"
     fit-margin-bottom="0"
     inkscape:pagecheckerboard="false"
     inkscape:snap-bbox-midpoints="false"
     inkscape:snap-bbox-edge-midpoints="false"
     inkscape:bbox-nodes="true"
     inkscape:deskcolor="#d1d1d1"
     showguides="false"><inkscape:grid
       type="xygrid"
       id="grid815"
       spacingx="0.52916667"
       spacingy="0.52916667"
       empspacing="1"
       dotted="false"
       originx="0"
       originy="0"
       units="px" /></sodipodi:namedview><metadata
     id="metadata5"><rdf:RDF><cc:Work
         rdf:about=""><dc:format>image/svg+xml</dc:format><dc:type
           rdf:resource="http://purl.org/dc/dcmitype/StillImage" /></cc:Work></rdf:RDF></metadata><g
     inkscape:groupmode="layer"
     id="layer2"
     inkscape:label="Layer 2"
     style="display:inline"><g
       id="g1"
       transform="matrix(0.74074143,0,0,0.74074143,4.1941222,4.7232905)"><path
         id="path710"
         style="fill:#ad8053;fill-opacity:1;stroke:none;stroke-width:165.365;stroke-linecap:round;stroke-linejoin:round;stroke-miterlimit:21.6"
         d="m 22.224999,8.4666662 3e-6,0.5291674 -1.058336,0.5291659 -0.529167,0.5291665 h -0.529167 l 3e-6,3.175001 h 0.529167 V 14.2875 h 0.529167 v 1.058334 l 0.529163,-10e-7 3e-6,3.175001 0.529164,3.704165 1.058336,2e-6 -3e-6,-0.529169 1.058333,-0.529166 0.529171,-0.529165 h 0.529166 v -3.175 l 0.529163,-2e-6 4e-6,-2.116665 0.529163,-10e-7 v -2.116667 h 1.058333 l 0.529171,0.529168 -4e-6,0.529165 h 1.058333 l 4e-6,-0.529165 0.529163,-10e-7 4e-6,-2.116666 H 29.104169 L 28.574999,10.583333 28.045832,10.054166 26.987499,9.5249995 25.929169,8.9958336 V 8.4666669 Z M 16.404166,24.870832 v 0.529167 h -0.529167 -0.529166 v 0.529166 h 0.529166 0.529167 0.529166 0.529167 0.529167 v -0.529166 -0.529167 h -0.529167 -0.529167 z"
         sodipodi:nodetypes="cccccccccccccccccccccccccccccccccccccccccccccccccccc" /><path
         id="rect189"
         style="fill:#a1774d;fill-opacity:1;stroke:none;stroke-width:165.365;stroke-linecap:round;stroke-linejoin:round;stroke-miterlimit:21.6"
         d="m 22.224999,8.4666662 v 0.5291667 h 0.529167 0.529166 0.529167 0.529166 0.529167 0.529167 0.529166 V 8.4666662 h -0.529166 -0.529167 -0.529167 -0.529166 -0.529167 -0.529166 z m 3.704166,0.5291667 v 0.5291666 h 0.529167 0.529167 V 8.9958329 h -0.529167 z m 1.058334,0.5291666 v 0.5291665 h 0.529166 0.529167 V 9.5249995 h -0.529167 z m 1.058333,0.5291665 v 0.529167 h 0.529167 v -0.529167 z m 0.529167,0.529167 v 0.529166 0.529167 h 0.529166 v -0.529167 -0.529166 z m 0.529166,1.058333 v 0.529167 0.529166 0.529167 0.529167 h 0.529167 v -0.529167 -0.529167 -0.529166 -0.529167 z m 0,2.116667 h -0.529166 -0.529167 v 0.529166 h 0.529167 0.529166 z m -1.058333,0 v -0.529167 h -0.529167 v 0.529167 z m -0.529167,-0.529167 v -0.529167 h -0.529166 -0.529167 v 0.529167 h 0.529167 z m -1.058333,0 h -0.529167 v 0.529167 0.529166 0.529167 0.529167 h 0.529167 v -0.529167 -0.529167 -0.529166 z m -0.529167,2.116667 h -0.529166 v 0.529166 0.529167 0.529166 0.529167 h 0.529166 v -0.529167 -0.529166 -0.529167 z m -0.529166,2.116666 h -0.529167 v 0.529167 0.529166 0.529167 0.529167 0.529166 0.529167 h 0.529167 v -0.529167 -0.529166 -0.529167 -0.529167 -0.529166 z m -0.529167,3.175 h -0.529167 v 0.529167 h 0.529167 z m -0.529167,0.529167 h -0.529166 -0.529167 v 0.529166 h 0.529167 0.529166 z m -1.058333,0.529166 h -0.529166 -0.529167 -0.529167 v 0.529167 h 0.529167 0.529167 0.529166 z m -1.5875,0.529167 h -0.529166 v 0.529167 h 0.529166 z m -0.529166,0.529167 h -0.529167 v 0.529166 h 0.529167 z M 22.224999,8.9958329 h -0.529167 -0.529166 v 0.5291666 h 0.529166 0.529167 z m -1.058333,0.5291666 h -0.529167 v 0.5291665 h 0.529167 z m -0.529167,0.5291665 h -0.529167 v 0.529167 0.529166 0.529167 0.529167 0.529166 0.529167 h 0.529167 v -0.529167 -0.529166 -0.529167 -0.529167 -0.529166 z m 0,3.175 v 0.529167 0.529166 h 0.529167 v -0.529166 -0.529167 z m 0.529167,1.058333 v 0.529167 0.529167 h 0.529166 v -0.529167 -0.529167 z m 0.529166,1.058334 v 0.529166 0.529167 0.529166 0.529167 0.529167 h 0.529167 v -0.529167 -0.529167 -0.529166 -0.529167 -0.529166 z m 0,2.645833 h -0.529166 v 0.529166 h 0.529166 z" /><path
         id="path171"
         style="fill:#d0945b;fill-opacity:1;stroke:none;stroke-width:165.365;stroke-linecap:round;stroke-linejoin:round;stroke-miterlimit:21.6"
         d="M 8.9958329,8.4666662 V 8.9958329 H 8.4666662 V 10.583333 H 7.9374996 v 0.529166 H 6.8791663 v 0.529167 H 6.3499997 v 1.058333 H 5.820833 v 1.058334 H 5.2916664 l 7e-7,1.587501 1.0583326,-10e-7 v 0.529166 H 5.820833 v 1.5875 h 1.5875 v 0.529167 h 1.0583332 v 0.529166 h 0.5291667 v 0.529167 h 0.5291666 v 0.529167 h 0.5291665 v 0.529166 h 0.529167 l 1e-6,0.529169 2.116665,-2e-6 v 2.116667 h 0.529167 v 0.529166 h 0.529167 v 1.058333 h 0.529166 v 0.529167 h 2.116667 1.5875 1.5875 v -0.529167 h 0.529166 v -0.529166 h 0.529167 v -0.529167 h 0.529167 v -0.529166 h 0.529166 v -0.529167 h 0.529167 v -3.704167 h -0.529167 v -1.058333 h -0.529166 v -1.058333 h -0.529167 v -1.058333 h -0.529167 v -0.529167 h -0.529166 v -0.529167 h -0.529167 v -0.529166 h -0.529167 v -0.529167 h -4.233333 v -0.529167 h -1.058333 v -0.529166 h -0.529167 v -0.529167 h -0.529166 v -0.529167 h -0.529167 v -0.529166 l 2e-6,-2.1166661 -1.058335,-7e-7 v 0.5291667 h -0.529167 l 2e-6,-0.529166 z"
         sodipodi:nodetypes="cccccccccccccccccccccccccccccccccccccccccccccccccccccccccccccccccccccccccccccccccc" /><rect
         style="fill:#5e3e23;fill-opacity:1;stroke-width:3.51339;stroke-linecap:square"
         id="rect232"
         width="1.0583344"
         height="0.5291667"
         x="8.4666672"
         y="12.700001" /><path
         id="rect55"
         style="fill:#f5b29b;fill-opacity:1;stroke:none;stroke-width:165.365;stroke-linecap:round;stroke-linejoin:round;stroke-miterlimit:21.6"
         d="m 5.2916664,14.287499 v 0.529167 0.529167 H 5.820833 6.3499997 V 14.816666 14.287499 H 5.820833 Z" /><path
         id="rect152"
         style="fill:#896036;fill-opacity:1;stroke:none;stroke-width:165.365;stroke-linecap:round;stroke-linejoin:round;stroke-miterlimit:21.6"
         d="m 7.408333,14.816666 v 0.529167 H 6.8791663 6.3499997 v 0.529166 h 0.5291666 l 2.1166666,0 v -0.529166 -0.529167 z m -2.1166666,1.5875 v 0.529166 H 4.7624998 v 0.529167 0.529167 h 0.5291666 v 0.529166 H 5.820833 6.3499997 V 17.991666 H 6.8791663 V 17.462499 H 6.3499997 5.820833 v -0.529167 -0.529166 z"
         sodipodi:nodetypes="ccccccccccccccccccccccccccc" /><path
         id="rect292"
         style="fill:#bd864f;fill-opacity:1;stroke:none;stroke-width:165.365;stroke-linecap:round;stroke-linejoin:round;stroke-miterlimit:21.6"
         d="M 9.5249999,8.4666666 V 10.583333 H 10.054166 V 8.4666666 Z m 1.5874991,0 v 2.1166664 h 0.529167 V 8.4666666 Z M 8.9958329,14.816666 v 0.529167 0.529166 H 8.4666661 7.9374995 7.4083329 v 0.529167 h 0.5291666 0.5291666 0.5291668 0.529167 v -0.529167 -0.529166 -0.529167 z m 5.8208331,2.116666 v 0.529167 0.529167 0.529166 h 0.529167 v -0.529166 -0.529167 -0.529167 z m 0,1.5875 h -0.529167 v 0.529167 h 0.529167 z m -0.529167,0.529167 h -0.529166 v 0.529167 h 0.529166 z m -0.529166,0.529167 h -0.529167 -0.529167 v 0.529166 h 0.529167 0.529167 z m -1.058334,0.529166 h -0.529166 -0.529167 -0.529167 -0.529166 v 0.529167 h 0.529166 0.529167 0.529167 0.529166 z m 0,0.529167 v 0.529167 0.529166 0.529167 0.529167 h 0.529167 v -0.529167 -0.529167 -0.529166 -0.529167 z m 0.529167,2.116667 v 0.529166 h 0.529167 v -0.529166 z m 0.529167,0.529166 v 0.529167 0.529166 h 0.529166 v -0.529166 -0.529167 z m 0.529166,1.058333 v 0.529167 h 0.529167 0.529167 0.529166 0.529167 0.529166 0.529167 0.529167 0.529166 0.529167 0.529167 v -0.529167 h -0.529167 -0.529167 -0.529166 -0.529167 -0.529167 -0.529166 -0.529167 -0.529166 -0.529167 z m 5.291667,0 h 0.529166 v -0.529166 h -0.529166 z m 0.529166,-0.529166 h 0.529167 v -0.529167 h -0.529167 z m 0.529167,-0.529167 h 0.529167 v -0.529166 h -0.529167 z m 0.529167,-0.529166 h 0.529166 v -0.529167 h -0.529166 z m 0.529166,-0.529167 h 0.529167 v -0.529167 h -0.529167 z"
         sodipodi:nodetypes="ccccccccccccccccccccccccccccccccccccccccccccccccccccccccccccccccccccccccccccccccccccccccccccccccccccccccccccccccccccccccccccccccccccc" /><path
         id="rect318"
         style="fill:#dfad7b;fill-opacity:1;stroke:none;stroke-width:165.365;stroke-linecap:round;stroke-linejoin:round;stroke-miterlimit:21.6"
         d="M 8.9958329,8.4666662 V 8.9958329 H 9.5249995 V 8.4666662 Z m 0,0.5291667 H 8.4666662 V 10.583333 H 8.9958329 Z M 8.4666662,10.583333 H 7.9374996 v 0.529166 H 8.4666662 Z M 7.9374996,11.112499 H 7.408333 6.8791663 v 0.529167 H 7.408333 7.9374996 Z M 6.8791663,11.641666 H 6.3499997 v 0.529167 0.529166 H 6.8791663 V 12.170833 Z M 6.3499997,12.699999 H 5.820833 v 0.529167 0.529167 H 6.3499997 V 13.229166 Z M 5.820833,13.758333 H 5.2916664 v 0.529166 H 5.820833 Z m 4.7625,-5.2916668 v 0.5291667 h 0.529166 V 8.4666662 Z m 0.529166,2.1166668 v 0.529166 h 0.529167 v -0.529166 z m 0.529167,0.529166 v 0.529167 h 0.529167 v -0.529167 z m 0.529167,0.529167 v 0.529167 h 0.529166 v -0.529167 z m 0.529166,0.529167 v 0.529166 h 0.529167 v -0.529166 z m 0.529167,0.529166 v 0.529167 h 0.529167 0.529166 v -0.529167 h -0.529166 z m 1.058333,0.529167 v 0.529167 h 0.529167 0.529167 0.529166 0.529167 0.529166 0.529167 0.529167 0.529166 v -0.529167 h -0.529166 -0.529167 -0.529167 -0.529166 -0.529167 -0.529166 -0.529167 z"
         sodipodi:nodetypes="cccccccccccccccccccccccccccccccccccccccccccccccccccccccccccccccccccccccccccccccccccccccccccc" /></g></g></svg>
