<?xml version="1.0" encoding="UTF-8" standalone="no"?>
<!-- Created with Inkscape (http://www.inkscape.org/) -->

<svg
   width="128"
   height="128"
   viewBox="0 0 33.866664 33.866666"
   version="1.1"
   id="svg8"
   inkscape:version="1.4 (e7c3feb100, 2024-10-09)"
   sodipodi:docname="teyin_icon_negative.svg"
   xml:space="preserve"
   inkscape:export-filename="png/teyin_negative.png"
   inkscape:export-xdpi="600"
   inkscape:export-ydpi="600"
   xmlns:inkscape="http://www.inkscape.org/namespaces/inkscape"
   xmlns:sodipodi="http://sodipodi.sourceforge.net/DTD/sodipodi-0.dtd"
   xmlns="http://www.w3.org/2000/svg"
   xmlns:svg="http://www.w3.org/2000/svg"
   xmlns:rdf="http://www.w3.org/1999/02/22-rdf-syntax-ns#"
   xmlns:cc="http://creativecommons.org/ns#"
   xmlns:dc="http://purl.org/dc/elements/1.1/"><defs
     id="defs2" /><sodipodi:namedview
     id="base"
     pagecolor="#ffffff"
     bordercolor="#666666"
     borderopacity="1.0"
     inkscape:pageopacity="0.0"
     inkscape:pageshadow="2"
     inkscape:zoom="5.6568542"
     inkscape:cx="66.379649"
     inkscape:cy="62.225397"
     inkscape:document-units="px"
     inkscape:current-layer="layer2"
     showgrid="true"
     units="px"
     borderlayer="true"
     inkscape:showpageshadow="false"
     inkscape:window-width="1680"
     inkscape:window-height="996"
     inkscape:window-x="0"
     inkscape:window-y="0"
     inkscape:window-maximized="1"
     inkscape:snap-bbox="true"
     inkscape:object-nodes="false"
     inkscape:snap-others="false"
     fit-margin-top="0"
     fit-margin-left="0"
     fit-margin-right="0"
     fit-margin-bottom="0"
     inkscape:pagecheckerboard="false"
     inkscape:snap-bbox-midpoints="false"
     inkscape:snap-bbox-edge-midpoints="false"
     inkscape:bbox-nodes="true"
     inkscape:deskcolor="#d1d1d1"
     showguides="false"><inkscape:grid
       type="xygrid"
       id="grid815"
       spacingx="0.52916667"
       spacingy="0.52916667"
       empspacing="1"
       dotted="false"
       originx="0"
       originy="0"
       units="px" /></sodipodi:namedview><metadata
     id="metadata5"><rdf:RDF><cc:Work
         rdf:about=""><dc:format>image/svg+xml</dc:format><dc:type
           rdf:resource="http://purl.org/dc/dcmitype/StillImage" /></cc:Work></rdf:RDF></metadata><g
     inkscape:groupmode="layer"
     id="layer2"
     inkscape:label="Layer 2"
     style="display:inline"><path
       id="path710"
       style="fill:#9a673a;fill-opacity:1;stroke:none;stroke-width:122.493;stroke-linecap:round;stroke-linejoin:round;stroke-miterlimit:21.6"
       d="m 10.857735,10.994677 v 0.392224 h -0.392224 v 1.176156 h -0.391708 v 0.391707 H 9.2898718 v 0.392224 H 8.8976477 v 0.391708 0.392224 H 8.5059404 v 0.391707 0.392224 H 8.1137162 v 0.391707 0.392225 0.391707 h 0.7839315 v 0.392224 H 8.5059404 v 0.391707 H 8.1137162 v 0.392224 H 7.7220089 v 0.391708 0.392224 h 0.3917073 v 0.391707 h 0.3922242 0.3917073 v -0.391707 h 0.3922241 v -0.392224 h 0.3917073 v 0.392224 h 0.7839319 v 0.391707 h 0.392224 v 0.392224 h 0.391707 v 0.391708 h 0.392224 v 0.392224 h 0.392224 v 0.391707 h 1.567863 v 0.392224 0.391708 0.392224 0.391707 h 0.391707 v 0.392224 h 0.392224 v 0.391708 0.392224 h 0.391708 v 0.392224 h 1.567863 v 0.391707 h -0.391708 -0.392224 v 0.392224 h 0.392224 0.391708 0.392224 0.391707 0.392224 V 23.538097 23.14639 h 1.175639 v -0.392224 h 0.392224 v -0.392224 h 0.391707 v -0.391708 h 0.392225 V 21.57801 h 0.391707 v -0.391707 h 0.392224 0.783931 v -0.392224 h 0.391708 0.392224 v -0.391708 h 0.392224 V 20.010147 H 23.00893 V 19.61844 19.226216 18.834508 18.442284 17.658353 h 0.392224 V 17.266645 16.09049 h 0.391708 v -0.391707 -1.176156 h 0.783931 v 0.392224 h 0.392224 v 0.391707 h 0.783932 v -0.391707 h 0.391707 v -1.567863 h -0.391707 v -0.392224 -0.391707 h -0.392224 v -0.392224 h -0.391708 v -0.392224 h -0.392224 -0.391707 v -0.391708 h -0.392224 -0.391708 v -0.392224 h -2.744018 v 0.392224 h -0.392224 -0.391707 v 0.391708 H 19.48098 v 0.392224 h -0.391707 v 0.392224 0.391707 0.392224 0.391708 0.392224 0.391707 h 0.391707 v 0.392224 0.391707 h 0.392225 v 0.392225 0.391707 h 0.391707 v 0.392224 0.391707 0.392224 0.391708 H 19.873205 V 16.874421 H 19.48098 V 16.09049 H 19.089273 V 15.698783 H 18.697049 V 15.306558 H 18.305342 V 14.914851 H 17.913118 V 14.522627 H 14.777392 V 14.13092 H 13.99346 v -0.392224 h -0.391707 v -0.391708 h -0.392224 v -0.392224 h -0.391708 v -0.391707 -1.56838 H 12.425597 12.03389 v 0.392224 h -0.392224 v -0.392224 h -0.392224 z m -0.392224,3.136243 h 0.783931 v 0.391707 h -0.783931 z" /></g></svg>
