<?xml version="1.0" encoding="UTF-8" standalone="no"?>
<!-- Created with Inkscape (http://www.inkscape.org/) -->

<svg
   width="128"
   height="128"
   viewBox="0 0 33.866664 33.866666"
   version="1.1"
   id="svg8"
   inkscape:version="1.4 (e7c3feb100, 2024-10-09)"
   sodipodi:docname="teyin_icon_outline.svg"
   xml:space="preserve"
   inkscape:export-filename="teyin_foreground.png"
   inkscape:export-xdpi="600"
   inkscape:export-ydpi="600"
   xmlns:inkscape="http://www.inkscape.org/namespaces/inkscape"
   xmlns:sodipodi="http://sodipodi.sourceforge.net/DTD/sodipodi-0.dtd"
   xmlns="http://www.w3.org/2000/svg"
   xmlns:svg="http://www.w3.org/2000/svg"
   xmlns:rdf="http://www.w3.org/1999/02/22-rdf-syntax-ns#"
   xmlns:cc="http://creativecommons.org/ns#"
   xmlns:dc="http://purl.org/dc/elements/1.1/"><defs
     id="defs2" /><sodipodi:namedview
     id="base"
     pagecolor="#ffffff"
     bordercolor="#666666"
     borderopacity="1.0"
     inkscape:pageopacity="0.0"
     inkscape:pageshadow="2"
     inkscape:zoom="4"
     inkscape:cx="54.625"
     inkscape:cy="46.5"
     inkscape:document-units="px"
     inkscape:current-layer="layer2"
     showgrid="true"
     units="px"
     borderlayer="true"
     inkscape:showpageshadow="false"
     inkscape:window-width="1680"
     inkscape:window-height="996"
     inkscape:window-x="0"
     inkscape:window-y="0"
     inkscape:window-maximized="1"
     inkscape:snap-bbox="true"
     inkscape:object-nodes="false"
     inkscape:snap-others="false"
     fit-margin-top="0"
     fit-margin-left="0"
     fit-margin-right="0"
     fit-margin-bottom="0"
     inkscape:pagecheckerboard="false"
     inkscape:snap-bbox-midpoints="false"
     inkscape:snap-bbox-edge-midpoints="false"
     inkscape:bbox-nodes="true"
     inkscape:deskcolor="#d1d1d1"
     showguides="false"><inkscape:grid
       type="xygrid"
       id="grid815"
       spacingx="0.52916667"
       spacingy="0.52916667"
       empspacing="1"
       dotted="false"
       originx="0"
       originy="0"
       units="px" /></sodipodi:namedview><metadata
     id="metadata5"><rdf:RDF><cc:Work
         rdf:about=""><dc:format>image/svg+xml</dc:format><dc:type
           rdf:resource="http://purl.org/dc/dcmitype/StillImage" /></cc:Work></rdf:RDF></metadata><g
     inkscape:groupmode="layer"
     id="layer2"
     inkscape:label="Layer 2"
     style="display:inline"><path
       id="rect3"
       style="fill:#ffb475;fill-opacity:1;stroke-width:165.365;stroke-linecap:round;stroke-linejoin:round;stroke-miterlimit:21.6"
       d="M 1.0583333 0 L 1.0583333 1.0583333 L 0 1.0583333 L 0 32.808332 L 1.0583333 32.808332 L 1.0583333 33.866665 L 32.808332 33.866665 L 32.808332 32.808332 L 33.866665 32.808332 L 33.866665 1.0583333 L 32.808332 1.0583333 L 32.808332 0 L 1.0583333 0 z M 2.1166666 1.0583333 L 31.749998 1.0583333 L 31.749998 2.1166666 L 32.808332 2.1166666 L 32.808332 31.749998 L 31.749998 31.749998 L 31.749998 32.808332 L 2.1166666 32.808332 L 2.1166666 31.749998 L 1.0583333 31.749998 L 1.0583333 2.1166666 L 2.1166666 2.1166666 L 2.1166666 1.0583333 z M 22.224999 7.9374996 L 22.224999 8.4666662 L 21.695832 8.4666662 L 21.166666 8.4666662 L 21.166666 8.9958329 L 20.637499 8.9958329 L 20.637499 9.5249995 L 20.637499 10.054166 L 20.108332 10.054166 L 20.108332 10.583333 L 20.108332 11.112499 L 20.108332 11.641666 L 20.108332 12.170833 L 20.108332 12.699999 L 20.108332 13.229166 L 20.637499 13.229166 L 20.637499 13.758333 L 20.637499 14.287499 L 21.166666 14.287499 L 21.166666 14.816666 L 21.166666 15.345833 L 21.695832 15.345833 L 21.695832 15.874999 L 21.695832 16.404166 L 21.695832 16.933332 L 21.695832 17.462499 L 21.166666 17.462499 L 21.166666 16.933332 L 21.166666 16.404166 L 21.166666 15.874999 L 20.637499 15.874999 L 20.637499 15.345833 L 20.637499 14.816666 L 20.108332 14.816666 L 20.108332 14.287499 L 19.579166 14.287499 L 19.579166 13.758333 L 19.049999 13.758333 L 19.049999 13.229166 L 18.520832 13.229166 L 18.520832 12.699999 L 17.991666 12.699999 L 17.462499 12.699999 L 16.933332 12.699999 L 16.404166 12.699999 L 15.874999 12.699999 L 15.345833 12.699999 L 14.816666 12.699999 L 14.287499 12.699999 L 13.758333 12.699999 L 13.758333 12.170833 L 13.229166 12.170833 L 13.229166 11.641666 L 12.699999 11.641666 L 12.699999 11.112499 L 12.170833 11.112499 L 12.170833 10.583333 L 11.641666 10.583333 L 11.641666 10.054166 L 11.641666 9.5249995 L 11.641666 8.9958329 L 11.641666 8.4666662 L 11.112499 8.4666662 L 10.583333 8.4666662 L 10.583333 8.9958329 L 10.054166 8.9958329 L 10.054166 8.4666662 L 9.5249995 8.4666662 L 8.9958329 8.4666662 L 8.4666662 8.4666662 L 8.4666662 8.9958329 L 8.4666662 9.5249995 L 8.4666662 10.054166 L 8.4666662 10.583333 L 7.9374996 10.583333 L 7.9374996 11.112499 L 7.408333 11.112499 L 6.8791663 11.112499 L 6.8791663 11.641666 L 6.3499997 11.641666 L 6.3499997 12.170833 L 6.3499997 12.699999 L 5.820833 12.699999 L 5.820833 13.229166 L 5.820833 13.758333 L 5.2916664 13.758333 L 5.2916664 14.287499 L 5.2916664 14.816666 L 5.2916664 15.345833 L 5.820833 15.345833 L 6.3499997 15.345833 L 6.3499997 15.874999 L 5.820833 15.874999 L 5.820833 16.404166 L 5.2916664 16.404166 L 5.2916664 16.933332 L 4.7624998 16.933332 L 4.7624998 17.462499 L 4.7624998 17.991666 L 5.2916664 17.991666 L 5.2916664 18.520832 L 5.820833 18.520832 L 6.3499997 18.520832 L 6.3499997 17.991666 L 6.8791663 17.991666 L 6.8791663 17.462499 L 7.408333 17.462499 L 7.408333 17.991666 L 7.9374996 17.991666 L 8.4666662 17.991666 L 8.4666662 18.520832 L 8.9958329 18.520832 L 8.9958329 19.049999 L 9.5249995 19.049999 L 9.5249995 19.579166 L 10.054166 19.579166 L 10.054166 20.108332 L 10.583333 20.108332 L 10.583333 20.637499 L 11.112499 20.637499 L 11.641666 20.637499 L 12.170833 20.637499 L 12.699999 20.637499 L 12.699999 21.166666 L 12.699999 21.695832 L 12.699999 22.224999 L 12.699999 22.754166 L 13.229166 22.754166 L 13.229166 23.283332 L 13.758333 23.283332 L 13.758333 23.812499 L 13.758333 24.341665 L 14.287499 24.341665 L 14.287499 24.870832 L 14.816666 24.870832 L 15.345833 24.870832 L 15.345833 25.399999 L 15.874999 25.399999 L 16.404166 25.399999 L 16.404166 25.929165 L 15.874999 25.929165 L 15.345833 25.929165 L 15.345833 26.458332 L 15.345833 26.987499 L 15.874999 26.987499 L 16.404166 26.987499 L 16.933332 26.987499 L 17.462499 26.987499 L 17.991666 26.987499 L 17.991666 26.458332 L 17.991666 25.929165 L 17.991666 25.399999 L 18.520832 25.399999 L 19.049999 25.399999 L 19.579166 25.399999 L 19.579166 24.870832 L 20.108332 24.870832 L 20.108332 24.341665 L 20.637499 24.341665 L 20.637499 23.812499 L 21.166666 23.812499 L 21.166666 23.283332 L 21.695832 23.283332 L 21.695832 22.754166 L 22.224999 22.754166 L 22.754166 22.754166 L 23.283332 22.754166 L 23.283332 22.224999 L 23.812499 22.224999 L 24.341665 22.224999 L 24.341665 21.695832 L 24.870832 21.695832 L 24.870832 21.166666 L 25.399999 21.166666 L 25.399999 20.637499 L 25.929165 20.637499 L 25.929165 20.108332 L 25.929165 19.579166 L 25.929165 19.049999 L 25.929165 18.520832 L 25.929165 17.991666 L 25.929165 17.462499 L 25.929165 16.933332 L 26.458332 16.933332 L 26.458332 16.404166 L 26.458332 15.874999 L 26.458332 15.345833 L 26.987499 15.345833 L 26.987499 14.816666 L 26.987499 14.287499 L 26.987499 13.758333 L 27.516665 13.758333 L 27.516665 14.287499 L 28.045832 14.287499 L 28.574999 14.287499 L 29.104165 14.287499 L 29.633332 14.287499 L 29.633332 13.758333 L 30.162499 13.758333 L 30.162499 13.229166 L 30.162499 12.699999 L 30.162499 12.170833 L 30.162499 11.641666 L 29.633332 11.641666 L 29.633332 11.112499 L 29.633332 10.583333 L 29.104165 10.583333 L 29.104165 10.054166 L 28.574999 10.054166 L 28.574999 9.5249995 L 28.045832 9.5249995 L 28.045832 8.9958329 L 27.516665 8.9958329 L 26.987499 8.9958329 L 26.987499 8.4666662 L 26.458332 8.4666662 L 25.929165 8.4666662 L 25.929165 7.9374996 L 25.399999 7.9374996 L 24.870832 7.9374996 L 24.341665 7.9374996 L 23.812499 7.9374996 L 23.283332 7.9374996 L 22.754166 7.9374996 L 22.224999 7.9374996 z M 22.754166 8.9958329 L 23.283332 8.9958329 L 23.812499 8.9958329 L 24.341665 8.9958329 L 24.870832 8.9958329 L 25.399999 8.9958329 L 25.399999 9.5249995 L 25.929165 9.5249995 L 26.458332 9.5249995 L 26.458332 10.054166 L 26.987499 10.054166 L 27.516665 10.054166 L 27.516665 10.583333 L 28.045832 10.583333 L 28.045832 11.112499 L 28.574999 11.112499 L 28.574999 11.641666 L 28.574999 12.170833 L 29.104165 12.170833 L 29.104165 12.699999 L 29.104165 13.229166 L 28.574999 13.229166 L 28.045832 13.229166 L 28.045832 12.699999 L 27.516665 12.699999 L 26.987499 12.699999 L 26.458332 12.699999 L 25.929165 12.699999 L 25.929165 13.229166 L 25.929165 13.758333 L 25.929165 14.287499 L 25.929165 14.816666 L 25.929165 15.345833 L 25.399999 15.345833 L 25.399999 15.874999 L 25.399999 16.404166 L 25.399999 16.933332 L 24.870832 16.933332 L 24.870832 17.462499 L 24.870832 17.991666 L 24.870832 18.520832 L 24.870832 19.049999 L 24.870832 19.579166 L 24.870832 20.108332 L 24.341665 20.108332 L 24.341665 20.637499 L 23.812499 20.637499 L 23.812499 21.166666 L 23.283332 21.166666 L 22.754166 21.166666 L 22.754166 21.695832 L 22.224999 21.695832 L 21.695832 21.695832 L 21.166666 21.695832 L 21.166666 22.224999 L 20.637499 22.224999 L 20.637499 22.754166 L 20.108332 22.754166 L 20.108332 23.283332 L 19.579166 23.283332 L 19.579166 23.812499 L 19.049999 23.812499 L 19.049999 24.341665 L 18.520832 24.341665 L 17.991666 24.341665 L 17.462499 24.341665 L 16.933332 24.341665 L 16.404166 24.341665 L 15.874999 24.341665 L 15.874999 23.812499 L 15.345833 23.812499 L 14.816666 23.812499 L 14.816666 23.283332 L 14.287499 23.283332 L 14.287499 22.754166 L 13.758333 22.754166 L 13.758333 22.224999 L 13.758333 21.695832 L 13.758333 21.166666 L 13.758333 20.637499 L 13.758333 20.108332 L 13.758333 19.579166 L 14.287499 19.579166 L 14.287499 19.049999 L 14.816666 19.049999 L 14.816666 18.520832 L 15.345833 18.520832 L 15.345833 17.991666 L 15.874999 17.991666 L 15.874999 17.462499 L 15.874999 16.933332 L 15.345833 16.933332 L 14.816666 16.933332 L 14.816666 17.462499 L 14.816666 17.991666 L 14.287499 17.991666 L 14.287499 18.520832 L 13.758333 18.520832 L 13.758333 19.049999 L 13.229166 19.049999 L 13.229166 19.579166 L 12.699999 19.579166 L 12.170833 19.579166 L 11.641666 19.579166 L 11.112499 19.579166 L 10.583333 19.579166 L 10.583333 19.049999 L 10.054166 19.049999 L 10.054166 18.520832 L 9.5249995 18.520832 L 9.5249995 17.991666 L 8.9958329 17.991666 L 8.9958329 17.462499 L 8.4666662 17.462499 L 8.4666662 16.933332 L 7.9374996 16.933332 L 7.9374996 16.404166 L 8.4666662 16.404166 L 8.4666662 15.874999 L 8.4666662 15.345833 L 7.9374996 15.345833 L 7.408333 15.345833 L 7.408333 14.816666 L 6.8791663 14.816666 L 6.3499997 14.816666 L 6.3499997 14.287499 L 6.8791663 14.287499 L 6.8791663 13.758333 L 6.8791663 13.229166 L 7.408333 13.229166 L 7.408333 12.699999 L 7.408333 12.170833 L 7.9374996 12.170833 L 8.4666662 12.170833 L 8.4666662 11.641666 L 8.9958329 11.641666 L 8.9958329 11.112499 L 9.5249995 11.112499 L 9.5249995 10.583333 L 9.5249995 10.054166 L 10.054166 10.054166 L 10.583333 10.054166 L 10.583333 10.583333 L 10.583333 11.112499 L 10.583333 11.641666 L 11.112499 11.641666 L 11.641666 11.641666 L 11.641666 12.170833 L 12.170833 12.170833 L 12.170833 12.699999 L 12.699999 12.699999 L 12.699999 13.229166 L 13.229166 13.229166 L 13.758333 13.229166 L 13.758333 13.758333 L 14.287499 13.758333 L 14.816666 13.758333 L 15.345833 13.758333 L 15.874999 13.758333 L 16.404166 13.758333 L 16.933332 13.758333 L 17.462499 13.758333 L 17.991666 13.758333 L 17.991666 14.287499 L 18.520832 14.287499 L 18.520832 14.816666 L 19.049999 14.816666 L 19.049999 15.345833 L 19.579166 15.345833 L 19.579166 15.874999 L 20.108332 15.874999 L 20.108332 16.404166 L 20.108332 16.933332 L 20.108332 17.462499 L 20.108332 17.991666 L 20.637499 17.991666 L 20.637499 18.520832 L 21.166666 18.520832 L 21.695832 18.520832 L 22.224999 18.520832 L 22.224999 17.991666 L 22.754166 17.991666 L 22.754166 17.462499 L 22.754166 16.933332 L 22.754166 16.404166 L 22.754166 15.874999 L 22.754166 15.345833 L 22.754166 14.816666 L 22.224999 14.816666 L 22.224999 14.287499 L 22.224999 13.758333 L 21.695832 13.758333 L 21.695832 13.229166 L 21.695832 12.699999 L 21.166666 12.699999 L 21.166666 12.170833 L 21.166666 11.641666 L 21.166666 11.112499 L 21.166666 10.583333 L 21.166666 10.054166 L 21.695832 10.054166 L 21.695832 9.5249995 L 22.224999 9.5249995 L 22.754166 9.5249995 L 22.754166 8.9958329 z M 8.4666662 12.699999 L 8.4666662 13.229166 L 8.4666662 13.758333 L 8.9958329 13.758333 L 9.5249995 13.758333 L 10.054166 13.758333 L 10.054166 13.229166 L 10.054166 12.699999 L 9.5249995 12.699999 L 8.9958329 12.699999 L 8.4666662 12.699999 z " /></g></svg>
